<svg width="37" height="36" viewBox="0 0 37 36" fill="none" xmlns="http://www.w3.org/2000/svg">
<rect x="0.5" width="36" height="36" rx="18" fill="#006A2B"/>
<g filter="url(#filter0_d_201_2901)">
<path fill-rule="evenodd" clip-rule="evenodd" d="M9.12451 18.0038C9.12451 12.8345 13.3301 8.62891 18.4995 8.62891C23.6689 8.62891 27.8745 12.8345 27.8745 18.0038C27.8745 18.7362 27.8136 19.329 27.677 19.9241L27.675 19.9339C27.6747 19.9357 27.6069 20.21 27.5695 20.3297C27.3378 21.0707 26.9183 21.6879 26.3563 22.1145C25.8113 22.5283 25.1355 22.7562 24.4535 22.7562C24.3692 22.7562 24.2844 22.7528 24.2013 22.7461C23.2328 22.6684 22.3813 22.1588 21.8591 21.3461C20.9611 22.2492 19.7695 22.746 18.4995 22.746C15.8847 22.746 13.7574 20.6187 13.7574 18.0038C13.7574 15.3891 15.8847 13.2618 18.4995 13.2618C21.1142 13.2618 23.2415 15.3891 23.2415 18.0038V19.5325C23.2455 20.4244 23.844 20.789 24.3553 20.8303C24.8641 20.8695 25.5411 20.5732 25.777 19.606C25.8933 19.0756 25.9524 18.5364 25.9524 18.0038C25.9524 13.8943 22.609 10.5509 18.4995 10.5509C14.3899 10.5509 11.0466 13.8943 11.0466 18.0038C11.0466 22.1134 14.3899 25.4568 18.4995 25.4568C19.93 25.4568 21.3213 25.0482 22.5228 24.2753L22.5443 24.2614L23.8073 25.7297L23.7802 25.7483C22.2195 26.815 20.3934 27.3789 18.4995 27.3789C13.3301 27.3789 9.12451 23.1733 9.12451 18.0038ZM18.4995 20.8255C20.0544 20.8255 21.3194 19.5604 21.3194 18.0054C21.3194 16.4505 20.0544 15.1855 18.4995 15.1855C16.9445 15.1855 15.6795 16.4505 15.6795 18.0054C15.6795 19.5604 16.9445 20.8255 18.4995 20.8255Z" fill="#FFEA4D"/>
</g>
<defs>
<filter id="filter0_d_201_2901" x="5.12451" y="6.62891" width="26.75" height="26.75" filterUnits="userSpaceOnUse" color-interpolation-filters="sRGB">
<feFlood flood-opacity="0" result="BackgroundImageFix"/>
<feColorMatrix in="SourceAlpha" type="matrix" values="0 0 0 0 0 0 0 0 0 0 0 0 0 0 0 0 0 0 127 0" result="hardAlpha"/>
<feOffset dy="2"/>
<feGaussianBlur stdDeviation="2"/>
<feComposite in2="hardAlpha" operator="out"/>
<feColorMatrix type="matrix" values="0 0 0 0 0 0 0 0 0 0.215686 0 0 0 0 0 0 0 0 1 0"/>
<feBlend mode="normal" in2="BackgroundImageFix" result="effect1_dropShadow_201_2901"/>
<feBlend mode="normal" in="SourceGraphic" in2="effect1_dropShadow_201_2901" result="shape"/>
</filter>
</defs>
</svg>
