<svg width="16" height="16" viewBox="0 0 16 16" fill="none" xmlns="http://www.w3.org/2000/svg">
<path d="M9.38923 1.80164L13.8334 5.2583C14.3751 5.67914 14.6917 6.32664 14.6917 7.01247V13.0125C14.6917 13.4545 14.5161 13.8784 14.2036 14.191C13.891 14.5035 13.4671 14.6791 13.0251 14.6791H3.02507C2.58304 14.6791 2.15911 14.5035 1.84655 14.191C1.53399 13.8784 1.3584 13.4545 1.3584 13.0125V7.01247C1.35824 6.67407 1.43541 6.34011 1.58403 6.03609C1.73264 5.73208 1.94877 5.46604 2.2159 5.2583L6.6609 1.80164C7.05091 1.49823 7.53094 1.3335 8.02506 1.3335C8.51919 1.3335 8.99922 1.49823 9.38923 1.80164Z" fill="#929292" stroke="#929292" stroke-width="2" stroke-linecap="round" stroke-linejoin="round"/>
</svg>
