<svg width="36" height="36" viewBox="0 0 36 36" fill="none" xmlns="http://www.w3.org/2000/svg">
<g filter="url(#filter0_d_2101_14513)">
<path d="M14.0935 3.36413C13.9579 3.13822 13.7138 3 13.4504 3H6.19964C5.61667 3 5.25659 3.63598 5.55652 4.13587L13.6565 17.6359C13.7921 17.8618 14.0362 18 14.2996 18H21.5504C22.1333 18 22.4934 17.364 22.1935 16.8641L14.0935 3.36413Z" fill="#C52229"/>
<path fill-rule="evenodd" clip-rule="evenodd" d="M13.4503 2.25H6.19958C5.03364 2.25 4.31347 3.52196 4.91334 4.52174L13.0133 18.0217C13.2844 18.4736 13.7727 18.75 14.2996 18.75H21.5503C22.7162 18.75 23.4364 17.478 22.8365 16.4783L14.7365 2.97826C14.4655 2.52645 13.9772 2.25 13.4503 2.25ZM13.4503 3C13.7137 3 13.9579 3.13822 14.0934 3.36413L22.1934 16.8641C22.4934 17.364 22.1333 18 21.5503 18H14.2996C14.0361 18 13.792 17.8618 13.6565 17.6359L5.55646 4.13587C5.25653 3.63598 5.61661 3 6.19958 3H13.4503Z" fill="#9B0F15"/>
<path d="M21.9064 3.36413C22.0419 3.13822 22.2861 3 22.5495 3H29.8002C30.3832 3 30.7433 3.63598 30.4434 4.13587L22.3434 17.6359C22.2078 17.8618 21.9637 18 21.7002 18H14.4495C13.8666 18 13.5065 17.364 13.8064 16.8641L21.9064 3.36413Z" fill="#F1333B"/>
<path fill-rule="evenodd" clip-rule="evenodd" d="M22.5496 2.25H29.8003C30.9662 2.25 31.6864 3.52196 31.0865 4.52174L22.9865 18.0217C22.7155 18.4736 22.2272 18.75 21.7003 18.75H14.4496C13.2836 18.75 12.5635 17.478 13.1633 16.4783L21.2633 2.97826C21.5344 2.52645 22.0227 2.25 22.5496 2.25ZM22.5496 3C22.2861 3 22.042 3.13822 21.9065 3.36413L13.8065 16.8641C13.5065 17.364 13.8666 18 14.4496 18H21.7003C21.9637 18 22.2079 17.8618 22.3434 17.6359L30.4434 4.13587C30.7434 3.63598 30.3833 3 29.8003 3H22.5496Z" fill="#9B0F15"/>
<path fill-rule="evenodd" clip-rule="evenodd" d="M22.6884 3.42577C22.8675 3.52976 22.9284 3.75926 22.8244 3.93836L19.4494 9.75086C19.3454 9.92997 19.1159 9.99085 18.9368 9.88686C18.7577 9.78286 18.6968 9.55336 18.8008 9.37426L22.1758 3.56176C22.2798 3.38266 22.5093 3.32177 22.6884 3.42577Z" fill="#FE666D"/>
<path fill-rule="evenodd" clip-rule="evenodd" d="M6.18676 3.42577C6.00766 3.52976 5.94677 3.75926 6.05076 3.93836L9.42576 9.75086C9.52976 9.92997 9.75926 9.99085 9.93836 9.88686C10.1175 9.78286 10.1784 9.55336 10.0744 9.37426L6.69936 3.56176C6.59536 3.38266 6.36586 3.32177 6.18676 3.42577Z" fill="#DF3840"/>
<path d="M13.3125 4.23047C13.3125 4.49582 13.1026 4.71094 12.8438 4.71094C12.5849 4.71094 12.375 4.49582 12.375 4.23047C12.375 3.96511 12.5849 3.75 12.8438 3.75C13.1026 3.75 13.3125 3.96511 13.3125 4.23047Z" fill="#AA161D"/>
<path d="M11.6662 4.34766C11.6662 4.67773 11.4051 4.94531 11.0831 4.94531C10.7611 4.94531 10.5 4.67773 10.5 4.34766C10.5 4.01758 10.7611 3.75 11.0831 3.75C11.4051 3.75 11.6662 4.01758 11.6662 4.34766Z" fill="#AA161D"/>
<path d="M13.1249 6.05859C13.1249 6.38867 12.8638 6.65625 12.5418 6.65625C12.2198 6.65625 11.9587 6.38867 11.9587 6.05859C11.9587 5.72852 12.2198 5.46094 12.5418 5.46094C12.8638 5.46094 13.1249 5.72852 13.1249 6.05859Z" fill="#AA161D"/>
<path d="M14.4581 5.24414C14.4581 5.40918 14.3276 5.54297 14.1665 5.54297C14.0055 5.54297 13.875 5.40918 13.875 5.24414C13.875 5.0791 14.0055 4.94531 14.1665 4.94531C14.3276 4.94531 14.4581 5.0791 14.4581 5.24414Z" fill="#AA161D"/>
<path d="M11.3746 5.75977C11.3746 5.9248 11.2441 6.05859 11.083 6.05859C10.922 6.05859 10.7915 5.9248 10.7915 5.75977C10.7915 5.59473 10.922 5.46094 11.083 5.46094C11.2441 5.46094 11.3746 5.59473 11.3746 5.75977Z" fill="#AA161D"/>
<path d="M9.74995 3.93164C9.74995 4.09668 9.61942 4.23047 9.45841 4.23047C9.2974 4.23047 9.16687 4.09668 9.16687 3.93164C9.16687 3.7666 9.2974 3.63281 9.45841 3.63281C9.61942 3.63281 9.74995 3.7666 9.74995 3.93164Z" fill="#AA161D"/>
<path d="M14.1665 7.33008C14.1665 7.49512 14.0359 7.62891 13.8749 7.62891C13.7139 7.62891 13.5834 7.49512 13.5834 7.33008C13.5834 7.16504 13.7139 7.03125 13.8749 7.03125C14.0359 7.03125 14.1665 7.16504 14.1665 7.33008Z" fill="#AA161D"/>
<path d="M12.6665 7.62891C12.6665 7.79394 12.5359 7.92773 12.3749 7.92773C12.2139 7.92773 12.0834 7.79394 12.0834 7.62891C12.0834 7.46387 12.2139 7.33008 12.3749 7.33008C12.5359 7.33008 12.6665 7.46387 12.6665 7.62891Z" fill="#AA161D"/>
<path d="M15.5739 6.54492C15.5739 6.81351 15.3615 7.03125 15.0995 7.03125C14.8374 7.03125 14.625 6.81351 14.625 6.54492C14.625 6.27633 14.8374 6.05859 15.0995 6.05859C15.3615 6.05859 15.5739 6.27633 15.5739 6.54492Z" fill="#AA161D"/>
<path d="M16.1925 7.92773C16.1925 8.09277 16.0619 8.22656 15.9009 8.22656C15.7399 8.22656 15.6094 8.09277 15.6094 7.92773C15.6094 7.7627 15.7399 7.62891 15.9009 7.62891C16.0619 7.62891 16.1925 7.7627 16.1925 7.92773Z" fill="#AA161D"/>
<path d="M28.125 22.875C28.125 28.4669 23.5919 33 18 33C12.4081 33 7.875 28.4669 7.875 22.875C7.875 17.2831 12.4081 12.75 18 12.75C23.5919 12.75 28.125 17.2831 28.125 22.875Z" fill="#DCA16A"/>
<path fill-rule="evenodd" clip-rule="evenodd" d="M28.875 22.875C28.875 28.8811 24.0061 33.75 18 33.75C11.9939 33.75 7.125 28.8811 7.125 22.875C7.125 16.8689 11.9939 12 18 12C24.0061 12 28.875 16.8689 28.875 22.875ZM18 33C23.5919 33 28.125 28.4669 28.125 22.875C28.125 17.2831 23.5919 12.75 18 12.75C12.4081 12.75 7.875 17.2831 7.875 22.875C7.875 28.4669 12.4081 33 18 33Z" fill="#C38144"/>
<path fill-rule="evenodd" clip-rule="evenodd" d="M8.625 23.25C8.41789 23.25 8.25 23.0821 8.25 22.875C8.25 17.4902 12.6152 13.125 18 13.125C18.2071 13.125 18.375 13.2929 18.375 13.5C18.375 13.7071 18.2071 13.875 18 13.875C13.0294 13.875 9 17.9044 9 22.875C9 23.0821 8.83211 23.25 8.625 23.25Z" fill="#F0B57F"/>
<path fill-rule="evenodd" clip-rule="evenodd" d="M27.375 22.5C27.5821 22.5 27.75 22.6679 27.75 22.875C27.75 28.2598 23.3848 32.625 18 32.625C17.7929 32.625 17.625 32.4571 17.625 32.25C17.625 32.0429 17.7929 31.875 18 31.875C22.9706 31.875 27 27.8456 27 22.875C27 22.6679 27.1679 22.5 27.375 22.5Z" fill="#CF945D"/>
<path d="M25.5 22.875C25.5 27.0171 22.1421 30.375 18 30.375C13.8579 30.375 10.5 27.0171 10.5 22.875C10.5 18.7329 13.8579 15.375 18 15.375C22.1421 15.375 25.5 18.7329 25.5 22.875Z" fill="#F7BA82"/>
<path fill-rule="evenodd" clip-rule="evenodd" d="M26.25 22.875C26.25 27.4313 22.5563 31.125 18 31.125C13.4437 31.125 9.75 27.4313 9.75 22.875C9.75 18.3187 13.4437 14.625 18 14.625C22.5563 14.625 26.25 18.3187 26.25 22.875ZM18 30.375C22.1421 30.375 25.5 27.0171 25.5 22.875C25.5 18.7329 22.1421 15.375 18 15.375C13.8579 15.375 10.5 18.7329 10.5 22.875C10.5 27.0171 13.8579 30.375 18 30.375Z" fill="#C38144"/>
<path fill-rule="evenodd" clip-rule="evenodd" d="M18 29.25C21.5208 29.25 24.375 26.3958 24.375 22.875C24.375 22.6679 24.5429 22.5 24.75 22.5C24.9571 22.5 25.125 22.6679 25.125 22.875C25.125 26.81 21.935 30 18 30C17.7929 30 17.625 29.8321 17.625 29.625C17.625 29.4179 17.7929 29.25 18 29.25Z" fill="#E6A66C"/>
<path fill-rule="evenodd" clip-rule="evenodd" d="M18 16.5C14.4792 16.5 11.625 19.3542 11.625 22.875C11.625 23.0821 11.4571 23.25 11.25 23.25C11.0429 23.25 10.875 23.0821 10.875 22.875C10.875 18.94 14.065 15.75 18 15.75C18.2071 15.75 18.375 15.9179 18.375 16.125C18.375 16.3321 18.2071 16.5 18 16.5Z" fill="#FFD5AE"/>
<path d="M17.1108 22.1265H17.7876C18.0044 22.1265 18.1831 22.0898 18.3237 22.0166C18.4644 21.9404 18.5684 21.835 18.6357 21.7002C18.7061 21.5625 18.7412 21.4028 18.7412 21.2212C18.7412 21.0571 18.709 20.9121 18.6445 20.7861C18.583 20.6572 18.4878 20.5576 18.3589 20.4873C18.23 20.4141 18.0674 20.3774 17.8711 20.3774C17.7158 20.3774 17.5723 20.4082 17.4404 20.4697C17.3086 20.5312 17.2031 20.6177 17.124 20.729C17.0449 20.8403 17.0054 20.9751 17.0054 21.1333H15.7354C15.7354 20.7817 15.8291 20.4756 16.0166 20.2148C16.207 19.9541 16.4619 19.7505 16.7812 19.604C17.1006 19.4575 17.4521 19.3843 17.8359 19.3843C18.2695 19.3843 18.6489 19.4546 18.9741 19.5952C19.2993 19.7329 19.5527 19.9365 19.7344 20.2061C19.916 20.4756 20.0068 20.8096 20.0068 21.208C20.0068 21.4102 19.96 21.6064 19.8662 21.7969C19.7725 21.9844 19.6377 22.1543 19.4619 22.3066C19.2891 22.4561 19.0781 22.5762 18.8291 22.667C18.5801 22.7549 18.3003 22.7988 17.9897 22.7988H17.1108V22.1265ZM17.1108 23.0889V22.4341H17.9897C18.3384 22.4341 18.6445 22.4736 18.9082 22.5527C19.1719 22.6318 19.3931 22.7461 19.5718 22.8955C19.7505 23.042 19.8853 23.2163 19.9761 23.4185C20.0669 23.6177 20.1123 23.8389 20.1123 24.082C20.1123 24.3809 20.0552 24.6475 19.9409 24.8818C19.8267 25.1133 19.6655 25.3096 19.4575 25.4707C19.2524 25.6318 19.0122 25.7549 18.7368 25.8398C18.4614 25.9219 18.1611 25.9629 17.8359 25.9629C17.5664 25.9629 17.3013 25.9263 17.0405 25.853C16.7827 25.7769 16.5483 25.6641 16.3374 25.5146C16.1294 25.3623 15.9624 25.1719 15.8364 24.9434C15.7134 24.7119 15.6519 24.438 15.6519 24.1216H16.9219C16.9219 24.2856 16.9629 24.4321 17.0449 24.561C17.127 24.6899 17.2397 24.791 17.3833 24.8643C17.5298 24.9375 17.6924 24.9741 17.8711 24.9741C18.0732 24.9741 18.2461 24.9375 18.3896 24.8643C18.5361 24.7881 18.6475 24.6826 18.7236 24.5479C18.8027 24.4102 18.8423 24.2505 18.8423 24.0688C18.8423 23.8345 18.7998 23.647 18.7148 23.5063C18.6299 23.3628 18.5083 23.2573 18.3501 23.1899C18.1919 23.1226 18.0044 23.0889 17.7876 23.0889H17.1108Z" fill="#FFD5AE"/>
<path fill-rule="evenodd" clip-rule="evenodd" d="M16.4011 21.8833H15.7354C15.3211 21.8833 14.9854 21.5475 14.9854 21.1333C14.9854 20.6403 15.1197 20.1774 15.4077 19.777L15.4109 19.7725C15.6835 19.3993 16.0433 19.1174 16.4685 18.9223C16.8948 18.7268 17.3543 18.6343 17.8359 18.6343C18.3486 18.6343 18.8322 18.7172 19.2692 18.9057C19.715 19.095 20.087 19.3872 20.3563 19.7869C20.6386 20.2058 20.7568 20.6943 20.7568 21.208C20.7568 21.5308 20.681 21.8399 20.5391 22.1281L20.537 22.1323C20.4651 22.2761 20.3787 22.4101 20.2796 22.5345C20.4354 22.7038 20.5632 22.8957 20.6593 23.1092C20.7988 23.4159 20.8623 23.7441 20.8623 24.082C20.8623 24.4781 20.7861 24.8597 20.6151 25.2105L20.6134 25.2138C20.4482 25.5485 20.2141 25.8329 19.9189 26.062C19.6348 26.2848 19.3111 26.4475 18.9579 26.5565L18.9509 26.5586C18.5976 26.6639 18.2243 26.7129 17.8359 26.7129C17.4975 26.7129 17.1641 26.6668 16.8377 26.5751L16.828 26.5723C16.4943 26.4737 16.1848 26.3256 15.9039 26.1267L15.8942 26.1197C15.5971 25.9021 15.3576 25.6283 15.1796 25.3054L15.1742 25.2954C14.9827 24.9353 14.9019 24.5355 14.9019 24.1216C14.9019 23.7074 15.2376 23.3716 15.6519 23.3716H16.416C16.3804 23.2843 16.3608 23.1889 16.3608 23.0889V22.1265C16.3608 22.0414 16.375 21.9596 16.4011 21.8833ZM17.6168 23.8389C17.6523 23.9261 17.6719 24.0216 17.6719 24.1216C17.6719 24.1406 17.6742 24.1498 17.6749 24.1523C17.6754 24.1544 17.676 24.1557 17.6777 24.1584C17.6837 24.1678 17.6925 24.1796 17.7214 24.1948C17.7543 24.2107 17.8 24.2241 17.8711 24.2241C17.9792 24.2241 18.0296 24.2054 18.0466 24.1973C18.0604 24.1898 18.066 24.1847 18.0672 24.1836C18.0682 24.1826 18.069 24.1818 18.0707 24.1788L18.0733 24.1742C18.0782 24.1658 18.0923 24.1385 18.0923 24.0688C18.0923 23.9422 18.0724 23.8945 18.071 23.891L18.0694 23.8883C18.0687 23.8872 18.0682 23.8863 18.0678 23.8857C18.0677 23.8857 18.0678 23.8857 18.0678 23.8857C18.0663 23.8848 18.0626 23.8827 18.0562 23.88C18.0117 23.861 17.9288 23.8389 17.7876 23.8389H17.6168ZM18.3896 24.8643C18.2461 24.9375 18.0732 24.9741 17.8711 24.9741C17.6924 24.9741 17.5298 24.9375 17.3833 24.8643C17.2397 24.791 17.127 24.6899 17.0449 24.561C16.9629 24.4321 16.9219 24.2856 16.9219 24.1216H15.6519C15.6519 24.4059 15.7015 24.6559 15.8009 24.8716C15.8121 24.8959 15.8239 24.9199 15.8364 24.9434C15.9624 25.1719 16.1294 25.3623 16.3374 25.5146C16.5483 25.6641 16.7827 25.7769 17.0405 25.853C17.3013 25.9263 17.5664 25.9629 17.8359 25.9629C18.1611 25.9629 18.4614 25.9219 18.7368 25.8398C19.0122 25.7549 19.2524 25.6318 19.4575 25.4707C19.6655 25.3096 19.8267 25.1133 19.9409 24.8818C20.0552 24.6475 20.1123 24.3809 20.1123 24.082C20.1123 23.8389 20.0669 23.6177 19.9761 23.4185C19.9144 23.2811 19.8324 23.1567 19.7301 23.045C19.6819 22.9923 19.6291 22.9425 19.5718 22.8955C19.4186 22.7674 19.2342 22.6652 19.0187 22.5888C19.187 22.5106 19.3348 22.4165 19.4619 22.3066C19.5477 22.2323 19.6237 22.1538 19.6899 22.0711C19.7594 21.9843 19.8182 21.8929 19.8662 21.7969C19.96 21.6064 20.0068 21.4102 20.0068 21.208C20.0068 20.8096 19.916 20.4756 19.7344 20.2061C19.5527 19.9365 19.2993 19.7329 18.9741 19.5952C18.6489 19.4546 18.2695 19.3843 17.8359 19.3843C17.4521 19.3843 17.1006 19.4575 16.7812 19.604C16.4619 19.7505 16.207 19.9541 16.0166 20.2148C15.9776 20.269 15.9427 20.3252 15.9118 20.3833C15.7942 20.6048 15.7354 20.8548 15.7354 21.1333H17.0054C17.0054 20.9751 17.0449 20.8403 17.124 20.729C17.2031 20.6177 17.3086 20.5312 17.4404 20.4697C17.5723 20.4082 17.7158 20.3774 17.8711 20.3774C18.0674 20.3774 18.23 20.4141 18.3589 20.4873C18.4878 20.5576 18.583 20.6572 18.6445 20.7861C18.709 20.9121 18.7412 21.0571 18.7412 21.2212C18.7412 21.4028 18.7061 21.5625 18.6357 21.7002C18.6314 21.7089 18.6268 21.7175 18.6222 21.726C18.5547 21.8485 18.4552 21.9454 18.3237 22.0166C18.3169 22.0201 18.3101 22.0236 18.3031 22.0269C18.2134 22.0703 18.1089 22.0995 17.9897 22.1145C17.9265 22.1225 17.8591 22.1265 17.7876 22.1265H17.1108V23.0889H17.7876C17.8581 23.0889 17.9255 23.0924 17.9897 23.0995C18.1232 23.1143 18.2433 23.1445 18.3501 23.1899C18.3638 23.1958 18.3772 23.2019 18.3904 23.2083C18.5195 23.2712 18.6222 23.3617 18.6983 23.4797C18.704 23.4884 18.7095 23.4973 18.7148 23.5063C18.7998 23.647 18.8423 23.8345 18.8423 24.0688C18.8423 24.2505 18.8027 24.4102 18.7236 24.5479C18.6475 24.6826 18.5361 24.7881 18.3896 24.8643ZM17.9701 21.3544C17.9519 21.3611 17.898 21.3765 17.7876 21.3765H17.7151C17.7394 21.3054 17.7534 21.2294 17.7552 21.1505C17.756 21.1501 17.7568 21.1498 17.7576 21.1494C17.7835 21.1373 17.8179 21.1274 17.8711 21.1274C17.9308 21.1274 17.965 21.1338 17.981 21.1379C17.9854 21.1508 17.9912 21.1764 17.9912 21.2212C17.9912 21.2973 17.9782 21.3366 17.9701 21.3544Z" fill="#101010"/>
</g>
<defs>
<filter id="filter0_d_2101_14513" x="0" y="0" width="38" height="38" filterUnits="userSpaceOnUse" color-interpolation-filters="sRGB">
<feFlood flood-opacity="0" result="BackgroundImageFix"/>
<feColorMatrix in="SourceAlpha" type="matrix" values="0 0 0 0 0 0 0 0 0 0 0 0 0 0 0 0 0 0 127 0" result="hardAlpha"/>
<feOffset dx="2" dy="2"/>
<feColorMatrix type="matrix" values="0 0 0 0 0.637788 0 0 0 0 0.545996 0 0 0 0 0.47948 0 0 0 0.2 0"/>
<feBlend mode="normal" in2="BackgroundImageFix" result="effect1_dropShadow_2101_14513"/>
<feBlend mode="normal" in="SourceGraphic" in2="effect1_dropShadow_2101_14513" result="shape"/>
</filter>
</defs>
</svg>
