<svg width="36" height="36" viewBox="0 0 36 36" fill="none" xmlns="http://www.w3.org/2000/svg">
<g filter="url(#filter0_d_2101_14515)">
<path d="M14.0935 3.36413C13.9579 3.13822 13.7138 3 13.4504 3H6.19964C5.61667 3 5.25659 3.63598 5.55652 4.13587L13.6565 17.6359C13.7921 17.8618 14.0362 18 14.2996 18H21.5504C22.1333 18 22.4934 17.364 22.1935 16.8641L14.0935 3.36413Z" fill="#C52229"/>
<path fill-rule="evenodd" clip-rule="evenodd" d="M13.4503 2.25H6.19958C5.03364 2.25 4.31347 3.52196 4.91334 4.52174L13.0133 18.0217C13.2844 18.4736 13.7727 18.75 14.2996 18.75H21.5503C22.7162 18.75 23.4364 17.478 22.8365 16.4783L14.7365 2.97826C14.4655 2.52645 13.9772 2.25 13.4503 2.25ZM13.4503 3C13.7137 3 13.9579 3.13822 14.0934 3.36413L22.1934 16.8641C22.4934 17.364 22.1333 18 21.5503 18H14.2996C14.0361 18 13.792 17.8618 13.6565 17.6359L5.55646 4.13587C5.25653 3.63598 5.61661 3 6.19958 3H13.4503Z" fill="#9B0F15"/>
<path d="M21.9064 3.36413C22.0419 3.13822 22.2861 3 22.5495 3H29.8002C30.3832 3 30.7433 3.63598 30.4434 4.13587L22.3434 17.6359C22.2078 17.8618 21.9637 18 21.7002 18H14.4495C13.8666 18 13.5065 17.364 13.8064 16.8641L21.9064 3.36413Z" fill="#F1333B"/>
<path fill-rule="evenodd" clip-rule="evenodd" d="M22.5496 2.25H29.8003C30.9662 2.25 31.6864 3.52196 31.0865 4.52174L22.9865 18.0217C22.7155 18.4736 22.2272 18.75 21.7003 18.75H14.4496C13.2836 18.75 12.5635 17.478 13.1633 16.4783L21.2633 2.97826C21.5344 2.52645 22.0227 2.25 22.5496 2.25ZM22.5496 3C22.2861 3 22.042 3.13822 21.9065 3.36413L13.8065 16.8641C13.5065 17.364 13.8666 18 14.4496 18H21.7003C21.9637 18 22.2079 17.8618 22.3434 17.6359L30.4434 4.13587C30.7434 3.63598 30.3833 3 29.8003 3H22.5496Z" fill="#9B0F15"/>
<path fill-rule="evenodd" clip-rule="evenodd" d="M22.6884 3.42577C22.8675 3.52976 22.9284 3.75926 22.8244 3.93836L19.4494 9.75086C19.3454 9.92997 19.1159 9.99085 18.9368 9.88686C18.7577 9.78286 18.6968 9.55336 18.8008 9.37426L22.1758 3.56176C22.2798 3.38266 22.5093 3.32177 22.6884 3.42577Z" fill="#FE666D"/>
<path fill-rule="evenodd" clip-rule="evenodd" d="M6.18676 3.42577C6.00766 3.52976 5.94677 3.75926 6.05076 3.93836L9.42576 9.75086C9.52976 9.92997 9.75926 9.99085 9.93836 9.88686C10.1175 9.78286 10.1784 9.55336 10.0744 9.37426L6.69936 3.56176C6.59536 3.38266 6.36586 3.32177 6.18676 3.42577Z" fill="#DF3840"/>
<path d="M13.3125 4.23047C13.3125 4.49582 13.1026 4.71094 12.8438 4.71094C12.5849 4.71094 12.375 4.49582 12.375 4.23047C12.375 3.96511 12.5849 3.75 12.8438 3.75C13.1026 3.75 13.3125 3.96511 13.3125 4.23047Z" fill="#AA161D"/>
<path d="M11.6662 4.34766C11.6662 4.67773 11.4051 4.94531 11.0831 4.94531C10.7611 4.94531 10.5 4.67773 10.5 4.34766C10.5 4.01758 10.7611 3.75 11.0831 3.75C11.4051 3.75 11.6662 4.01758 11.6662 4.34766Z" fill="#AA161D"/>
<path d="M13.1249 6.05859C13.1249 6.38867 12.8638 6.65625 12.5418 6.65625C12.2198 6.65625 11.9587 6.38867 11.9587 6.05859C11.9587 5.72852 12.2198 5.46094 12.5418 5.46094C12.8638 5.46094 13.1249 5.72852 13.1249 6.05859Z" fill="#AA161D"/>
<path d="M14.4581 5.24414C14.4581 5.40918 14.3276 5.54297 14.1665 5.54297C14.0055 5.54297 13.875 5.40918 13.875 5.24414C13.875 5.0791 14.0055 4.94531 14.1665 4.94531C14.3276 4.94531 14.4581 5.0791 14.4581 5.24414Z" fill="#AA161D"/>
<path d="M11.3746 5.75977C11.3746 5.9248 11.2441 6.05859 11.083 6.05859C10.922 6.05859 10.7915 5.9248 10.7915 5.75977C10.7915 5.59473 10.922 5.46094 11.083 5.46094C11.2441 5.46094 11.3746 5.59473 11.3746 5.75977Z" fill="#AA161D"/>
<path d="M9.74995 3.93164C9.74995 4.09668 9.61942 4.23047 9.45841 4.23047C9.2974 4.23047 9.16687 4.09668 9.16687 3.93164C9.16687 3.7666 9.2974 3.63281 9.45841 3.63281C9.61942 3.63281 9.74995 3.7666 9.74995 3.93164Z" fill="#AA161D"/>
<path d="M14.1665 7.33008C14.1665 7.49512 14.0359 7.62891 13.8749 7.62891C13.7139 7.62891 13.5834 7.49512 13.5834 7.33008C13.5834 7.16504 13.7139 7.03125 13.8749 7.03125C14.0359 7.03125 14.1665 7.16504 14.1665 7.33008Z" fill="#AA161D"/>
<path d="M12.6665 7.62891C12.6665 7.79394 12.5359 7.92773 12.3749 7.92773C12.2139 7.92773 12.0834 7.79394 12.0834 7.62891C12.0834 7.46387 12.2139 7.33008 12.3749 7.33008C12.5359 7.33008 12.6665 7.46387 12.6665 7.62891Z" fill="#AA161D"/>
<path d="M15.5739 6.54492C15.5739 6.81351 15.3615 7.03125 15.0995 7.03125C14.8374 7.03125 14.625 6.81351 14.625 6.54492C14.625 6.27633 14.8374 6.05859 15.0995 6.05859C15.3615 6.05859 15.5739 6.27633 15.5739 6.54492Z" fill="#AA161D"/>
<path d="M16.1925 7.92773C16.1925 8.09277 16.0619 8.22656 15.9009 8.22656C15.7399 8.22656 15.6094 8.09277 15.6094 7.92773C15.6094 7.7627 15.7399 7.62891 15.9009 7.62891C16.0619 7.62891 16.1925 7.7627 16.1925 7.92773Z" fill="#AA161D"/>
<path d="M28.125 22.875C28.125 28.4669 23.5919 33 18 33C12.4081 33 7.875 28.4669 7.875 22.875C7.875 17.2831 12.4081 12.75 18 12.75C23.5919 12.75 28.125 17.2831 28.125 22.875Z" fill="#FFBB0D"/>
<path fill-rule="evenodd" clip-rule="evenodd" d="M28.875 22.875C28.875 28.8811 24.0061 33.75 18 33.75C11.9939 33.75 7.125 28.8811 7.125 22.875C7.125 16.8689 11.9939 12 18 12C24.0061 12 28.875 16.8689 28.875 22.875ZM18 33C23.5919 33 28.125 28.4669 28.125 22.875C28.125 17.2831 23.5919 12.75 18 12.75C12.4081 12.75 7.875 17.2831 7.875 22.875C7.875 28.4669 12.4081 33 18 33Z" fill="#E89B05"/>
<path fill-rule="evenodd" clip-rule="evenodd" d="M8.625 23.25C8.41789 23.25 8.25 23.0821 8.25 22.875C8.25 17.4902 12.6152 13.125 18 13.125C18.2071 13.125 18.375 13.2929 18.375 13.5C18.375 13.7071 18.2071 13.875 18 13.875C13.0294 13.875 9 17.9044 9 22.875C9 23.0821 8.83211 23.25 8.625 23.25Z" fill="#E8AA0A"/>
<path fill-rule="evenodd" clip-rule="evenodd" d="M27.375 22.5C27.5821 22.5 27.75 22.6679 27.75 22.875C27.75 28.2598 23.3848 32.625 18 32.625C17.7929 32.625 17.625 32.4571 17.625 32.25C17.625 32.0429 17.7929 31.875 18 31.875C22.9706 31.875 27 27.8456 27 22.875C27 22.6679 27.1679 22.5 27.375 22.5Z" fill="#E8AA0A"/>
<path d="M25.5 22.875C25.5 27.0171 22.1421 30.375 18 30.375C13.8579 30.375 10.5 27.0171 10.5 22.875C10.5 18.7329 13.8579 15.375 18 15.375C22.1421 15.375 25.5 18.7329 25.5 22.875Z" fill="#FFDD28"/>
<path fill-rule="evenodd" clip-rule="evenodd" d="M26.25 22.875C26.25 27.4313 22.5563 31.125 18 31.125C13.4437 31.125 9.75 27.4313 9.75 22.875C9.75 18.3187 13.4437 14.625 18 14.625C22.5563 14.625 26.25 18.3187 26.25 22.875ZM18 30.375C22.1421 30.375 25.5 27.0171 25.5 22.875C25.5 18.7329 22.1421 15.375 18 15.375C13.8579 15.375 10.5 18.7329 10.5 22.875C10.5 27.0171 13.8579 30.375 18 30.375Z" fill="#E89B05"/>
<path fill-rule="evenodd" clip-rule="evenodd" d="M18 29.25C21.5208 29.25 24.375 26.3958 24.375 22.875C24.375 22.6679 24.5429 22.5 24.75 22.5C24.9571 22.5 25.125 22.6679 25.125 22.875C25.125 26.81 21.935 30 18 30C17.7929 30 17.625 29.8321 17.625 29.625C17.625 29.4179 17.7929 29.25 18 29.25Z" fill="#ECC704"/>
<path fill-rule="evenodd" clip-rule="evenodd" d="M18 16.5C14.4792 16.5 11.625 19.3542 11.625 22.875C11.625 23.0821 11.4571 23.25 11.25 23.25C11.0429 23.25 10.875 23.0821 10.875 22.875C10.875 18.94 14.065 15.75 18 15.75C18.2071 15.75 18.375 15.9179 18.375 16.125C18.375 16.3321 18.2071 16.5 18 16.5Z" fill="#FFEF9C"/>
<path d="M18.895 25.875H17.625V20.9795L16.1089 21.4497V20.417L18.7588 19.4678H18.895V25.875Z" fill="#FFEF9C"/>
<path fill-rule="evenodd" clip-rule="evenodd" d="M19.645 25.875C19.645 26.2892 19.3092 26.625 18.895 26.625H17.625C17.2108 26.625 16.875 26.2892 16.875 25.875V21.9973L16.3311 22.166C16.1034 22.2366 15.8558 22.1949 15.664 22.0535C15.4721 21.9121 15.3589 21.688 15.3589 21.4497V20.417C15.3589 20.1003 15.5578 19.8177 15.856 19.7109L18.5059 18.7617C18.587 18.7326 18.6726 18.7178 18.7588 18.7178H18.895C19.3092 18.7178 19.645 19.0536 19.645 19.4678V25.875ZM17.625 20.9795V25.875H18.895V19.4678H18.7588L16.1089 20.417V21.4497L17.625 20.9795Z" fill="#101010"/>
</g>
<defs>
<filter id="filter0_d_2101_14515" x="0" y="0" width="38" height="38" filterUnits="userSpaceOnUse" color-interpolation-filters="sRGB">
<feFlood flood-opacity="0" result="BackgroundImageFix"/>
<feColorMatrix in="SourceAlpha" type="matrix" values="0 0 0 0 0 0 0 0 0 0 0 0 0 0 0 0 0 0 127 0" result="hardAlpha"/>
<feOffset dx="2" dy="2"/>
<feColorMatrix type="matrix" values="0 0 0 0 0.637788 0 0 0 0 0.545996 0 0 0 0 0.47948 0 0 0 0.2 0"/>
<feBlend mode="normal" in2="BackgroundImageFix" result="effect1_dropShadow_2101_14515"/>
<feBlend mode="normal" in="SourceGraphic" in2="effect1_dropShadow_2101_14515" result="shape"/>
</filter>
</defs>
</svg>
