<svg width="16" height="16" viewBox="0 0 16 16" fill="none" xmlns="http://www.w3.org/2000/svg">
<path d="M13.6569 2.34313C12.1458 0.832125 10.1369 0 8 0C5.86312 0 3.85416 0.832125 2.34313 2.34313C0.832125 3.85416 0 5.86312 0 8C0 10.1369 0.832125 12.1458 2.34313 13.6569C3.85416 15.1679 5.86312 16 8 16C10.1369 16 12.1458 15.1679 13.6569 13.6569C15.1679 12.1458 16 10.1369 16 8C16 5.86312 15.1679 3.85416 13.6569 2.34313ZM10.3907 11.5106L7.47828 8.19669V3.22863H8.52175V7.80331L11.1746 10.8217L10.3907 11.5106Z" fill="#929292"/>
</svg>
