<svg width="20" height="22" viewBox="0 0 20 22" fill="none" xmlns="http://www.w3.org/2000/svg">
<path d="M1 18.7779C1 19.3673 1.23413 19.9325 1.65088 20.3492C2.06762 20.766 2.63286 21.0001 3.22223 21.0001C3.8116 21.0001 4.37683 20.766 4.79358 20.3492C5.21033 19.9325 5.44445 19.3673 5.44445 18.7779C5.44445 18.1885 5.21033 17.6233 4.79358 17.2065C4.37683 16.7898 3.8116 16.5557 3.22223 16.5557C2.63286 16.5557 2.06762 16.7898 1.65088 17.2065C1.23413 17.6233 1 18.1885 1 18.7779Z" stroke="#3C4852" stroke-width="2" stroke-linecap="round" stroke-linejoin="round"/>
<path d="M13.2222 18.7779C13.2222 19.3673 13.4563 19.9325 13.873 20.3492C14.2898 20.766 14.855 21.0001 15.4444 21.0001C16.0338 21.0001 16.599 20.766 17.0157 20.3492C17.4325 19.9325 17.6666 19.3673 17.6666 18.7779C17.6666 18.1885 17.4325 17.6233 17.0157 17.2065C16.599 16.7898 16.0338 16.5557 15.4444 16.5557C14.855 16.5557 14.2898 16.7898 13.873 17.2065C13.4563 17.6233 13.2222 18.1885 13.2222 18.7779Z" stroke="#3C4852" stroke-width="2" stroke-linecap="round" stroke-linejoin="round"/>
<path d="M15.4445 16.5556H3.22223V1H1" stroke="#3C4852" stroke-width="2" stroke-linecap="round" stroke-linejoin="round"/>
<path d="M3.22217 3.22217L18.7778 4.33328L17.6666 12.1111H3.22217" stroke="#3C4852" stroke-width="2" stroke-linecap="round" stroke-linejoin="round"/>
</svg>
