<svg width="26" height="21" viewBox="0 0 26 21" fill="none" xmlns="http://www.w3.org/2000/svg">
<path d="M1 3.83329C1 3.12605 1.28095 2.44777 1.78105 1.94767C2.28115 1.44758 2.95942 1.16663 3.66667 1.16663H22.3333C23.0406 1.16663 23.7189 1.44758 24.219 1.94767C24.719 2.44777 25 3.12605 25 3.83329V17.1666C25 17.8739 24.719 18.5521 24.219 19.0522C23.7189 19.5523 23.0406 19.8333 22.3333 19.8333H3.66667C2.95942 19.8333 2.28115 19.5523 1.78105 19.0522C1.28095 18.5521 1 17.8739 1 17.1666V3.83329Z" stroke="#FFCC80" stroke-width="2" stroke-linecap="round" stroke-linejoin="round"/>
<path d="M1 3.83325L13 11.8333L25 3.83325" stroke="#FFCC80" stroke-width="2" stroke-linecap="round" stroke-linejoin="round"/>
</svg>
