<svg width="26" height="23" viewBox="0 0 26 23" fill="none" xmlns="http://www.w3.org/2000/svg">
<path d="M22.4044 12.5942L13.0361 21.8726L3.66773 12.5942C3.0498 11.9929 2.56307 11.2701 2.23818 10.4715C1.9133 9.67283 1.75729 8.81556 1.78 7.95365C1.8027 7.09174 2.00362 6.24387 2.3701 5.46343C2.73658 4.68299 3.26069 3.98688 3.90942 3.41894C4.55814 2.851 5.31744 2.42354 6.13948 2.16346C6.96153 1.90339 7.82852 1.81634 8.68586 1.90779C9.54321 1.99925 10.3723 2.26723 11.121 2.69486C11.8697 3.1225 12.5217 3.70051 13.0361 4.39252C13.5526 3.70554 14.2054 3.13257 14.9536 2.70948C15.7017 2.28638 16.5292 2.02227 17.3841 1.93367C18.2391 1.84508 19.1031 1.9339 19.9221 2.19458C20.7411 2.45526 21.4976 2.88219 22.144 3.44865C22.7904 4.01511 23.313 4.7089 23.679 5.48661C24.045 6.26431 24.2465 7.10919 24.2709 7.96836C24.2954 8.82753 24.1422 9.68249 23.821 10.4797C23.4999 11.277 23.0176 11.9994 22.4044 12.6017" stroke="#FFCC80" stroke-width="2" stroke-linecap="round" stroke-linejoin="round"/>
</svg>
