<svg width="21" height="27" viewBox="0 0 21 27" fill="none" xmlns="http://www.w3.org/2000/svg">
<path d="M1.33325 14.8333C1.33325 14.126 1.6142 13.4478 2.1143 12.9477C2.6144 12.4476 3.29267 12.1666 3.99992 12.1666H17.3333C18.0405 12.1666 18.7188 12.4476 19.2189 12.9477C19.719 13.4478 19.9999 14.126 19.9999 14.8333V22.8333C19.9999 23.5405 19.719 24.2188 19.2189 24.7189C18.7188 25.219 18.0405 25.5 17.3333 25.5H3.99992C3.29267 25.5 2.6144 25.219 2.1143 24.7189C1.6142 24.2188 1.33325 23.5405 1.33325 22.8333V14.8333Z" stroke="#FFCC80" stroke-width="2" stroke-linecap="round" stroke-linejoin="round"/>
<path d="M10 19C10 19.2652 10.1054 19.5196 10.2929 19.7071C10.4804 19.8946 10.7348 20 11 20C11.2652 20 11.5196 19.8946 11.7071 19.7071C11.8946 19.5196 12 19.2652 12 19C12 18.7348 11.8946 18.4804 11.7071 18.2929C11.5196 18.1054 11.2652 18 11 18C10.7348 18 10.4804 18.1054 10.2929 18.2929C10.1054 18.4804 10 18.7348 10 19Z" stroke="#FFCC80" stroke-width="2" stroke-linecap="round" stroke-linejoin="round"/>
<path d="M5.33325 12.1667V6.83333C5.33325 5.41885 5.89515 4.06229 6.89535 3.0621C7.89554 2.0619 9.2521 1.5 10.6666 1.5C12.0811 1.5 13.4376 2.0619 14.4378 3.0621C15.438 4.06229 15.9999 5.41885 15.9999 6.83333V12.1667" stroke="#FFCC80" stroke-width="2" stroke-linecap="round" stroke-linejoin="round"/>
</svg>
