<svg width="26" height="27" viewBox="0 0 26 27" fill="none" xmlns="http://www.w3.org/2000/svg">
<path d="M1 13.5C1 15.0759 1.31039 16.6363 1.91345 18.0922C2.5165 19.5481 3.40042 20.871 4.51472 21.9853C5.62902 23.0996 6.95189 23.9835 8.4078 24.5866C9.86371 25.1896 11.4241 25.5 13 25.5C14.5759 25.5 16.1363 25.1896 17.5922 24.5866C19.0481 23.9835 20.371 23.0996 21.4853 21.9853C22.5996 20.871 23.4835 19.5481 24.0866 18.0922C24.6896 16.6363 25 15.0759 25 13.5C25 11.9241 24.6896 10.3637 24.0866 8.9078C23.4835 7.45189 22.5996 6.12902 21.4853 5.01472C20.371 3.90042 19.0481 3.0165 17.5922 2.41345C16.1363 1.81039 14.5759 1.5 13 1.5C11.4241 1.5 9.86371 1.81039 8.4078 2.41345C6.95189 3.0165 5.62902 3.90042 4.51472 5.01472C3.40042 6.12902 2.5165 7.45189 1.91345 8.9078C1.31039 10.3637 1 11.9241 1 13.5Z" stroke="#FFCC80" stroke-width="2" stroke-linecap="round" stroke-linejoin="round"/>
<path d="M9 10.8334C9 11.8942 9.42143 12.9117 10.1716 13.6618C10.9217 14.4119 11.9391 14.8334 13 14.8334C14.0609 14.8334 15.0783 14.4119 15.8284 13.6618C16.5786 12.9117 17 11.8942 17 10.8334C17 9.77251 16.5786 8.75509 15.8284 8.00495C15.0783 7.2548 14.0609 6.83337 13 6.83337C11.9391 6.83337 10.9217 7.2548 10.1716 8.00495C9.42143 8.75509 9 9.77251 9 10.8334Z" stroke="#FFCC80" stroke-width="2" stroke-linecap="round" stroke-linejoin="round"/>
<path d="M5.22388 22.632C5.55389 21.5337 6.22917 20.5709 7.14954 19.8867C8.06991 19.2024 9.18634 18.833 10.3332 18.8334H15.6665C16.8149 18.833 17.9327 19.2032 18.8537 19.8891C19.7748 20.5749 20.4498 21.5397 20.7785 22.64" stroke="#FFCC80" stroke-width="2" stroke-linecap="round" stroke-linejoin="round"/>
</svg>
