<svg width="20" height="21" viewBox="0 0 20 21" fill="none" xmlns="http://www.w3.org/2000/svg">
<path d="M7.31903 11.1435C9.26501 8.50399 11.1347 5.82628 13.0425 3.14856C13.9201 3.49284 14.7596 3.83712 15.6372 4.18139C16.0187 4.37266 16.5148 4.44916 16.82 4.71694C16.4766 6.36182 16.0569 7.96845 15.7135 9.61333C16.8963 8.61875 18.041 7.62417 19.2239 6.66785C19.7962 8.0067 20.0633 9.42207 19.987 10.8757C18.041 12.6353 16.1332 14.395 14.1491 16.1164C13.157 15.5808 12.1268 15.0835 11.1347 14.5862C11.5163 13.0561 11.8978 11.526 12.2794 10.0341C10.486 12.6736 8.73082 15.3896 6.93746 18.029C5.67829 17.5317 4.38097 16.9962 3.1218 16.4989C3.50336 14.9688 3.88493 13.4386 4.2665 11.9085C3.35074 13.1326 2.39682 14.395 1.48106 15.6191C0.756087 14.4332 0.260048 13.0944 0.107422 11.7173C1.67184 9.84285 3.23627 7.9302 4.80069 6.05579C4.91516 5.97929 4.99147 5.74977 5.1441 5.86453C6.13617 6.32357 7.09009 6.82086 8.08216 7.31815C7.81506 8.61875 7.54797 9.8811 7.31903 11.1435Z" fill="black"/>
<path d="M6.89871 18.0677C8.69207 15.4282 10.4473 12.7122 12.2406 10.0728C11.8591 11.6029 11.4775 13.133 11.0959 14.6249C12.1262 15.1222 13.1182 15.6195 14.1103 16.155C16.0945 14.4336 18.0023 12.6357 19.9483 10.9143C19.8338 14.5866 17.5444 18.0294 14.2248 19.5595C12.088 20.5541 9.56967 20.7836 7.31843 20.1333C4.91457 19.4448 2.77779 17.8381 1.48047 15.6577C2.39623 14.4336 3.31199 13.1713 4.2659 11.9472C3.88434 13.4773 3.50277 15.0074 3.1212 16.5375C4.38037 17.0348 5.63954 17.5321 6.89871 18.0677Z" fill="#FED104"/>
<path d="M5.48756 1.58026C7.85327 0.356157 10.7532 0.164891 13.2715 1.04471C15.9425 1.96279 18.1556 4.06671 19.1858 6.66792C18.0029 7.6625 16.8582 8.65708 15.6754 9.61341C16.0188 7.96852 16.4385 6.36189 16.7819 4.71701C16.4767 4.44924 15.9806 4.37273 15.5991 4.18147C14.7215 3.83719 13.882 3.49291 13.0044 3.14863C11.0966 5.7881 9.22691 8.50407 7.28092 11.1435C7.54802 9.88118 7.77696 8.61883 8.04405 7.35647C7.09014 6.85918 6.09807 6.36189 5.10599 5.90286C4.95337 5.7881 4.8389 6.01762 4.76259 6.09412C3.19817 7.96852 1.6719 9.88118 0.069322 11.7556C-0.121461 9.99594 0.0693197 8.15979 0.794295 6.51491C1.78637 4.41099 3.4271 2.61309 5.48756 1.58026Z" fill="#FED104"/>
</svg>
