<svg width="36" height="36" viewBox="0 0 36 36" fill="none" xmlns="http://www.w3.org/2000/svg">
<rect width="36" height="36" rx="18" fill="#FFEA4D"/>
<path d="M18.0007 8C15.2849 8 14.944 8.01188 13.8774 8.06042C12.8128 8.10917 12.0861 8.27771 11.4502 8.525C10.7925 8.78042 10.2346 9.12208 9.67877 9.67813C9.12251 10.234 8.78084 10.7919 8.52459 11.4494C8.27667 12.0854 8.10792 12.8123 8.06 13.8765C8.0125 14.9431 8 15.2842 8 18C8 20.7158 8.01208 21.0556 8.06042 22.1223C8.10938 23.1869 8.27792 23.9135 8.52501 24.5494C8.78063 25.2071 9.1223 25.765 9.67835 26.3208C10.234 26.8771 10.7919 27.2196 11.4492 27.475C12.0855 27.7223 12.8123 27.8908 13.8767 27.9396C14.9434 27.9881 15.284 28 17.9997 28C20.7158 28 21.0556 27.9881 22.1222 27.9396C23.1868 27.8908 23.9143 27.7223 24.5506 27.475C25.2081 27.2196 25.7652 26.8771 26.3208 26.3208C26.8771 25.765 27.2187 25.2071 27.475 24.5496C27.7208 23.9135 27.8896 23.1867 27.9396 22.1225C27.9875 21.0558 28 20.7158 28 18C28 15.2842 27.9875 14.9433 27.9396 13.8767C27.8896 12.8121 27.7208 12.0854 27.475 11.4496C27.2187 10.7919 26.8771 10.234 26.3208 9.67813C25.7646 9.12188 25.2083 8.78021 24.55 8.525C23.9125 8.27771 23.1854 8.10917 22.1208 8.06042C21.0541 8.01188 20.7145 8 17.9978 8H18.0007ZM17.1036 9.80208C17.3699 9.80167 17.667 9.80208 18.0007 9.80208C20.6708 9.80208 20.9872 9.81167 22.0416 9.85958C23.0166 9.90417 23.5458 10.0671 23.8983 10.204C24.365 10.3852 24.6977 10.6019 25.0475 10.9519C25.3975 11.3019 25.6141 11.6352 25.7958 12.1019C25.9327 12.454 26.0958 12.9831 26.1402 13.9581C26.1881 15.0123 26.1985 15.329 26.1985 17.9977C26.1985 20.6665 26.1881 20.9831 26.1402 22.0373C26.0956 23.0123 25.9327 23.5415 25.7958 23.8935C25.6146 24.3602 25.3975 24.6925 25.0475 25.0423C24.6975 25.3923 24.3652 25.609 23.8983 25.7902C23.5462 25.9277 23.0166 26.0902 22.0416 26.1348C20.9874 26.1827 20.6708 26.1931 18.0007 26.1931C15.3305 26.1931 15.014 26.1827 13.9599 26.1348C12.9848 26.0898 12.4557 25.9269 12.103 25.79C11.6363 25.6087 11.303 25.3921 10.9529 25.0421C10.6029 24.6921 10.3863 24.3596 10.2046 23.8927C10.0677 23.5406 9.9046 23.0115 9.86023 22.0365C9.81231 20.9823 9.80273 20.6656 9.80273 17.9952C9.80273 15.3248 9.81231 15.0098 9.86023 13.9556C9.90481 12.9806 10.0677 12.4515 10.2046 12.099C10.3859 11.6323 10.6029 11.299 10.9529 10.949C11.303 10.599 11.6363 10.3823 12.103 10.2006C12.4555 10.0631 12.9848 9.90063 13.9599 9.85583C14.8824 9.81417 15.2399 9.80167 17.1036 9.79958V9.80208Z" fill="#006A2B"/>
<path d="M23.3172 11.4379C23.0798 11.4379 22.8478 11.5083 22.6505 11.6402C22.4531 11.7721 22.2993 11.9595 22.2085 12.1788C22.1177 12.3981 22.0939 12.6394 22.1403 12.8722C22.1866 13.105 22.3009 13.3188 22.4688 13.4866C22.6367 13.6544 22.8505 13.7687 23.0833 13.8149C23.3161 13.8612 23.5574 13.8374 23.7767 13.7465C23.996 13.6556 24.1834 13.5017 24.3152 13.3043C24.447 13.1069 24.5173 12.8749 24.5172 12.6375C24.5172 11.975 23.9797 11.4379 23.3172 11.4379Z" fill="#006A2B"/>
<path fill-rule="evenodd" clip-rule="evenodd" d="M17.9792 12.84C15.1432 12.84 12.8438 15.1394 12.8438 17.9754C12.8438 20.8115 15.1432 23.1098 17.9792 23.1098C20.8153 23.1098 23.1141 20.8115 23.1141 17.9754C23.1141 15.1394 20.8153 12.84 17.9792 12.84ZM18 21.2813C19.8122 21.2813 21.2813 19.8122 21.2813 18C21.2813 16.1878 19.8122 14.7188 18 14.7188C16.1878 14.7188 14.7188 16.1878 14.7188 18C14.7188 19.8122 16.1878 21.2813 18 21.2813Z" fill="#006A2B"/>
</svg>
