<svg width="36" height="36" viewBox="0 0 36 36" fill="none" xmlns="http://www.w3.org/2000/svg">
<rect width="36" height="36" rx="18" fill="#FFEA4D"/>
<path d="M23.439 26.2529H27.3755V18.8351C27.3755 15.1716 25.0019 13.9221 22.8054 13.9221C20.7743 13.9221 19.3946 15.1826 19.0136 15.921V14.2592H15.2279V26.2529H19.1644V19.7503C19.1644 18.0165 20.3094 17.1733 21.4774 17.1733C22.5822 17.1733 23.439 17.7694 23.439 19.7022V26.2529Z" fill="#006A2B"/>
<path d="M8.62549 10.421C8.62549 11.6731 9.64156 12.5882 10.8949 12.5882C12.1485 12.5882 13.1645 11.6731 13.1645 10.421C13.1645 9.16902 12.1485 8.25293 10.8949 8.25293C9.64156 8.25293 8.62549 9.16902 8.62549 10.421Z" fill="#006A2B"/>
<path d="M8.92678 26.2437H12.863V14.25H8.92678V26.2437Z" fill="#006A2B"/>
</svg>
