<svg width="53" height="52" viewBox="0 0 53 52" fill="none" xmlns="http://www.w3.org/2000/svg">
<g filter="url(#filter0_d_809_1604)">
<rect x="6.5" y="4" width="40" height="40" rx="20" fill="#FFEA4D" shape-rendering="crispEdges"/>
<path d="M32.5432 33.1719H36.9171V24.9299C36.9171 20.8593 34.2797 19.471 31.8391 19.471C29.5824 19.471 28.0494 20.8715 27.6261 21.692V19.8455H23.4198V33.1719H27.7936V25.9468C27.7936 24.0203 29.0658 23.0834 30.3637 23.0834C31.5912 23.0834 32.5432 23.7457 32.5432 25.8933V33.1719Z" fill="#006A2B"/>
<path d="M16.0837 15.5808C16.0837 16.9721 17.2127 17.9888 18.6053 17.9888C19.9981 17.9888 21.1271 16.9721 21.1271 15.5808C21.1271 14.1898 19.9981 13.1719 18.6053 13.1719C17.2127 13.1719 16.0837 14.1898 16.0837 15.5808Z" fill="#006A2B"/>
<path d="M16.4185 33.1616H20.7921V19.8352H16.4185V33.1616Z" fill="#006A2B"/>
</g>
<defs>
<filter id="filter0_d_809_1604" x="0.5" y="0" width="52" height="52" filterUnits="userSpaceOnUse" color-interpolation-filters="sRGB">
<feFlood flood-opacity="0" result="BackgroundImageFix"/>
<feColorMatrix in="SourceAlpha" type="matrix" values="0 0 0 0 0 0 0 0 0 0 0 0 0 0 0 0 0 0 127 0" result="hardAlpha"/>
<feOffset dy="2"/>
<feGaussianBlur stdDeviation="3"/>
<feComposite in2="hardAlpha" operator="out"/>
<feColorMatrix type="matrix" values="0 0 0 0 0.0627451 0 0 0 0 0.0627451 0 0 0 0 0.0627451 0 0 0 0.08 0"/>
<feBlend mode="normal" in2="BackgroundImageFix" result="effect1_dropShadow_809_1604"/>
<feBlend mode="normal" in="SourceGraphic" in2="effect1_dropShadow_809_1604" result="shape"/>
</filter>
</defs>
</svg>
