<svg width="36" height="36" viewBox="0 0 36 36" fill="none" xmlns="http://www.w3.org/2000/svg">
<rect width="36" height="36" rx="18" fill="#FFEA4D"/>
<path d="M17.7256 14.7563L17.7668 15.4483L17.0803 15.3636C14.5817 15.0387 12.3989 13.9371 10.5456 12.0869L9.63947 11.1689L9.40608 11.8468C8.91186 13.358 9.22761 14.954 10.2573 16.0274C10.8064 16.6205 10.6828 16.7053 9.73557 16.3522C9.40608 16.2392 9.11778 16.1545 9.09033 16.1968C8.99423 16.2957 9.32371 17.5809 9.58456 18.0894C9.9415 18.7955 10.6691 19.4876 11.4654 19.8972L12.1381 20.222L11.3418 20.2361C10.573 20.2361 10.5456 20.2502 10.6279 20.5468C10.9025 21.4649 11.9871 22.4394 13.1952 22.8631L14.0463 23.1597L13.305 23.6116C12.2067 24.2613 10.9162 24.6285 9.62574 24.6567C9.00796 24.6709 8.5 24.7273 8.5 24.7697C8.5 24.911 10.1749 25.7019 11.1496 26.0126C14.0738 26.9306 17.5471 26.5351 20.1555 24.9674C22.0089 23.8517 23.8622 21.6343 24.7271 19.4876C25.1939 18.3436 25.6607 16.2533 25.6607 15.2506C25.6607 14.6009 25.7019 14.5162 26.4707 13.7394C26.9237 13.2874 27.3493 12.7931 27.4317 12.6519C27.569 12.3835 27.5552 12.3835 26.8551 12.6236C25.6881 13.0473 25.5234 12.9908 26.1 12.3553C26.5256 11.9033 27.0335 11.0842 27.0335 10.8441C27.0335 10.8017 26.8276 10.8723 26.5942 10.9994C26.3471 11.1407 25.798 11.3525 25.3861 11.4796L24.6448 11.7197L23.9721 11.2537C23.6014 10.9994 23.0797 10.717 22.8051 10.6322C22.105 10.4345 21.0342 10.4627 20.4026 10.6887C18.6866 11.3243 17.602 12.9626 17.7256 14.7563Z" fill="#006A2B"/>
</svg>
