<svg width="36" height="36" viewBox="0 0 36 36" fill="none" xmlns="http://www.w3.org/2000/svg">
<rect width="36" height="36" rx="18" fill="#FFEA4D"/>
<path d="M17.9938 11C17.9938 11 11.743 11 10.1741 11.4078C9.33408 11.6425 8.64238 12.3344 8.40767 13.187C8.00001 14.7563 8 18.0062 8 18.0062C8 18.0062 8.00001 21.2684 8.40767 22.813C8.64238 23.6656 9.32173 24.3451 10.1741 24.5799C11.7553 25 17.9938 25 17.9938 25C17.9938 25 24.257 25 25.8259 24.5922C26.6782 24.3574 27.3576 23.6903 27.5799 22.8253C28 21.2684 28 18.0185 28 18.0185C28 18.0185 28.0123 14.7563 27.5799 13.187C27.3576 12.3344 26.6782 11.6549 25.8259 11.4325C24.257 11 17.9938 11 17.9938 11ZM16.0049 15.0036L21.2057 18.0062L16.0049 20.9964V15.0036Z" fill="#006A2B"/>
</svg>
