<svg width="56" height="24" viewBox="0 0 56 24" fill="none" xmlns="http://www.w3.org/2000/svg">
<rect x="0.5" y="0.5" width="55" height="23" rx="3.5" stroke="#E2E2E2"/>
<path d="M26.955 12.3072V16.7009H25.53V5.83472H29.235C30.1375 5.83472 30.9925 6.16543 31.6575 6.7796C32.3225 7.34653 32.655 8.19692 32.655 9.09456C32.655 9.9922 32.3225 10.7953 31.6575 11.4095C30.9925 12.0237 30.185 12.3544 29.235 12.3544L26.955 12.3072ZM26.955 7.15755V10.9371H29.33C29.8525 10.9371 30.375 10.7481 30.7075 10.3702C31.4675 9.66149 31.4675 8.48039 30.755 7.77172L30.7075 7.72448C30.3275 7.34653 29.8525 7.11031 29.33 7.15755H26.955Z" fill="#5F6368"/>
<path d="M35.9325 9.04736C36.9775 9.04736 37.785 9.33083 38.4025 9.89776C39.02 10.4647 39.305 11.2206 39.305 12.1655V16.7009H37.975V15.6615H37.9275C37.3575 16.5119 36.55 16.9371 35.6 16.9371C34.7925 16.9371 34.08 16.7009 33.51 16.2285C32.9875 15.756 32.655 15.0946 32.655 14.3859C32.655 13.63 32.94 13.0159 33.51 12.5434C34.08 12.071 34.8875 11.882 35.8375 11.882C36.6925 11.882 37.3575 12.0237 37.88 12.3544V12.0237C37.88 11.5513 37.69 11.0789 37.31 10.7954C36.93 10.4647 36.455 10.2757 35.9325 10.2757C35.125 10.2757 34.5075 10.6064 34.08 11.2678L32.845 10.5119C33.605 9.5198 34.6025 9.04736 35.9325 9.04736ZM34.1275 14.4332C34.1275 14.8111 34.3175 15.1419 34.6025 15.3308C34.935 15.567 35.315 15.7088 35.695 15.7088C36.265 15.7088 36.835 15.4726 37.2625 15.0474C37.7375 14.6222 37.975 14.1025 37.975 13.5356C37.5475 13.2048 36.93 13.0159 36.1225 13.0159C35.5525 13.0159 35.0775 13.1576 34.6975 13.4411C34.3175 13.6773 34.1275 14.008 34.1275 14.4332Z" fill="#5F6368"/>
<path d="M47 9.28345L42.2975 20.0079H40.8725L42.63 16.2756L39.5425 9.33069H41.0625L43.295 14.6693H43.3425L45.5275 9.33069H47V9.28345Z" fill="#5F6368"/>
<path d="M21.3025 11.3623C21.3025 10.9371 21.255 10.5119 21.2075 10.0867H15.27V12.4961H18.6425C18.5 13.252 18.0725 13.9607 17.4075 14.3859V15.9449H19.45C20.6375 14.8583 21.3025 13.252 21.3025 11.3623Z" fill="#4285F4"/>
<path d="M15.27 17.4567C16.98 17.4567 18.405 16.8898 19.45 15.9449L17.4075 14.3859C16.8375 14.7638 16.125 15 15.27 15C13.655 15 12.23 13.9134 11.755 12.4016H9.66504V14.0079C10.7575 16.1339 12.895 17.4567 15.27 17.4567Z" fill="#34A853"/>
<path d="M11.7549 12.4015C11.4699 11.6456 11.4699 10.7952 11.7549 9.99204V8.38574H9.66491C8.76241 10.1338 8.76241 12.2125 9.66491 14.0078L11.7549 12.4015Z" fill="#FBBC04"/>
<path d="M15.2699 7.44092C16.1724 7.44092 17.0274 7.77163 17.6924 8.38581L19.4974 6.59053C18.3574 5.55116 16.8374 4.93699 15.3174 4.98423C12.9424 4.98423 10.7574 6.30707 9.7124 8.43305L11.8024 10.0393C12.2299 8.52754 13.6549 7.44092 15.2699 7.44092Z" fill="#EA4335"/>
</svg>
