<svg width="252" height="68" viewBox="0 0 252 68" fill="none" xmlns="http://www.w3.org/2000/svg">
<path d="M21.511 45.5792V27.1177H17.2432V22.3867H27.4001V45.5792H21.511Z" fill="white"/>
<path d="M49.5325 28.3721C49.5325 30.3902 48.4407 32.1767 46.6211 33.1694C49.1683 34.2279 50.7565 36.4447 50.7565 39.0252C50.7565 43.1938 47.051 45.8407 41.2613 45.8407C35.4715 45.8407 31.7661 43.2268 31.7661 39.1247C31.7661 36.4778 33.4865 34.2279 36.1662 33.1694C34.2143 32.0774 32.9571 30.225 32.9571 28.2069C32.9571 24.5011 36.1995 22.1523 41.2282 22.1523C46.3231 22.1523 49.5325 24.5675 49.5325 28.3721ZM37.3242 38.5292C37.3242 40.4813 38.7139 41.5731 41.2613 41.5731C43.8088 41.5731 45.2314 40.5146 45.2314 38.5292C45.2314 36.6105 43.8088 35.5184 41.2613 35.5184C38.7137 35.5184 37.3242 36.6103 37.3242 38.5292ZM37.9199 28.7029C37.9199 30.3575 39.1109 31.2834 41.2613 31.2834C43.4118 31.2834 44.6028 30.3573 44.6028 28.7029C44.6028 26.983 43.4118 26.0233 41.2613 26.0233C39.1107 26.0233 37.9199 26.983 37.9199 28.7029Z" fill="white"/>
<path d="M60.5562 25.0055C61.5353 27.8952 62.0319 30.9176 62.0319 34.0001C62.0319 49.4568 49.4568 62.032 33.9999 62.032C18.543 62.032 5.96768 49.4568 5.96768 34.0001C5.96768 18.543 18.5428 5.9683 33.9997 5.9683C37.0827 5.9683 40.1051 6.46456 42.9943 7.44404V1.2059C40.0759 0.405896 37.0618 0 33.9999 0C15.2524 0 0 15.2524 0 34.0001C0 52.7478 15.2524 68.0003 33.9999 68.0003C52.7474 68.0003 67.9996 52.7478 67.9996 34.0001C67.9996 30.9384 67.5939 27.9241 66.7939 25.0055H60.5562Z" fill="#FFEA4D"/>
<path d="M58.8596 9.12091V2.60156H54.1717V9.12091H47.6914V13.8084H54.1717V20.3276H58.8596V13.8084H65.3786V9.12091H58.8596Z" fill="white"/>
<g filter="url(#filter0_d_1158_2529)">
<path d="M91.984 24.016H87.792L87.12 26H84.256L88.32 14.768H91.488L95.552 26H92.656L91.984 24.016ZM91.28 21.904L89.888 17.792L88.512 21.904H91.28ZM105.349 18.384C105.349 19.0347 105.2 19.632 104.901 20.176C104.602 20.7093 104.144 21.1413 103.525 21.472C102.906 21.8027 102.138 21.968 101.221 21.968H99.5249V26H96.7889V14.768H101.221C102.117 14.768 102.874 14.9227 103.493 15.232C104.112 15.5413 104.576 15.968 104.885 16.512C105.194 17.056 105.349 17.68 105.349 18.384ZM101.013 19.792C101.536 19.792 101.925 19.6693 102.181 19.424C102.437 19.1787 102.565 18.832 102.565 18.384C102.565 17.936 102.437 17.5893 102.181 17.344C101.925 17.0987 101.536 16.976 101.013 16.976H99.5249V19.792H101.013ZM109.509 16.96V19.232H113.173V21.344H109.509V23.808H113.653V26H106.773V14.768H113.653V16.96H109.509ZM125.478 26H122.742L118.166 19.072V26H115.43V14.768H118.166L122.742 21.728V14.768H125.478V26ZM134.453 24.016H130.261L129.589 26H126.725L130.789 14.768H133.957L138.021 26H135.125L134.453 24.016ZM133.749 21.904L132.357 17.792L130.981 21.904H133.749ZM143.322 26.112C142.5 26.112 141.764 25.9787 141.114 25.712C140.463 25.4453 139.94 25.0507 139.546 24.528C139.162 24.0053 138.959 23.376 138.938 22.64H141.85C141.892 23.056 142.036 23.376 142.282 23.6C142.527 23.8133 142.847 23.92 143.242 23.92C143.647 23.92 143.967 23.8293 144.202 23.648C144.436 23.456 144.554 23.1947 144.554 22.864C144.554 22.5867 144.458 22.3573 144.266 22.176C144.084 21.9947 143.855 21.8453 143.578 21.728C143.311 21.6107 142.927 21.4773 142.426 21.328C141.7 21.104 141.108 20.88 140.65 20.656C140.191 20.432 139.796 20.1013 139.466 19.664C139.135 19.2267 138.97 18.656 138.97 17.952C138.97 16.9067 139.348 16.0907 140.106 15.504C140.863 14.9067 141.85 14.608 143.066 14.608C144.303 14.608 145.3 14.9067 146.058 15.504C146.815 16.0907 147.22 16.912 147.274 17.968H144.314C144.292 17.6053 144.159 17.3227 143.914 17.12C143.668 16.9067 143.354 16.8 142.97 16.8C142.639 16.8 142.372 16.8907 142.17 17.072C141.967 17.2427 141.866 17.4933 141.866 17.824C141.866 18.1867 142.036 18.4693 142.378 18.672C142.719 18.8747 143.252 19.0933 143.978 19.328C144.703 19.5733 145.29 19.808 145.738 20.032C146.196 20.256 146.591 20.5813 146.922 21.008C147.252 21.4347 147.418 21.984 147.418 22.656C147.418 23.296 147.252 23.8773 146.922 24.4C146.602 24.9227 146.132 25.3387 145.514 25.648C144.895 25.9573 144.164 26.112 143.322 26.112ZM165.212 14.768V26H162.476V19.264L159.964 26H157.756L155.228 19.248V26H152.492V14.768H155.724L158.876 22.544L161.996 14.768H165.212ZM174.172 24.016H169.98L169.308 26H166.444L170.508 14.768H173.676L177.74 26H174.844L174.172 24.016ZM173.468 21.904L172.076 17.792L170.7 21.904H173.468ZM181.712 14.768V26H178.976V14.768H181.712ZM189.007 26.112C187.951 26.112 186.98 25.8667 186.095 25.376C185.22 24.8853 184.522 24.2027 183.999 23.328C183.487 22.4427 183.231 21.4507 183.231 20.352C183.231 19.2533 183.487 18.2667 183.999 17.392C184.522 16.5173 185.22 15.8347 186.095 15.344C186.98 14.8533 187.951 14.608 189.007 14.608C190.063 14.608 191.028 14.8533 191.903 15.344C192.788 15.8347 193.482 16.5173 193.983 17.392C194.495 18.2667 194.751 19.2533 194.751 20.352C194.751 21.4507 194.495 22.4427 193.983 23.328C193.471 24.2027 192.778 24.8853 191.903 25.376C191.028 25.8667 190.063 26.112 189.007 26.112ZM189.007 23.616C189.903 23.616 190.618 23.3173 191.151 22.72C191.695 22.1227 191.967 21.3333 191.967 20.352C191.967 19.36 191.695 18.5707 191.151 17.984C190.618 17.3867 189.903 17.088 189.007 17.088C188.1 17.088 187.375 17.3813 186.831 17.968C186.298 18.5547 186.031 19.3493 186.031 20.352C186.031 21.344 186.298 22.1387 186.831 22.736C187.375 23.3227 188.1 23.616 189.007 23.616ZM202.001 26L199.665 21.76H199.009V26H196.273V14.768H200.865C201.751 14.768 202.503 14.9227 203.121 15.232C203.751 15.5413 204.22 15.968 204.529 16.512C204.839 17.0453 204.993 17.6427 204.993 18.304C204.993 19.0507 204.78 19.7173 204.353 20.304C203.937 20.8907 203.319 21.3067 202.497 21.552L205.089 26H202.001ZM199.009 19.824H200.705C201.207 19.824 201.58 19.7013 201.825 19.456C202.081 19.2107 202.209 18.864 202.209 18.416C202.209 17.9893 202.081 17.6533 201.825 17.408C201.58 17.1627 201.207 17.04 200.705 17.04H199.009V19.824ZM209.447 16.96V19.232H213.111V21.344H209.447V23.808H213.591V26H206.711V14.768H213.591V16.96H209.447ZM219.431 26.112C218.61 26.112 217.874 25.9787 217.223 25.712C216.572 25.4453 216.05 25.0507 215.655 24.528C215.271 24.0053 215.068 23.376 215.047 22.64H217.959C218.002 23.056 218.146 23.376 218.391 23.6C218.636 23.8133 218.956 23.92 219.351 23.92C219.756 23.92 220.076 23.8293 220.311 23.648C220.546 23.456 220.663 23.1947 220.663 22.864C220.663 22.5867 220.567 22.3573 220.375 22.176C220.194 21.9947 219.964 21.8453 219.687 21.728C219.42 21.6107 219.036 21.4773 218.535 21.328C217.81 21.104 217.218 20.88 216.759 20.656C216.3 20.432 215.906 20.1013 215.575 19.664C215.244 19.2267 215.079 18.656 215.079 17.952C215.079 16.9067 215.458 16.0907 216.215 15.504C216.972 14.9067 217.959 14.608 219.175 14.608C220.412 14.608 221.41 14.9067 222.167 15.504C222.924 16.0907 223.33 16.912 223.383 17.968H220.423C220.402 17.6053 220.268 17.3227 220.023 17.12C219.778 16.9067 219.463 16.8 219.079 16.8C218.748 16.8 218.482 16.8907 218.279 17.072C218.076 17.2427 217.975 17.4933 217.975 17.824C217.975 18.1867 218.146 18.4693 218.487 18.672C218.828 18.8747 219.362 19.0933 220.087 19.328C220.812 19.5733 221.399 19.808 221.847 20.032C222.306 20.256 222.7 20.5813 223.031 21.008C223.362 21.4347 223.527 21.984 223.527 22.656C223.527 23.296 223.362 23.8773 223.031 24.4C222.711 24.9227 222.242 25.3387 221.623 25.648C221.004 25.9573 220.274 26.112 219.431 26.112ZM232.809 14.768C233.993 14.768 235.028 15.0027 235.913 15.472C236.799 15.9413 237.481 16.6027 237.961 17.456C238.452 18.2987 238.697 19.2747 238.697 20.384C238.697 21.4827 238.452 22.4587 237.961 23.312C237.481 24.1653 236.793 24.8267 235.897 25.296C235.012 25.7653 233.983 26 232.809 26H228.601V14.768H232.809ZM232.633 23.632C233.668 23.632 234.473 23.3493 235.049 22.784C235.625 22.2187 235.913 21.4187 235.913 20.384C235.913 19.3493 235.625 18.544 235.049 17.968C234.473 17.392 233.668 17.104 232.633 17.104H231.337V23.632H232.633ZM242.962 16.96V19.232H246.626V21.344H242.962V23.808H247.106V26H240.226V14.768H247.106V16.96H242.962Z" fill="white"/>
<path d="M84.432 43.864V41.32H88.864V53H86.016V43.864H84.432ZM92.6556 46.728C91.653 46.1947 91.1516 45.3573 91.1516 44.216C91.1516 43.64 91.301 43.1173 91.5996 42.648C91.8983 42.168 92.3516 41.7893 92.9596 41.512C93.5676 41.224 94.3143 41.08 95.1996 41.08C96.085 41.08 96.8263 41.224 97.4236 41.512C98.0316 41.7893 98.485 42.168 98.7836 42.648C99.0823 43.1173 99.2316 43.64 99.2316 44.216C99.2316 44.792 99.093 45.2933 98.8156 45.72C98.549 46.1467 98.1863 46.4827 97.7276 46.728C98.3036 47.0053 98.7463 47.3893 99.0556 47.88C99.365 48.36 99.5196 48.9253 99.5196 49.576C99.5196 50.3333 99.3276 50.9893 98.9436 51.544C98.5596 52.088 98.037 52.504 97.3756 52.792C96.725 53.08 95.9996 53.224 95.1996 53.224C94.3996 53.224 93.669 53.08 93.0076 52.792C92.357 52.504 91.8396 52.088 91.4556 51.544C91.0716 50.9893 90.8796 50.3333 90.8796 49.576C90.8796 48.9147 91.0343 48.344 91.3436 47.864C91.653 47.3733 92.0903 46.9947 92.6556 46.728ZM96.5756 44.632C96.5756 44.1947 96.4476 43.8587 96.1916 43.624C95.9463 43.3787 95.6156 43.256 95.1996 43.256C94.7836 43.256 94.4476 43.3787 94.1916 43.624C93.9463 43.8693 93.8236 44.2107 93.8236 44.648C93.8236 45.064 93.9516 45.3947 94.2076 45.64C94.4636 45.8747 94.7943 45.992 95.1996 45.992C95.605 45.992 95.9356 45.8693 96.1916 45.624C96.4476 45.3787 96.5756 45.048 96.5756 44.632ZM95.1996 47.912C94.6983 47.912 94.293 48.0507 93.9836 48.328C93.6743 48.5947 93.5196 48.968 93.5196 49.448C93.5196 49.896 93.669 50.264 93.9676 50.552C94.277 50.84 94.6876 50.984 95.1996 50.984C95.7116 50.984 96.1116 50.84 96.3996 50.552C96.6983 50.264 96.8476 49.896 96.8476 49.448C96.8476 48.9787 96.693 48.6053 96.3836 48.328C96.085 48.0507 95.6903 47.912 95.1996 47.912ZM111.765 51.016H107.573L106.901 53H104.037L108.101 41.768H111.269L115.333 53H112.437L111.765 51.016ZM111.061 48.904L109.669 44.792L108.293 48.904H111.061ZM126.618 53H123.882L119.306 46.072V53H116.57V41.768H119.306L123.882 48.728V41.768H126.618V53ZM133.913 53.112C132.857 53.112 131.887 52.8667 131.001 52.376C130.127 51.8853 129.428 51.2027 128.905 50.328C128.393 49.4427 128.137 48.4507 128.137 47.352C128.137 46.2533 128.393 45.2667 128.905 44.392C129.428 43.5173 130.127 42.8347 131.001 42.344C131.887 41.8533 132.857 41.608 133.913 41.608C134.969 41.608 135.935 41.8533 136.809 42.344C137.695 42.8347 138.388 43.5173 138.889 44.392C139.401 45.2667 139.657 46.2533 139.657 47.352C139.657 48.4507 139.401 49.4427 138.889 50.328C138.377 51.2027 137.684 51.8853 136.809 52.376C135.935 52.8667 134.969 53.112 133.913 53.112ZM133.913 50.616C134.809 50.616 135.524 50.3173 136.057 49.72C136.601 49.1227 136.873 48.3333 136.873 47.352C136.873 46.36 136.601 45.5707 136.057 44.984C135.524 44.3867 134.809 44.088 133.913 44.088C133.007 44.088 132.281 44.3813 131.737 44.968C131.204 45.5547 130.937 46.3493 130.937 47.352C130.937 48.344 131.204 49.1387 131.737 49.736C132.281 50.3227 133.007 50.616 133.913 50.616ZM145.244 53.112C144.422 53.112 143.686 52.9787 143.036 52.712C142.385 52.4453 141.862 52.0507 141.468 51.528C141.084 51.0053 140.881 50.376 140.86 49.64H143.772C143.814 50.056 143.958 50.376 144.204 50.6C144.449 50.8133 144.769 50.92 145.164 50.92C145.569 50.92 145.889 50.8293 146.124 50.648C146.358 50.456 146.476 50.1947 146.476 49.864C146.476 49.5867 146.38 49.3573 146.188 49.176C146.006 48.9947 145.777 48.8453 145.5 48.728C145.233 48.6107 144.849 48.4773 144.348 48.328C143.622 48.104 143.03 47.88 142.572 47.656C142.113 47.432 141.718 47.1013 141.388 46.664C141.057 46.2267 140.892 45.656 140.892 44.952C140.892 43.9067 141.27 43.0907 142.028 42.504C142.785 41.9067 143.772 41.608 144.988 41.608C146.225 41.608 147.222 41.9067 147.98 42.504C148.737 43.0907 149.142 43.912 149.196 44.968H146.236C146.214 44.6053 146.081 44.3227 145.836 44.12C145.59 43.9067 145.276 43.8 144.891 43.8C144.561 43.8 144.294 43.8907 144.092 44.072C143.889 44.2427 143.788 44.4933 143.788 44.824C143.788 45.1867 143.958 45.4693 144.299 45.672C144.641 45.8747 145.174 46.0933 145.9 46.328C146.625 46.5733 147.212 46.808 147.66 47.032C148.118 47.256 148.513 47.5813 148.844 48.008C149.174 48.4347 149.34 48.984 149.34 49.656C149.34 50.296 149.174 50.8773 148.844 51.4C148.524 51.9227 148.054 52.3387 147.436 52.648C146.817 52.9573 146.086 53.112 145.244 53.112ZM152.303 53.128C151.823 53.128 151.429 52.9893 151.119 52.712C150.821 52.424 150.671 52.072 150.671 51.656C150.671 51.2293 150.821 50.872 151.119 50.584C151.429 50.296 151.823 50.152 152.303 50.152C152.773 50.152 153.157 50.296 153.455 50.584C153.765 50.872 153.919 51.2293 153.919 51.656C153.919 52.072 153.765 52.424 153.455 52.712C153.157 52.9893 152.773 53.128 152.303 53.128Z" fill="#FFEA4D"/>
</g>
<defs>
<filter id="filter0_d_1158_2529" x="80.256" y="12.6074" width="170.85" height="46.6172" filterUnits="userSpaceOnUse" color-interpolation-filters="sRGB">
<feFlood flood-opacity="0" result="BackgroundImageFix"/>
<feColorMatrix in="SourceAlpha" type="matrix" values="0 0 0 0 0 0 0 0 0 0 0 0 0 0 0 0 0 0 127 0" result="hardAlpha"/>
<feOffset dy="2"/>
<feGaussianBlur stdDeviation="2"/>
<feComposite in2="hardAlpha" operator="out"/>
<feColorMatrix type="matrix" values="0 0 0 0 0 0 0 0 0 0.215686 0 0 0 0 0 0 0 0 1 0"/>
<feBlend mode="normal" in2="BackgroundImageFix" result="effect1_dropShadow_1158_2529"/>
<feBlend mode="normal" in="SourceGraphic" in2="effect1_dropShadow_1158_2529" result="shape"/>
</filter>
</defs>
</svg>
