<svg width="55" height="55" viewBox="0 0 55 55" fill="none" xmlns="http://www.w3.org/2000/svg">
<g clip-path="url(#clip0_80_26)">
<rect width="55" height="55" rx="10" fill="#FFCC80"/>
<g filter="url(#filter0_d_80_26)">
<ellipse cx="5.39741" cy="103.362" rx="86.5" ry="58.5" transform="rotate(64.111 5.39741 103.362)" fill="white" fill-opacity="0.6" shape-rendering="crispEdges"/>
<ellipse cx="5.39741" cy="103.362" rx="86.5" ry="58.5" transform="rotate(64.111 5.39741 103.362)" fill="#FFD18D" fill-opacity="0.59" shape-rendering="crispEdges"/>
</g>
<ellipse cx="37.0915" cy="98.0161" rx="96.007" ry="53.8305" transform="rotate(-62.4885 37.0915 98.0161)" fill="#FFD699" fill-opacity="0.5"/>
<ellipse cx="37.0915" cy="98.0161" rx="96.007" ry="53.8305" transform="rotate(-62.4885 37.0915 98.0161)" fill="#FFDFB0" fill-opacity="0.5"/>
<path d="M15.95 12.4938C15.95 11.3683 16.3483 10.2889 17.0574 9.49299C17.7665 8.69712 18.7282 8.25 19.731 8.25H34.8552C35.858 8.25 36.8198 8.69712 37.5289 9.49299C38.2379 10.2889 38.6363 11.3683 38.6363 12.4938V42.2006C38.6363 43.3261 38.2379 44.4056 37.5289 45.2015C36.8198 45.9973 35.858 46.4444 34.8552 46.4444H19.731C18.7282 46.4444 17.7665 45.9973 17.0574 45.2015C16.3483 44.4056 15.95 43.3261 15.95 42.2006V12.4938Z" stroke="#3C4852" stroke-width="3" stroke-linecap="round" stroke-linejoin="round"/>
<path d="M25.6666 11.9166H29.4477" stroke="#3C4852" stroke-width="3" stroke-linecap="round" stroke-linejoin="round"/>
<path d="M27.5 41.25V41.2702" stroke="#3C4852" stroke-width="3" stroke-linecap="round" stroke-linejoin="round"/>
</g>
<defs>
<filter id="filter0_d_80_26" x="-59.3861" y="21.4358" width="149.567" height="183.852" filterUnits="userSpaceOnUse" color-interpolation-filters="sRGB">
<feFlood flood-opacity="0" result="BackgroundImageFix"/>
<feColorMatrix in="SourceAlpha" type="matrix" values="0 0 0 0 0 0 0 0 0 0 0 0 0 0 0 0 0 0 127 0" result="hardAlpha"/>
<feOffset dx="10" dy="10"/>
<feGaussianBlur stdDeviation="5"/>
<feComposite in2="hardAlpha" operator="out"/>
<feColorMatrix type="matrix" values="0 0 0 0 1 0 0 0 0 1 0 0 0 0 1 0 0 0 0.92 0"/>
<feBlend mode="normal" in2="BackgroundImageFix" result="effect1_dropShadow_80_26"/>
<feBlend mode="normal" in="SourceGraphic" in2="effect1_dropShadow_80_26" result="shape"/>
</filter>
<clipPath id="clip0_80_26">
<rect width="55" height="55" rx="10" fill="white"/>
</clipPath>
</defs>
</svg>
