<svg width="62" height="55" viewBox="0 0 62 55" fill="none" xmlns="http://www.w3.org/2000/svg">
<path d="M19.1776 19.2833C18.103 27.9363 12.6147 29.4756 12.6147 35.4917C12.6147 39.2053 15.7332 42.2186 19.4257 42.2186C23.1182 42.2186 26.2346 39.2032 26.2346 35.4917C26.2346 29.4756 20.7463 27.9363 19.6717 19.2833C19.6381 19.0246 19.2112 19.0246 19.1776 19.2833ZM6.56285 0.358046C5.48832 9.01109 0 10.5482 0 16.5665C0 20.2779 3.11636 23.2933 6.80888 23.2933C10.5014 23.2933 13.6178 20.2779 13.6178 16.5665C13.6178 10.5503 8.12944 9.01109 7.05491 0.358046C7.02337 0.0994013 6.5944 0.0994013 6.56285 0.358046ZM31.7965 0.358046C30.722 9.01109 25.2337 10.5503 25.2337 16.5665C25.2337 20.2779 28.35 23.2933 32.0425 23.2933C35.7351 23.2933 38.8514 20.2779 38.8514 16.5665C38.8514 10.5503 33.3631 9.01109 32.2886 0.358046C32.2549 0.0994013 31.8281 0.0994013 31.7965 0.358046Z" fill="black"/>
<path d="M47.2948 54.8363C47.0159 54.8363 46.7485 54.7255 46.5513 54.5283C46.3541 54.3312 46.2433 54.0637 46.2433 53.7849V51.066L44.8849 52.4265C44.6875 52.6236 44.4199 52.7343 44.1409 52.7341C43.8618 52.7339 43.5943 52.6228 43.3972 52.4254C43.2001 52.228 43.0894 51.9603 43.0896 51.6813C43.0898 51.4023 43.2008 51.1348 43.3983 50.9377L46.2433 48.0926V39.8349L39.0938 43.9627L38.0508 47.8529C37.9783 48.1222 37.8018 48.3518 37.56 48.491C37.3183 48.6302 37.0312 48.6677 36.7618 48.5952C36.4924 48.5227 36.2629 48.3461 36.1237 48.1044C35.9845 47.8626 35.947 47.5755 36.0195 47.3061L36.5179 45.4515L34.1627 46.8099C33.9214 46.9471 33.6355 46.9833 33.3676 46.9106C33.0997 46.8378 32.8714 46.662 32.7325 46.4216C32.5937 46.1812 32.5556 45.8956 32.6266 45.6271C32.6976 45.3587 32.8718 45.1293 33.1113 44.9889L35.4665 43.6304L33.6076 43.1321C33.4742 43.0962 33.3492 43.0344 33.2397 42.9501C33.1302 42.8659 33.0384 42.761 32.9695 42.6413C32.9006 42.5216 32.8559 42.3895 32.838 42.2525C32.8201 42.1156 32.8294 41.9764 32.8653 41.8431C32.9012 41.7097 32.963 41.5847 33.0472 41.4752C33.1314 41.3657 33.2364 41.2739 33.3561 41.2049C33.4758 41.136 33.6079 41.0913 33.7448 41.0735C33.8818 41.0556 34.0209 41.0649 34.1543 41.1008L38.0403 42.1417L45.1919 38.0138L38.0424 33.886L34.1522 34.9269C33.8846 34.9936 33.6015 34.9525 33.3639 34.8124C33.1263 34.6723 32.9533 34.4445 32.8822 34.178C32.811 33.9116 32.8474 33.6278 32.9835 33.3879C33.1196 33.148 33.3445 32.9712 33.6097 32.8956L35.4665 32.3973L33.1113 31.0388C32.9908 30.9703 32.885 30.8786 32.8 30.769C32.7151 30.6594 32.6527 30.5341 32.6163 30.4003C32.58 30.2665 32.5705 30.1268 32.5884 29.9893C32.6062 29.8518 32.6511 29.7192 32.7205 29.5991C32.7898 29.479 32.8822 29.3739 32.9923 29.2896C33.1025 29.2054 33.2282 29.1438 33.3623 29.1084C33.4963 29.0729 33.636 29.0643 33.7734 29.0831C33.9108 29.1019 34.0431 29.1477 34.1627 29.2178L36.5179 30.5762L36.0195 28.7194C35.9813 28.5852 35.9701 28.4448 35.9867 28.3062C36.0033 28.1676 36.0473 28.0338 36.1161 27.9124C36.185 27.791 36.2773 27.6845 36.3878 27.5992C36.4982 27.5139 36.6245 27.4514 36.7593 27.4154C36.8942 27.3794 37.0348 27.3706 37.1731 27.3895C37.3113 27.4084 37.4445 27.4546 37.5647 27.5255C37.6849 27.5964 37.7898 27.6905 37.8732 27.8023C37.9567 27.9142 38.0171 28.0415 38.0508 28.1769L39.0917 32.065L46.2433 36.1928V27.9351L43.3983 25.09C43.3005 24.9924 43.2229 24.8765 43.17 24.7489C43.117 24.6213 43.0897 24.4845 43.0896 24.3464C43.0895 24.2082 43.1166 24.0714 43.1694 23.9437C43.2222 23.8161 43.2996 23.7 43.3972 23.6023C43.4948 23.5045 43.6107 23.4269 43.7383 23.374C43.8659 23.321 44.0027 23.2937 44.1409 23.2936C44.279 23.2935 44.4158 23.3206 44.5435 23.3734C44.6712 23.4262 44.7872 23.5036 44.8849 23.6012L46.2433 24.9617V22.2428C46.2433 21.964 46.3541 21.6965 46.5513 21.4994C46.7485 21.3022 47.0159 21.1914 47.2948 21.1914C47.5736 21.1914 47.841 21.3022 48.0382 21.4994C48.2354 21.6965 48.3462 21.964 48.3462 22.2428V24.9617L49.7067 23.6012C49.9041 23.4041 50.1717 23.2934 50.4508 23.2936C50.7298 23.2938 50.9973 23.4048 51.1944 23.6023C51.3916 23.7997 51.5022 24.0674 51.502 24.3464C51.5018 24.6254 51.3908 24.8929 51.1934 25.09L48.3462 27.9351V36.1928L55.4957 32.065L56.5387 28.1748C56.6112 27.9055 56.7877 27.6759 57.0295 27.5367C57.2712 27.3975 57.5583 27.36 57.8277 27.4325C58.0971 27.505 58.3266 27.6816 58.4658 27.9233C58.605 28.165 58.6425 28.4522 58.57 28.7216L58.0737 30.5762L60.4289 29.2178C60.6702 29.0806 60.9561 29.0444 61.224 29.1171C61.492 29.1899 61.7202 29.3657 61.8591 29.6061C61.9979 29.8465 62.036 30.1321 61.965 30.4006C61.894 30.669 61.7198 30.8984 61.4803 31.0388L59.1251 32.3973L60.9819 32.8956C61.2513 32.9681 61.4808 33.1447 61.62 33.3864C61.7592 33.6281 61.7967 33.9153 61.7242 34.1846C61.6517 34.454 61.4752 34.6835 61.2334 34.8227C60.9917 34.962 60.7045 34.9994 60.4352 34.9269L56.5492 33.886L49.3976 38.0138L56.5471 42.1417L60.4352 41.1008C60.7045 41.0285 60.9916 41.0663 61.2331 41.2057C61.4747 41.3451 61.6509 41.5747 61.7231 41.8441C61.7954 42.1135 61.7576 42.4005 61.6182 42.642C61.4788 42.8836 61.2492 43.0599 60.9798 43.1321L59.123 43.6304L61.4782 44.9889C61.7177 45.1293 61.8919 45.3587 61.9629 45.6271C62.0339 45.8956 61.9958 46.1812 61.857 46.4216C61.7181 46.662 61.4899 46.8378 61.2219 46.9106C60.954 46.9833 60.6681 46.9471 60.4268 46.8099L58.0716 45.4515L58.5679 47.3082C58.6062 47.4425 58.6173 47.5829 58.6007 47.7215C58.5841 47.8601 58.5401 47.9939 58.4713 48.1153C58.4024 48.2367 58.3101 48.3431 58.1996 48.4285C58.0892 48.5138 57.9629 48.5763 57.8281 48.6123C57.6932 48.6483 57.5526 48.6571 57.4143 48.6382C57.2761 48.6193 57.143 48.5731 57.0227 48.5022C56.9025 48.4313 56.7976 48.3372 56.7142 48.2254C56.6307 48.1135 56.5703 47.9862 56.5366 47.8508L55.4957 43.9627L48.3462 39.8349V48.0926L51.1912 50.9377C51.3887 51.1348 51.4997 51.4023 51.4999 51.6813C51.5001 51.9603 51.3894 52.228 51.1923 52.4254C50.9952 52.6228 50.7277 52.7339 50.4487 52.7341C50.1696 52.7343 49.902 52.6236 49.7046 52.4265L48.3441 51.066V53.7849C48.3441 54.0637 48.2333 54.3312 48.0361 54.5283C47.8389 54.7255 47.5715 54.8363 47.2926 54.8363H47.2948Z" fill="black"/>
</svg>
