<svg width="52" height="51" viewBox="0 0 52 51" fill="none" xmlns="http://www.w3.org/2000/svg">
<path d="M4.27094 0.149414C3.31045 0.149414 2.3893 0.530966 1.71013 1.21013C1.03097 1.8893 0.649414 2.81045 0.649414 3.77094V32.7431L2.46018 36.3646L4.27094 32.7431V3.77094H11.514V21.8786L13.3247 25.5001L15.1355 21.8786V0.149414H4.27094ZM47.7292 0.149414H22.3786V14.6355L24.1893 18.257L26.0001 14.6355V3.77094H29.6216V27.3108L31.4324 30.9324L33.2431 27.3108V3.77094H40.4862V21.8786L42.2969 25.5001L44.1077 21.8786V3.77094H47.7292V39.9862L49.54 43.6077L51.3507 39.9862V3.77094C51.3507 2.81045 50.9692 1.8893 50.29 1.21013C49.6109 0.530966 48.6897 0.149414 47.7292 0.149414ZM22.3786 47.2292L20.5678 50.8507L18.757 47.2292V25.5001H22.3786V47.2292Z" fill="black"/>
<path d="M40.4858 43.6072L38.675 47.2287L36.8643 43.6072V32.7426H40.4858V43.6072ZM11.5136 39.9857L9.70285 43.6072L7.89209 39.9857V29.1211H11.5136V39.9857Z" fill="black"/>
</svg>
