<svg width="51" height="51" viewBox="0 0 51 51" fill="none" xmlns="http://www.w3.org/2000/svg">
<path d="M32.3716 0.976658L32.3717 0.976755L35.3915 7.26109C35.4972 7.48122 35.667 7.66431 35.8784 7.78643C36.0899 7.90854 36.3333 7.964 36.5769 7.94554L43.5291 7.41852C43.5291 7.41852 43.5291 7.41852 43.5291 7.41851C43.6594 7.40867 43.7679 7.51716 43.758 7.64746L43.231 14.5997C43.2126 14.8432 43.268 15.0866 43.3901 15.2981L43.8231 15.0481L43.3901 15.2981C43.5122 15.5096 43.6953 15.6793 43.9154 15.7851C43.9154 15.7851 43.9155 15.7851 43.9155 15.7851L50.1998 18.8049L50.4164 18.3542L50.1998 18.8049C50.3176 18.8615 50.3573 19.0097 50.2836 19.1175L46.3512 24.8748C46.2134 25.0765 46.1397 25.315 46.1397 25.5592C46.1397 25.8034 46.2134 26.042 46.3512 26.2436L50.2836 32.0009C50.3573 32.1088 50.3176 32.257 50.1999 32.3135L50.1998 32.3136L43.9155 35.3334C43.6953 35.4391 43.5122 35.6088 43.3901 35.8203L43.8231 36.0703L43.3901 35.8203C43.268 36.0318 43.2126 36.2752 43.231 36.5187L43.758 43.471C43.7679 43.6013 43.6594 43.7098 43.5291 43.6999L36.5769 43.1729C36.3334 43.1545 36.0899 43.2099 35.8784 43.332L36.1285 43.765L35.8784 43.332C35.667 43.4541 35.4972 43.6372 35.3915 43.8574L32.3717 50.1417C32.3151 50.2595 32.1669 50.2992 32.059 50.2255L26.3017 46.2931C26.1001 46.1553 25.8615 46.0816 25.6173 46.0816C25.3731 46.0816 25.1346 46.1553 24.9329 46.2931L19.1756 50.2255C19.0677 50.2992 18.9195 50.2595 18.863 50.1418L18.863 50.1417L15.8432 43.8574C15.7374 43.6372 15.5677 43.4541 15.3562 43.332L15.1062 43.765L15.3562 43.332C15.1447 43.2099 14.9013 43.1545 14.6578 43.1729L7.70557 43.6999C7.57527 43.7098 7.46677 43.6013 7.47662 43.471C7.47662 43.471 7.47662 43.471 7.47662 43.471L8.00364 36.5188C8.0221 36.2752 7.96665 36.0318 7.84453 35.8203C7.72243 35.6089 7.53935 35.4391 7.31923 35.3334C7.31922 35.3334 7.31921 35.3334 7.3192 35.3334L1.03476 32.3136L0.818204 32.7643L1.03476 32.3136C0.916912 32.257 0.877264 32.1088 0.950925 32.0009L0.538573 31.7193L0.950928 32.0009L4.88338 26.2436C5.02114 26.042 5.09484 25.8034 5.09484 25.5592C5.09484 25.315 5.02115 25.0765 4.88341 24.8749C4.8834 24.8749 4.88339 24.8748 4.88338 24.8748L0.951033 19.1174L0.951024 19.1174C0.877318 19.0095 0.917093 18.8613 1.03476 18.8048L1.03486 18.8048L7.3192 15.785C7.31921 15.785 7.31922 15.785 7.31923 15.785C7.53934 15.6792 7.72242 15.5095 7.84453 15.298C7.96665 15.0865 8.0221 14.8431 8.00364 14.5996L7.50507 14.6374L8.00364 14.5996L7.47662 7.64736C7.46675 7.51705 7.57525 7.40855 7.70557 7.41842L14.6578 7.94544L14.6956 7.44687L14.6578 7.94544C14.9013 7.9639 15.1447 7.90844 15.3562 7.78633C15.5677 7.66421 15.7374 7.48112 15.8432 7.26099L18.863 0.976656L18.4126 0.760255L18.863 0.976647C18.9196 0.858809 19.0678 0.819157 19.1756 0.892819L19.4573 0.480465L19.1756 0.892823L24.9328 4.82521C24.9329 4.82524 24.9329 4.82527 24.933 4.8253C25.1346 4.96306 25.3731 5.03677 25.6173 5.0368C25.8615 5.03684 26.1 4.96315 26.3017 4.82538L32.059 0.892922L31.777 0.480042L32.059 0.892918C32.167 0.819213 32.3151 0.858986 32.3716 0.976658Z" stroke="black"/>
<path d="M25.6168 39.5481C33.3427 39.5481 39.6057 33.2851 39.6057 25.5592C39.6057 17.8334 33.3427 11.5703 25.6168 11.5703C17.891 11.5703 11.6279 17.8334 11.6279 25.5592C11.6279 33.2851 17.891 39.5481 25.6168 39.5481Z" fill="black"/>
</svg>
