<svg width="40" height="27" viewBox="0 0 40 27" fill="none" xmlns="http://www.w3.org/2000/svg">
<path d="M0.855469 17.1002C0.855469 16.5265 1.05502 16.0775 1.42919 15.7033C1.82829 15.3292 2.35212 15.1546 3.02561 15.1546H17.2687C17.9422 15.1546 18.4661 15.3292 18.8652 15.7033C19.2643 16.0775 19.4389 16.5265 19.4389 17.1002C19.4389 17.7737 19.2393 18.3225 18.8652 18.6966C18.491 19.0708 17.9422 19.2704 17.2687 19.2704H3.02561C2.35212 19.2704 1.82829 19.0708 1.42919 18.6966C1.03008 18.3225 0.855469 17.7987 0.855469 17.1002ZM0.855469 2.3582C0.855469 1.80943 1.05502 1.33549 1.42919 0.986273C1.82829 0.61211 2.35212 0.4375 3.02561 0.4375H10.4091C11.0826 0.4375 11.6064 0.61211 12.0055 0.986273C12.4046 1.33549 12.6042 1.80943 12.6042 2.3582C12.6042 3.0317 12.4046 3.55553 12.0055 3.95463C11.6064 4.35374 11.0826 4.55329 10.4091 4.55329H3.02561C2.35212 4.55329 1.82829 4.35374 1.42919 3.97957C1.03008 3.60541 0.855469 3.0317 0.855469 2.3582ZM3.32494 24.4837C3.32494 23.9349 3.54944 23.436 4.02338 22.987C4.47238 22.538 4.9962 22.2886 5.52003 22.2886C6.16858 22.2886 6.66746 22.5131 7.06657 22.9621C7.46568 23.4111 7.66523 23.91 7.66523 24.4837C7.66523 25.1572 7.46568 25.706 7.09151 26.1051C6.71735 26.5042 6.19352 26.6788 5.52003 26.6788C4.95418 26.6852 4.40818 26.4704 3.99844 26.0801C3.5245 25.6561 3.32494 25.1322 3.32494 24.4837ZM6.86702 9.69179C6.86702 9.11808 7.04163 8.59425 7.41579 8.1702C7.78995 7.7212 8.23895 7.4967 8.76278 7.4967C9.41132 7.4967 9.9601 7.7212 10.3592 8.1702C10.7583 8.61919 10.9579 9.11808 10.9579 9.69179C10.9579 10.3653 10.7583 10.9141 10.3841 11.3132C9.98504 11.7123 9.46121 11.8869 8.76278 11.8869C8.18906 11.8869 7.74006 11.6873 7.39084 11.2882C7.04163 10.8891 6.86702 10.3653 6.86702 9.69179ZM9.33649 24.4837C9.33315 24.1945 9.38764 23.9076 9.49677 23.6397C9.6059 23.3719 9.76747 23.1286 9.97197 22.9241C10.1765 22.7196 10.4198 22.558 10.6876 22.4489C10.9554 22.3398 11.2424 22.2853 11.5316 22.2886H21.0852L23.2803 24.4837C23.2803 25.1322 23.0558 25.6561 22.6068 26.0801C22.1578 26.5042 21.6589 26.6788 21.0852 26.6788H11.5316C10.8581 26.6788 10.3093 26.4792 9.91021 26.0801C9.5111 25.681 9.33649 25.1572 9.33649 24.4837ZM12.6291 9.69179C12.6291 9.14302 12.8536 8.64414 13.3276 8.19514C13.7766 7.74615 14.3004 7.4967 14.8242 7.4967H24.3778C25.0264 7.4967 25.5502 7.7212 25.9493 8.1702C26.3484 8.61919 26.548 9.11808 26.548 9.69179C26.548 10.3653 26.3484 10.9141 25.9743 11.3132C25.5752 11.7123 25.0513 11.8869 24.3778 11.8869H14.8242C14.2584 11.8933 13.7124 11.6785 13.3026 11.2882C12.8536 10.8891 12.6291 10.3653 12.6291 9.69179ZM14.5249 2.3582C14.5249 1.80943 14.7244 1.33549 15.1235 0.986273C15.5226 0.637054 16.0465 0.4375 16.72 0.4375H30.9631C31.5368 0.4375 32.0357 0.637055 32.4847 1.01122C32.9337 1.38538 33.1582 1.83438 33.1582 2.3582C33.1582 3.00675 32.9337 3.55553 32.4847 3.95463C32.0357 4.35374 31.5368 4.55329 30.9631 4.55329H16.72C16.0465 4.55329 15.4977 4.35374 15.0986 3.95463C14.6995 3.55553 14.5249 3.0317 14.5249 2.3582ZM21.0852 17.1002C21.0852 16.5764 21.3097 16.1025 21.7587 15.7283C22.1798 15.3596 22.7205 15.1563 23.2803 15.1563C23.84 15.1563 24.3807 15.3596 24.8019 15.7283C25.0108 15.8909 25.18 16.099 25.2967 16.3366C25.4134 16.5743 25.4745 16.8354 25.4754 17.1002C25.4754 17.7488 25.2509 18.2726 24.8019 18.6717C24.3529 19.0708 23.854 19.2704 23.2803 19.2704C22.7144 19.2768 22.1684 19.062 21.7587 18.6717C21.3097 18.2975 21.0852 17.7737 21.0852 17.1002ZM24.9266 24.4837C24.9266 23.91 25.1262 23.3862 25.5253 22.9621C25.9244 22.5131 26.4482 22.2886 27.0968 22.2886H31.7613C32.4099 22.2886 32.9337 22.5131 33.3328 22.9372C33.7319 23.3612 33.9315 23.885 33.9315 24.4837C33.9315 25.1572 33.7319 25.706 33.3577 26.1051C32.9836 26.5042 32.4348 26.6788 31.7613 26.6788H27.0968C26.4233 26.6788 25.8994 26.4792 25.5003 26.1051C25.1262 25.706 24.9266 25.1572 24.9266 24.4837ZM27.0968 17.1002C27.0968 16.5764 27.3213 16.1025 27.7702 15.7283C28.2192 15.3541 28.7181 15.1546 29.2918 15.1546H36.9497C37.4985 15.1546 37.9475 15.3541 38.2967 15.7283C38.6459 16.1025 38.8455 16.5514 38.8455 17.1002C38.8455 17.7737 38.6709 18.2975 38.3216 18.6966C37.9724 19.0957 37.5234 19.2704 36.9497 19.2704H29.2918C28.726 19.2768 28.18 19.062 27.7702 18.6717C27.3213 18.2975 27.0968 17.7737 27.0968 17.1002ZM28.1943 9.69179C28.1943 9.14302 28.4188 8.64414 28.8927 8.19514C29.3417 7.74615 29.8656 7.4967 30.3894 7.4967H35.2784C35.8023 7.4967 36.2513 7.7212 36.6254 8.1702C36.9996 8.61919 37.1991 9.11808 37.1991 9.69179C37.1991 10.3653 37.0245 10.8891 36.6504 11.2882C36.3012 11.6873 35.8272 11.8869 35.2784 11.8869H30.3894C29.8235 11.8933 29.2775 11.6785 28.8678 11.2882C28.4188 10.8891 28.1943 10.3653 28.1943 9.69179ZM35.029 2.3582C35.029 1.80943 35.2036 1.36044 35.5778 0.986273C35.9519 0.61211 36.4009 0.4375 36.9497 0.4375C37.6232 0.4375 38.147 0.61211 38.5461 0.986273C38.9452 1.33549 39.1448 1.80943 39.1448 2.3582C39.1448 3.0317 38.9452 3.55553 38.5461 3.95463C38.147 4.35374 37.6232 4.55329 36.9497 4.55329C36.376 4.55329 35.927 4.35374 35.5778 3.95463C35.2036 3.55553 35.029 3.0317 35.029 2.3582Z" fill="black"/>
</svg>
