<svg width="32" height="41" viewBox="0 0 32 41" fill="none" xmlns="http://www.w3.org/2000/svg">
<path d="M8.4103 8.22549H29.2821C29.7853 8.22549 30.2679 8.42539 30.6238 8.78123C30.9796 9.13707 31.1795 9.61969 31.1795 10.1229V38.5845C31.1795 39.0877 30.9796 39.5703 30.6238 39.9262C30.2679 40.282 29.7853 40.4819 29.2821 40.4819H2.71799C2.21476 40.4819 1.73214 40.282 1.3763 39.9262C1.02046 39.5703 0.820557 39.0877 0.820557 38.5845V19.6101L8.4103 8.22549ZM17.8975 0.635742H27.3847C27.8879 0.635742 28.3705 0.83565 28.7264 1.19149C29.0822 1.54733 29.2821 2.02995 29.2821 2.53318V6.32805H16V2.53318C16 2.02995 16.2 1.54733 16.5558 1.19149C16.9116 0.83565 17.3942 0.635742 17.8975 0.635742ZM4.61543 21.5075V34.7896H8.4103V21.5075H4.61543Z" fill="black"/>
</svg>
