<svg width="36" height="55" viewBox="0 0 36 55" fill="none" xmlns="http://www.w3.org/2000/svg">
<path fill-rule="evenodd" clip-rule="evenodd" d="M24.2846 42.6327H19.3703V39.8919H28.9631V49.4846H26.2223V44.5704L18.5673 52.2254H34.4447V54.9662H1.55518V52.2254H14.6918L4.69749 42.2311L6.63523 40.2934L16.6295 50.2877L24.2846 42.6327ZM17.9999 0.150391C18.3634 0.150391 18.7119 0.294771 18.9689 0.55177C19.2259 0.80877 19.3703 1.15733 19.3703 1.52079V12.1701L22.4249 8.72359L23.5582 5.47575C23.6825 5.13852 23.9342 4.86359 24.2592 4.71019C24.5842 4.55679 24.9565 4.53719 25.2958 4.65562C25.6351 4.77406 25.9143 5.02104 26.0732 5.34337C26.2322 5.66569 26.2582 6.03755 26.1456 6.37884L24.9232 9.88157C24.8648 10.0501 24.774 10.2056 24.6559 10.3393L21.0819 14.3724C20.9295 14.5447 20.7361 14.676 20.5196 14.7539C20.3031 14.8319 20.0705 14.854 19.8431 14.8184C19.6158 14.7828 19.4011 14.6905 19.2188 14.55C19.0366 14.4095 18.8926 14.2254 18.8002 14.0147C18.5674 14.1832 18.2873 14.2739 17.9999 14.2739C17.7125 14.2739 17.4324 14.1832 17.1996 14.0147C17.1074 14.2255 16.9635 14.4098 16.7813 14.5504C16.5991 14.691 16.3845 14.7834 16.1571 14.8192C15.9298 14.855 15.6971 14.8329 15.4805 14.7551C15.2639 14.6772 15.0704 14.5461 14.9179 14.3737L11.3439 10.3393C11.2259 10.2056 11.1351 10.0501 11.0767 9.88157L9.85429 6.37884C9.7949 6.20895 9.76956 6.02904 9.7797 5.84936C9.78985 5.66968 9.83529 5.49375 9.91342 5.33163C9.99155 5.16951 10.1009 5.02437 10.2351 4.90449C10.3693 4.78461 10.5258 4.69234 10.6957 4.63295C11.0388 4.51302 11.4155 4.53428 11.7429 4.69208C11.905 4.77022 12.0502 4.87952 12.1701 5.01374C12.2899 5.14797 12.3822 5.30449 12.4416 5.47438L13.5749 8.72222L16.6295 12.1715V1.52079C16.6295 1.15733 16.7739 0.80877 17.0309 0.55177C17.2879 0.294771 17.6365 0.150391 17.9999 0.150391ZM15.5524 20.4268C15.7188 20.3493 15.8992 20.3061 16.0826 20.2996C16.2661 20.2932 16.449 20.3237 16.6205 20.3894C16.7919 20.455 16.9485 20.5544 17.0808 20.6817C17.2131 20.809 17.3184 20.9616 17.3906 21.1304C17.4628 21.2992 17.5003 21.4808 17.501 21.6644C17.5016 21.8479 17.4654 22.0298 17.3944 22.1991C17.3234 22.3684 17.2191 22.5217 17.0877 22.65C16.9563 22.7782 16.8005 22.8787 16.6295 22.9456L16.3239 23.0771C16.5671 23.1192 16.7944 23.2262 16.9818 23.3868C17.1692 23.5473 17.3098 23.7555 17.3886 23.9894C17.4675 24.2232 17.4818 24.474 17.43 24.7153C17.3781 24.9566 17.2621 25.1794 17.0941 25.3602L15.7223 26.8375L16.3184 29.6934C16.3652 29.9162 16.3558 30.1471 16.2909 30.3653C16.2261 30.5835 16.1079 30.7821 15.9471 30.9432L13.8586 33.0317C13.6014 33.2888 13.2527 33.4333 12.889 33.4333C12.5254 33.4333 12.1766 33.2888 11.9195 33.0317C11.6623 32.7745 11.5179 32.4258 11.5179 32.0621C11.5179 31.6985 11.6623 31.3497 11.9195 31.0926L13.4845 29.5289L12.8952 26.7059C12.85 26.4914 12.8569 26.2692 12.9153 26.058C12.9737 25.8467 13.082 25.6525 13.2309 25.4917L14.9124 23.6815L13.6517 24.22L11.6139 26.1413C11.4432 26.302 11.2342 26.4161 11.0068 26.4729L7.98644 27.2321C7.6339 27.3206 7.26063 27.2655 6.94876 27.0788C6.63689 26.8921 6.41197 26.5891 6.32347 26.2366C6.23497 25.884 6.29014 25.5107 6.47685 25.1989C6.66356 24.887 6.96651 24.6621 7.31906 24.5736L9.99407 23.9021L11.9496 22.0589C12.0666 21.9489 12.2021 21.8603 12.3498 21.7972L15.551 20.4268H15.5524ZM20.3995 20.4062C20.06 20.2761 19.6828 20.2862 19.3507 20.4342C19.0187 20.5822 18.7591 20.8561 18.6289 21.1956C18.4988 21.535 18.5089 21.9123 18.6569 22.2443C18.8049 22.5764 19.0788 22.836 19.4183 22.9661L19.6965 23.073C19.4362 23.1135 19.1932 23.2281 18.9964 23.4032C18.7996 23.5782 18.6575 23.8062 18.5869 24.06C18.5163 24.3137 18.5204 24.5824 18.5986 24.8339C18.6768 25.0854 18.8257 25.309 19.0277 25.478L20.7846 26.9485L20.2104 29.6934C20.1638 29.9163 20.1735 30.1473 20.2385 30.3655C20.3036 30.5837 20.422 30.7822 20.5831 30.9432L22.6716 33.0317C22.7989 33.1589 22.9501 33.2598 23.1164 33.3286C23.2827 33.3975 23.461 33.4328 23.641 33.4328C23.821 33.4327 23.9992 33.3972 24.1655 33.3283C24.3317 33.2593 24.4828 33.1583 24.61 33.031C24.7373 32.9037 24.8382 32.7525 24.907 32.5862C24.9758 32.4199 25.0112 32.2416 25.0111 32.0616C25.0111 31.8816 24.9756 31.7034 24.9066 31.5371C24.8377 31.3709 24.7367 31.2198 24.6093 31.0926L23.0457 29.5289L23.635 26.7045C23.6857 26.4617 23.6695 26.2097 23.5881 25.9753C23.5068 25.741 23.3634 25.5331 23.1732 25.3739L21.0422 23.5896L22.7607 24.2474L24.9506 26.1742C25.1144 26.3183 25.3104 26.4212 25.522 26.4743L28.5437 27.2321C28.7183 27.276 28.8998 27.285 29.0778 27.2587C29.2559 27.2323 29.427 27.1712 29.5814 27.0788C29.7359 26.9863 29.8706 26.8644 29.9778 26.7199C30.0851 26.5753 30.1629 26.4111 30.2067 26.2366C30.2505 26.062 30.2596 25.8805 30.2332 25.7025C30.2069 25.5244 30.1458 25.3533 30.0533 25.1989C29.9609 25.0445 29.8389 24.9098 29.6944 24.8025C29.5499 24.6952 29.3857 24.6174 29.2111 24.5736L26.5115 23.8966L24.3873 22.0274C24.2649 21.9198 24.1243 21.8349 23.9721 21.7766L20.3995 20.4062Z" fill="black"/>
<path d="M20.7409 17.5753C20.7409 21.7385 19.5144 25.1124 18.0001 25.1124C16.4858 25.1124 15.2593 21.7385 15.2593 17.5753C15.2593 13.4134 16.4858 10.0381 18.0001 10.0381C19.5144 10.0381 20.7409 13.4134 20.7409 17.5753Z" fill="black"/>
<path fill-rule="evenodd" clip-rule="evenodd" d="M20.4474 14.0791V15.6167C20.4474 16.787 20.9079 18.415 22.2152 19.7553C23.5527 21.127 25.6549 22.0767 28.7082 22.0767C31.6175 22.0767 33.5731 21.4463 34.7365 20.3363C35.9548 19.1742 36.0877 17.7011 35.7575 16.6582L35.4903 15.8113L20.4474 14.0791ZM32.9208 18.2739C32.8967 18.3009 32.8715 18.3269 32.8454 18.352C32.4206 18.7563 31.3133 19.3359 28.7082 19.3359C26.2497 19.3359 24.9067 18.5904 24.1776 17.8422C23.9904 17.6509 23.825 17.4395 23.6843 17.2118L32.9208 18.2739ZM15.5524 14.0791V15.6167C15.5524 16.787 15.0919 18.415 13.7846 19.7553C12.4471 21.127 10.3449 22.0767 7.29162 22.0767C4.38227 22.0767 2.42672 21.4463 1.26325 20.3363C0.0449705 19.1742 -0.0879577 17.7011 0.242308 16.6582L0.509536 15.8113L15.5524 14.0791ZM3.07903 18.2739C3.1031 18.3009 3.12825 18.327 3.1544 18.352C3.57922 18.7563 4.6865 19.3359 7.29162 19.3359C9.75011 19.3359 11.0931 18.5904 11.8222 17.8422C12.0209 17.6366 12.1839 17.4242 12.3155 17.2118L3.07903 18.2739Z" fill="black"/>
</svg>
