<svg width="5" height="10" viewBox="0 0 5 10" fill="none" xmlns="http://www.w3.org/2000/svg">
<path d="M4.66652 4.99998C4.66683 5.15575 4.61258 5.30671 4.51319 5.42665L1.17986 9.42665C1.0667 9.56279 0.904091 9.64841 0.727807 9.66466C0.551523 9.68091 0.376002 9.62647 0.239858 9.51331C0.103714 9.40015 0.0180976 9.23755 0.00184442 9.06126C-0.0144087 8.88498 0.0400322 8.70946 0.153191 8.57331L3.13986 4.99998L0.259858 1.42665C0.204481 1.35846 0.163126 1.27999 0.138172 1.19577C0.113217 1.11154 0.105155 1.02321 0.114448 0.93586C0.12374 0.848508 0.150205 0.763852 0.192321 0.686762C0.234437 0.609671 0.291373 0.541662 0.359858 0.486648C0.428405 0.425594 0.508823 0.379355 0.596072 0.350826C0.683321 0.322298 0.775521 0.312097 0.866897 0.320858C0.958273 0.32962 1.04685 0.357158 1.12709 0.401747C1.20733 0.446335 1.27749 0.507014 1.33319 0.579982L4.55319 4.57998C4.63687 4.70337 4.67677 4.85125 4.66652 4.99998Z" fill="white"/>
</svg>
