<svg width="414" height="374" fill="none" xmlns="http://www.w3.org/2000/svg"><g clip-path="url(#a)"><path d="M243.801 371.1c22.9 1.8 33.9-13 34.1-42.9.3-29.9 9.8-31.4 34.3-48.2 20-13.7 13.2-37 10-45.1-1.7 0-3.7.2-6 .4-2.6.2-5.3.6-8 1 8.8 17.6.9 38.3-20.2 47.3-22 9.4-25.3 32.2-23.9 46 1.4 13.7-2.9 21.4-21 20.9-17.9-.7-22.3 18.8.7 20.6Zm-83.3-37.5c7.2 3.5 8.6-8.1 25.4-10.1 16.8-2 17.1-10.5 21.7-34.5 4.6-24.1 21.5-17.8 38.7-27.1 12.6-6.8 13.7-25.7 13.3-35.3-.3 0-.6.1-.9.1-4.1.7-8.1 1.1-11.9 1.3.3 20-12.7 25-28.2 28.3-16 3.4-23.5 15.6-23.9 35.2-.4 19.6-7.1 18.6-22.9 20.9-15.7 2.3-18.5 17.6-11.3 21.2ZM125.9 325c24.7-6.1 17.8-35.7 19.7-57.1 1.9-21.5 16.4-20.5 40.6-28.6 18.3-6.1 21-22.5 21.2-30.2-2 0-4.1.1-6.4.5-2.3.3-4.6.5-7 .5-.4 9.9-5.8 17.5-28.9 21.8-24.9 4.6-33 20.9-31.4 44.3 1.6 23.5-7.9 33.2-27.7 34.8-19.9 1.7-4.8 20.1 19.9 14Zm-87-20.2c7 5.5 19.1-.2 22.4-11.8 3.3-11.7 7.9-12.9 23.3-14.2 15.4-1.4 19.9-13.7 18.4-34.9-1.5-21.1 10.1-26.3 30-31.3 13.7-3.4 17.3-16.9 18.2-25-3.9-1.6-8.4-2.7-13.8-4.3-1.1 7-5.5 19.3-23.3 23.7-25.4 6.4-31.8 24.8-27.1 39.1 4.7 14.3-7.2 18.8-22.8 21.1-15.6 2.3-14.5 19-19.5 22-5 3.1-12.8 10.1-5.8 15.6Zm-6.3-50.5c13.5-10.2 6.1-31.3 14.6-38.5 8.4-7.2 29 1.8 49.7-6.1 14.6-5.6 23.1-23.8 26.9-34-3.2-4.6-3.3-10.1-7.2-13-9.7 43.8-37.2 40.6-60.3 37.5-23.9-3.2-28 14.5-25.4 22.4 2.6 7.9-.2 20.7-10.9 20.8-10.7.1-17.1.6-17.7 9.3-.6 8.9 16.7 11.8 30.3 1.6Z" fill="#A0FFFF"/><path d="M243.6 373.3c-13.6-1.1-18-7.8-17.7-13.3.3-6 6.5-12.3 17.5-12 7.8.2 13-1.1 15.8-4.2 2.6-2.8 3.5-7.3 2.8-14.2-1.7-17.4 4-39.2 25.2-48.3 10-4.3 17.3-11.5 20.5-20.3 2.9-7.8 2.3-16.2-1.5-23.9-.3-.7-.3-1.4 0-2.1.3-.6 1-1.1 1.7-1.2l2.1-.3c2-.3 4-.5 6-.7 2.5-.2 4.4-.3 6.1-.4.9 0 1.8.6 2.1 1.4 2.9 7.5 10.8 33-10.9 47.8-3.4 2.3-6.5 4.3-9.2 6.1-17.4 11.3-23.8 15.6-24.1 40.2-.2 18-4.2 30.8-12.1 38.1-5.2 4.8-12.2 7.2-20.7 7.2-1.1.3-2.3.3-3.6.1Zm72.9-135.8c-1.6.1-3.2.3-4.9.6 3.2 8 3.3 16.6.4 24.6-3.7 10-11.9 18.2-23 22.9-19 8.1-24.1 27.9-22.5 43.7.8 8.3-.4 14-4 17.8-3.8 4-10.1 5.8-19.3 5.6-7.8-.2-12.6 3.7-12.8 7.7-.2 3.7 3.9 7.8 13.6 8.6 9 .7 15.9-1.2 21-5.9 6.9-6.4 10.5-18.1 10.7-34.8.2-27 8.3-32.3 26.1-44 2.7-1.8 5.8-3.8 9.2-6.1 17.4-11.9 13.1-31.6 9.8-41-1.4 0-2.7.1-4.3.3Zm-157 98.1c-3.7-1.8-5.6-6.1-4.9-10.9.9-5.7 5.9-13 16.9-14.5 1.4-.2 2.6-.4 3.9-.5 12.8-1.7 16.7-2.2 17.1-18.2.5-21.2 9.1-33.8 25.7-37.4 17.3-3.7 26.6-8.9 26.4-26 0-1.2 1-2.2 2.2-2.3 3.4-.1 7.3-.6 11.7-1.3.3-.1.6-.1.9-.1.6-.1 1.3.1 1.8.5s.8 1 .8 1.7c.4 10.8-1 30-14.5 37.3-5.7 3.1-11.3 4.5-16.3 5.8-10.6 2.7-18.3 4.7-21.2 19.7-.3 1.8-.7 3.5-1 5.2-3.8 20-5.5 29.2-22.7 31.2-8.2 1-12.4 4.3-15.7 7-2.2 1.8-4.5 3.7-7.4 3.7-1.2 0-2.4-.3-3.7-.9Zm89.6-105.4c-.7 20.4-15.8 25.3-30 28.4-14.5 3.1-21.7 13.9-22.1 33-.4 19.9-7.7 20.8-21 22.5-1.2.2-2.5.3-3.8.5-8.6 1.2-12.4 6.6-13.1 10.8-.4 2.8.5 5.2 2.4 6.1 1.9.9 2.8.5 6.1-2.2 3.6-2.9 8.5-6.9 18-8 13.9-1.6 15-7.6 18.8-27.5.3-1.6.6-3.4 1-5.2 3.4-17.9 13.7-20.5 24.5-23.2 5-1.3 10.1-2.6 15.3-5.4 10.7-5.8 12.2-21.8 12.2-30.6-3 .3-5.8.6-8.3.8ZM96.7 321.6c-2-2.4-2.7-5-1.7-7.3.9-2.2 3.5-4.9 10.801-5.5 19.6-1.6 27.1-11 25.7-32.4-1.8-26.9 9.1-42.2 33.3-46.7 24.4-4.5 26.7-12.5 27-19.6 0-1.2 1-2.2 2.3-2.2 2.2 0 4.5-.2 6.6-.5 2.4-.4 4.7-.5 6.7-.5.6 0 1.2.3 1.6.7.4.4.7 1 .6 1.6-.2 7.5-2.8 25.6-22.7 32.3-4.8 1.6-9.2 2.8-13.1 3.9-16.4 4.6-24.6 7-26 22.7-.4 4.6-.4 9.5-.4 14.7 0 18.4.1 39.3-21 44.5-3.7.9-7.2 1.3-10.4 1.3-9.1 0-16-3.2-19.3-7Zm28.701 1.3c17.6-4.3 17.6-21.7 17.6-40.1 0-5.1 0-10.3.4-15.1 1.7-18.9 12.6-22 29.3-26.7 3.9-1.1 8.2-2.3 12.9-3.9 15-5 18.8-17.4 19.5-25.7-1.2.1-2.4.2-3.7.4-1.7.3-3.4.4-5.2.5-1.4 11.7-10.4 18-30.5 21.8-21.8 4.1-31.2 17.4-29.6 42 1.6 23.6-7.9 35.4-29.8 37.2-4.5.4-6.6 1.6-7 2.7-.4 1 .5 2.2.9 2.7 2.8 3.3 12.2 7.3 25.2 4.2ZM37.5 306.6c-3.2-2.5-3.8-5.3-3.7-7.2.4-6 7.5-10.8 9.6-12.1 1-.6 2-3.1 2.9-5.5 2.3-6 5.8-15.1 17.4-16.8 7.3-1.1 17.4-3.1 20.7-8.5 1.5-2.5 1.6-5.7.3-9.7-2.7-8-1.9-16.5 2.1-23.8 3.4-6.1 10.7-14.3 26.6-18.2 16.6-4.1 20.7-15.5 21.6-21.9.1-.6.5-1.2 1-1.6.5-.4 1.2-.5 1.9-.3 1.3.4 2.5.7 3.7 1.1 3.9 1.1 7.3 2.1 10.4 3.3.9.4 1.5 1.3 1.4 2.3-1 8.4-4.8 23.2-19.9 26.9-21 5.3-29.6 10.5-28.3 29 1.1 15.1.2 35.5-20.4 37.3-15.2 1.3-18.4 2.5-21.3 12.6-2 7.1-7.2 12.7-13.5 14.8-1.6.5-3.2.8-4.7.8-2.9.1-5.6-.8-7.8-2.5Zm103-120.1c-.4-.1-.9-.2-1.3-.4-1.8 7.7-7.4 18.8-24.5 23.1-11.3 2.8-19.5 8.4-23.7 16-3.4 6.2-4 13.3-1.7 20.2 1.8 5.3 1.5 9.8-.7 13.5-4.2 6.9-15 9.3-23.9 10.6-9 1.3-11.6 8-13.9 14-1.3 3.4-2.5 6.4-4.8 7.8-3.5 2.1-7.3 5.6-7.5 8.5 0 .4-.1 1.8 1.9 3.4 2.2 1.7 5.1 2.1 8.3 1.1 4.9-1.6 9-6.1 10.6-11.7 3.7-12.9 9.2-14.5 25.3-15.9 13-1.1 17.9-10.8 16.3-32.4-1.7-23.4 12.7-28.9 31.7-33.7 11.5-2.9 15.1-13.9 16.3-21.3-2.6-1.1-5.3-1.9-8.4-2.8Z" fill="#fff"/><path d="M5.1 261c-3.5-1.9-5.3-4.9-5.1-8.4.7-11.2 10-11.3 19.9-11.5 3 0 5.3-1.2 7-3.6 2.9-4 3.1-10.2 1.8-14.2-1.6-4.8-1-12.6 3.8-18.3 3.5-4.2 10.5-8.8 24-7 22.7 3.1 48.4 6.5 57.8-35.8.2-.8.7-1.4 1.4-1.6.7-.3 1.5-.1 2.1.3 2.7 2.1 3.9 5 5 7.9.7 1.9 1.5 3.8 2.7 5.6.4.6.5 1.4.3 2.1-3.9 10.7-12.8 29.5-28.2 35.4-11.1 4.3-22.3 3.8-31.3 3.4-7.7-.3-14.3-.6-17.7 2.3-3 2.6-3.6 7.9-4.3 14-.9 8.6-2 18.3-10.4 24.6-6.4 4.9-13.7 6.9-19.7 6.9-3.6-.1-6.7-.8-9.1-2.1Zm61.4-50.3c9 .4 19.2.8 29.5-3.1 13.3-5.1 21.3-21.5 25.2-31.6-1.1-1.9-1.9-3.8-2.5-5.5-.4-.9-.7-1.8-1-2.6-11.3 41.4-40.3 37.5-61.7 34.6-9.1-1.2-16 .7-19.9 5.4-3.6 4.3-4.2 10.3-3 14.1 2 6.1 1 13.6-2.4 18.3-2.5 3.5-6.2 5.4-10.6 5.5-11.8.1-15 1.1-15.4 7.2-.1 1.7.8 3 2.7 4.1 5.2 2.8 15.5 1.8 23.9-4.5 6.8-5.2 7.7-13.5 8.6-21.5.7-6.8 1.5-13.2 5.8-16.9 3.4-2.9 8.2-3.6 13.9-3.6 2.1-.1 4.5 0 6.9.1Z" fill="#fff"/><path d="M366.1 208.9s56.6-16.9 42.9-97.5C395.3 30.6 308.4-12.3 209.5 6.7c-99 18.9-99 91-84.8 126.5 0 0-15.4-6.9-21.1 6.8-5.7 13.7 1.4 18.2 10.5 21.4 9.1 3.2 3.9 15.7 18.4 20.4 14.5 4.7 23.6 5.1 29.6 14.9 5.9 9.8 24.1 15.2 38.9 13 14.8-2.3 22.1 3.4 26 11.5 4 8.1 17.8 7.9 31.8 5.7 13.9-2.3 20 1.3 28.3 6.9 8.3 5.6 19.2 2.4 29.1 1.5 9.9-.9 13.9-.3 20.9 3.8 7.1 4 38.6-.1 29-30.2Z" fill="#A0FFFF"/><path d="M336 241c-6.4-3.8-9.9-4.4-19.6-3.5-2 .2-3.9.4-6 .7-8.5 1.1-17.2 2.3-24.6-2.6-8.1-5.4-13.7-8.7-26.7-6.5-19.2 3.1-30.4.9-34.2-6.9-4.3-8.8-11.8-12-23.7-10.2-16.5 2.5-34.9-3.8-41.1-14-4.2-6.9-10-8.6-19.7-11.3-2.6-.7-5.5-1.6-8.6-2.6-9.2-3-11.4-8.8-13.2-13.5-1.4-3.7-2.4-5.8-5.3-6.8-5.1-1.8-10.6-4.3-13-9.4-1.8-4-1.4-8.9 1.1-15 1.8-4.3 4.6-7.3 8.5-8.8 3.9-1.5 8-1.2 11-.6-6.8-20.1-8.7-48.9 5-74 14.4-26.2 42.3-43.5 83-51.3C265.5-6.1 320.1 3 358.7 29.8c28.6 19.9 46.7 48 52.4 81.4 7.2 42.5-5.2 67.5-16.9 80.9-10 11.5-21 16.7-25.5 18.4 3.8 14.2-1.4 22.1-6.6 26.3-5.4 4.3-12.4 6-18.1 6-3.3-.2-6.2-.8-8-1.8ZM209.9 8.9c-39.3 7.5-66.2 24-79.9 49-14 25.6-10.9 55.3-3.2 74.5.3.9.1 1.8-.5 2.5-.7.6-1.6.8-2.5.4-.1 0-6.7-2.9-12.1-.7-2.7 1.1-4.6 3.1-5.9 6.3-2 4.9-2.4 8.6-1.2 11.4 1.6 3.6 6.1 5.5 10.3 7 5 1.7 6.6 5.9 8 9.5 1.7 4.4 3.3 8.6 10.4 10.9 3.1 1 5.8 1.8 8.5 2.5 10 2.8 17.2 4.8 22.3 13.3 5.2 8.7 22 14.1 36.6 11.9 13.9-2.1 23.2 2 28.4 12.7 2.8 5.6 12.6 7.1 29.4 4.4 14.4-2.3 21.2 1.4 30 7.3 5.9 4 13.5 3 21.5 1.9 2-.3 4.1-.6 6.2-.7 9.9-.9 14.6-.4 22.3 4.1 3.2 1.9 14.1 1.5 21-4 6.3-5 7.9-13.2 4.5-23.5-.2-.6-.1-1.2.2-1.7.3-.5.8-.9 1.4-1.1.5-.2 54.5-17.2 41.3-95-5.4-32.1-22.9-59.2-50.5-78.4-27.4-19-62.8-28.9-101.3-28.9-14.7 0-29.9 1.5-45.2 4.4Z" fill="#fff"/><path d="M364.8 207c-6.9 4.1-15.6 5.7-23.5 4.1-4.1-.8-8.1-2.6-12.1-3.9-6.2-2.1-12.8-3.8-19.5-3.3-4.4.3-8.7 1.4-12.9 2.6-6.1 1.7-12.8 2.2-18.8-.2-4-1.5-7.4-4.4-10.1-7.8 2.5 3.5 5.8 6.6 9.8 8.3 6.1 2.7 13 2.6 19.4 1.1 6.2-1.6 12.5-2.7 18.9-1.6 8.6 1.3 16.2 5.8 24.5 8.1 8.9 2.2 18.5.8 26.7-3.6 2.7-1.6.2-5.6-2.4-3.8Zm-242.3-73.3c10 32.8 31.2 7.4 41.9 32 .7 1.4 1.9 3.5 2.8 4.7 5.1 6.5 13.8 9 21.8 8.4-3.5.1-7.1-.5-10.4-1.6-5-1.7-9.3-5.1-11.7-9.7l-1.1-2.3c-1.7-4.3-4-8.4-7.9-11.2-4.6-3.2-10.4-3.5-15.7-4.4-3.2-.4-6.3-1.5-8.6-3.8-3.4-3.5-5.6-8.4-6.6-13.1-.8-3-5.2-2-4.5 1Z" fill="#fff"/><path opacity=".75" d="M152.1 107.7c10.8 12 27.1 14.8 36.4 6.4 9.3-8.4 8.1-24.9-2.7-36.9s-27.1-14.8-36.4-6.4c-9.4 8.5-8.1 25 2.7 36.9Zm77.1 13.6c8.3 9.2 20.8 11.4 28 4.9 7.1-6.5 6.2-19.1-2.1-28.3s-20.8-11.4-28-4.9c-7.1 6.5-6.2 19.1 2.1 28.3Zm-7.8-61.5c6.2 6.9 15.6 8.5 21 3.7s4.7-14.3-1.6-21.2c-6.2-6.9-15.6-8.5-21-3.7-5.3 4.8-4.6 14.3 1.6 21.2Zm-16.2 24.4c2.9 3.3 7.4 4 9.9 1.7s2.2-6.8-.7-10c-2.9-3.3-7.4-4-9.9-1.7-2.6 2.3-2.3 6.8.7 10Zm14.3 81.3c2.9 3.3 7.4 4 9.9 1.7s2.2-6.8-.7-10c-2.9-3.3-7.4-4-9.9-1.7-2.6 2.2-2.3 6.7.7 10Zm63-16c2.9 3.3 7.4 4 9.9 1.7s2.2-6.8-.7-10c-2.9-3.3-7.4-4-9.9-1.7-2.6 2.3-2.3 6.8.7 10Zm-98.4-94.7c3 3.3 7.6 4.1 10.2 1.8 2.6-2.3 2.3-7-.8-10.3-3-3.3-7.6-4.1-10.2-1.8-2.5 2.4-2.2 7 .8 10.3Z" fill="#F6B1B4"/><path d="M357.8 183.3c7.069 0 12.8-5.954 12.8-13.3 0-7.345-5.731-13.3-12.8-13.3-7.069 0-12.8 5.955-12.8 13.3 0 7.346 5.731 13.3 12.8 13.3Zm-30.7-148c16.9 5.2 19.7 26.3 19.7 26.3s26.7 5.9 25.1 38.9c0 0 11 10.4 6.4 28.4s-19.7 15.3-21.8 4.5c-2.1-10.8-.6-30.2-.6-30.2s-21-9.8-23.2-37.5c0 0-26.9-8.8-26.3-22.9.7-14.1 20.7-7.5 20.7-7.5Z" fill="#fff"/></g><defs><clipPath id="a"><path fill="#fff" d="M0 0h413.3v373.5H0z"/></clipPath></defs></svg>