<svg xmlns="http://www.w3.org/2000/svg" viewBox="0 0 246.97 238.09"><defs><style>.cls-1{fill:#fde000}</style></defs><g id="Слой_2" data-name="Слой 2"><g id="Layer_1" data-name="Layer 1"><path d="m223.62 190.58-80.65-12.08-55.66 59.59-13.44-80.43L0 123.13 72.34 85.5 82.35 4.58l58.14 57.17 80.06-15.49-36.4 72.96 39.47 71.36z"/><path d="m164.94 214-55.01-48.18-70.88 18 28.83-67.21-39.03-61.84 72.83 6.64 46.76-56.22 16.18 71.31 67.92 27.1-62.82 37.43-4.78 72.97z"/><path class="cls-1" d="m238.04 186-80.64-12.07-55.67 59.58-13.43-80.42-73.87-34.53 72.34-37.64L96.78 0l58.14 57.17 80.06-15.49-36.41 72.97L238.04 186z"/><path class="cls-1" d="m179.37 209.42-55.01-48.18-70.88 18 28.82-67.2-39.02-61.85 72.83 6.65L162.86.61l16.19 71.32 67.92 27.1-62.82 37.42-4.78 72.97z"/></g></g></svg>