<svg width="130" height="150" fill="none" xmlns="http://www.w3.org/2000/svg"><g clip-path="url(#a)"><path d="M37.2 6.6C8.1 14.9-6.6 53.1 4.5 92.1c11.1 38.9 43.7 63.8 72.8 55.5 4.9-1.4 9.7-2.7 14.5-4.1 29.1-8.3 43.8-46.6 32.7-85.5-11-39-43.6-63.9-72.7-55.6-4.9 1.4-9.7 2.8-14.6 4.2Z" fill="url(#b)"/><path d="M65.8 150c-26.5 0-52.6-24.3-62.1-57.7C-7.5 53 7.5 14.2 37 5.8l14.5-4.1C55.3.5 59.3 0 63.3 0c26.5 0 52.6 24.3 62.1 57.7 5.4 19 4.9 38.4-1.3 54.8-6.3 16.4-17.6 27.7-32 31.8l-14.5 4.1c-3.8 1-7.8 1.6-11.8 1.6ZM63.3 1.7c-3.8 0-7.6.5-11.3 1.6L37.5 7.4C8.8 15.5-5.6 53.4 5.3 91.8c9.3 32.7 34.8 56.5 60.5 56.5 3.8 0 7.6-.5 11.2-1.6l14.5-4.1c13.8-3.9 24.8-14.9 30.9-30.7 6.1-16 6.6-35.1 1.3-53.7C114.5 25.4 89 1.7 63.3 1.7Z" fill="#A14A04"/><path d="M77.3 147.5c29.1-8.3 43.8-46.6 32.7-85.5C99 23.1 66.4-1.7 37.2 6.6 8.1 14.9-6.6 53.1 4.5 92.1c11.1 38.9 43.7 63.7 72.8 55.4Z" fill="url(#c)"/><path d="M65.8 150c-26.5 0-52.6-24.3-62.1-57.7C-7.5 53 7.5 14.2 37 5.8c3.8-1.1 7.7-1.6 11.7-1.6 26.5 0 52.6 24.3 62.1 57.7 5.4 19 4.9 38.4-1.3 54.8-6.3 16.4-17.6 27.7-32 31.8-3.7.9-7.7 1.5-11.7 1.5ZM48.7 5.8c-3.8 0-7.6.5-11.3 1.6-28.6 8.1-43 46-32.1 84.4 9.3 32.7 34.8 56.5 60.5 56.5 3.8 0 7.6-.5 11.2-1.6 13.8-3.9 24.8-14.9 30.9-30.7 6.1-16 6.6-35.1 1.3-53.7C99.9 29.6 74.5 5.8 48.7 5.8Z" fill="#FFED8B"/><path d="M32.2 8.4C6.4 19.4-5.9 55.5 4.5 92.1c10.4 36.6 39.8 60.7 67.5 56.6L32.2 8.4Z" fill="url(#d)"/><path d="M11.6 90c9.3 32.9 37.1 53.7 62 46.7 9.4-2.7 17.1-9 22.5-17.5-4.9 6.6-11.4 11.5-19.1 13.7-23.5 6.7-49.8-13.3-58.7-44.7C9.4 56.8 21.2 26 44.7 19.3c7.8-2.2 15.8-1.5 23.5 1.6-9.2-4.5-19-5.9-28.4-3.2-25 7.1-37.6 39.5-28.2 72.3Z" fill="#CA7A11"/><path d="M74.1 136.2s.6-.2 1.8-.7c.6-.2 1.3-.5 2.1-.8.9-.3 1.7-.9 2.7-1.4.5-.3 1-.6 1.6-.9.6-.3 1.1-.7 1.6-1.1 1.1-.8 2.4-1.6 3.5-2.8 1.2-1.1 2.5-2.2 3.6-3.6l1.8-2.1c.5-.8 1.1-1.6 1.6-2.4 1.2-1.6 2.1-3.4 3.1-5.3.5-.9.9-2 1.3-3s.9-2 1.2-3.1c.7-2.2 1.5-4.3 1.9-6.7.2-1.2.6-2.3.7-3.5.2-1.2.4-2.4.5-3.6.2-1.2.2-2.5.3-3.7.1-1.2.2-2.5.2-3.8-.1-2.5 0-5.1-.3-7.7-.3-5.2-1.5-10.4-2.8-15.4-1.6-5.1-3.3-10-5.7-14.6-1.1-2.4-2.5-4.5-3.8-6.7-.6-1.1-1.4-2.1-2.2-3.1-.7-1-1.4-2.1-2.2-3-.8-.9-1.6-1.9-2.4-2.8-.8-.9-1.7-1.7-2.5-2.6-1.6-1.8-3.4-3.2-5.1-4.7-.8-.8-1.8-1.3-2.7-2-.9-.6-1.7-1.3-2.7-1.8-1.9-1-3.6-2.2-5.4-2.9l-2.7-1.2c-.9-.3-1.8-.6-2.6-.8-1.7-.6-3.4-.9-5-1.2-1.6-.4-3.1-.4-4.5-.5-.7 0-1.4-.1-2-.1-.6 0-1.2.1-1.8.1-1.1.1-2.2.1-3.1.3-.9.2-1.6.3-2.2.4-1.2.2-1.9.4-1.9.4s.6-.1 1.9-.4c.6-.1 1.4-.3 2.2-.5.9-.2 1.9-.2 3.1-.4.6-.1 1.2-.1 1.8-.2h2c1.4.1 2.9 0 4.5.4 1.6.3 3.3.5 5.1 1.1.9.3 1.8.5 2.7.8.9.4 1.8.7 2.7 1.1 1.9.7 3.7 1.8 5.6 2.8 1 .5 1.8 1.2 2.8 1.8.9.7 1.9 1.2 2.8 2 1.8 1.5 3.7 2.9 5.3 4.7 1.8 1.6 3.4 3.5 5 5.4.9.9 1.5 2 2.3 3 .7 1 1.5 2 2.2 3.1 1.3 2.2 2.8 4.4 3.9 6.8 2.5 4.6 4.3 9.8 5.9 14.8 1.3 5.2 2.5 10.4 2.8 15.7.3 2.6.2 5.2.3 7.8 0 1.3-.2 2.6-.2 3.8-.1 1.3-.1 2.5-.4 3.8-.4 2.5-.7 4.9-1.4 7.3-.5 2.4-1.3 4.6-2.1 6.8-.3 1.1-.9 2.1-1.3 3.1-.5 1-.8 2.1-1.4 3-1.1 1.9-2 3.8-3.3 5.3-.6.8-1.2 1.6-1.7 2.4-.6.7-1.3 1.4-1.9 2.1-1.2 1.4-2.5 2.5-3.7 3.6-1.2 1.1-2.5 1.9-3.7 2.7-.6.4-1.1.8-1.7 1.1-.6.3-1.1.6-1.6.8-1.1.5-1.9 1-2.8 1.3-.9.3-1.6.5-2.2.7-.8.6-1.4.8-1.4.8Z" fill="#FFC747"/><path d="M90.2 21.5c-.6-.8-1.2-1.5-2-2.1-1.2-.9-3.3-.8-4 .7-.9 1.9.2 3.4 1.4 4.8 1 1.2 2.7 1.6 4 .6 1.2-.9 1.6-2.8.6-4ZM29 129.7c-.9-.9-2-1.7-3.2-1.8-.1 0-.2-.1-.3-.1-1.4-.7-2.4 1-1.7 2.1 0 1.4 1.3 2.5 2.3 3.4 1 .9 2.5.6 3.3-.3.8-1.1.5-2.5-.4-3.3Zm8-10.4c-.6-.5-1.5.3-1 1 .7.9 1.7 3.1 3.1 2.7.3-.1.4-.2.5-.5.4-1.4-1.7-2.4-2.6-3.2Zm49.5-85.8c-.1-.1-.2-.2-.2-.3-1.5-1.7-3.8.6-2.2 2.1.1.1.2.2.3.2 1.3 1.1 3.3-.7 2.1-2Z" fill="#fff"/></g><defs><linearGradient id="b" x1="84.746" y1="145.998" x2="44.493" y2="4.482" gradientUnits="userSpaceOnUse"><stop stop-color="#CD7D0A"/><stop offset=".261" stop-color="#AF5203"/><stop offset=".498" stop-color="#974B00"/><stop offset=".743" stop-color="#BC6D07"/><stop offset="1" stop-color="#D0800A"/></linearGradient><linearGradient id="c" x1="16.081" y1="97.357" x2="78.252" y2="66.706" gradientUnits="userSpaceOnUse"><stop stop-color="#FFDD40"/><stop offset="1" stop-color="#E29A0A"/></linearGradient><linearGradient id="d" x1="-21.882" y1="123.173" x2="71.327" y2="66.621" gradientUnits="userSpaceOnUse"><stop offset=".195" stop-color="#FFFF9F"/><stop offset="1" stop-color="#FFFA6D"/></linearGradient><clipPath id="a"><path fill="#fff" d="M0 0h129.1v150H0z"/></clipPath></defs></svg>