<svg width="134" height="146" fill="none" xmlns="http://www.w3.org/2000/svg"><g clip-path="url(#a)"><path d="M95.6 5.9c-26.2-14.3-63 2.5-82.1 37.5-19.1 35-13.4 75 12.8 89.3 4.4 2.4 8.7 4.7 13.1 7.1 26.2 14.3 63-2.5 82.1-37.5 19.1-35 13.4-75-12.8-89.3-4.4-2.3-8.7-4.7-13.1-7.1Z" fill="url(#b)"/><path d="M16.6 126.5C-2.1 108.2-3.7 73.1 12.7 43 32 7.6 69.4-9.3 96 5.2l13.1 7.1c3.4 1.9 6.6 4.2 9.4 7 18.6 18.3 20.2 53.4 3.8 83.5-9.3 17.1-23.1 30.5-38.8 37.6-15.8 7.2-31.5 7.3-44.5.2l-13.1-7.1c-3.4-1.9-6.6-4.2-9.3-7Zm100.7-106c-2.7-2.6-5.7-4.9-9-6.7L95.2 6.6c-25.8-14.1-62.1 2.6-81 37.2-16.1 29.4-14.6 63.7 3.5 81.6 2.7 2.6 5.7 4.9 9 6.7l13.1 7.1c12.4 6.8 27.7 6.7 43-.3s28.8-20.1 38-36.9c16.1-29.4 14.6-63.7-3.5-81.5Z" fill="#A14A04"/><path d="M26.3 132.8c26.2 14.3 63-2.5 82.101-37.5 19.1-35 13.4-75-12.8-89.3-26.2-14.3-63 2.5-82.1 37.5C-5.7 78.4.1 118.4 26.3 132.8Z" fill="url(#c)"/><path d="M16.6 126.5C-2.1 108.2-3.7 73.1 12.7 43 32 7.6 69.4-9.3 96 5.2c3.4 1.9 6.6 4.2 9.4 7 18.6 18.3 20.2 53.4 3.8 83.5-9.3 17.1-23.1 30.5-38.8 37.6-15.8 7.2-31.5 7.3-44.5.2-3.4-1.9-6.6-4.2-9.3-7Zm87.6-113.2c-2.7-2.6-5.7-4.9-9-6.7-25.8-14.1-62.1 2.6-81 37.2-16.1 29.4-14.6 63.7 3.5 81.6 2.7 2.6 5.7 4.9 9 6.7 12.4 6.8 27.7 6.7 43-.3s28.8-20.1 38-36.9c16.1-29.5 14.6-63.8-3.5-81.6Z" fill="#FFED8B"/><path d="M90.8 3.7C65-6.3 31.4 10.5 13.5 43.4c-18 32.9-14 70.3 8.4 86.5L90.8 3.7Z" fill="url(#d)"/><path d="M19.8 46.9c-16.1 29.5-11 63.4 11.4 75.7 8.5 4.6 18.2 5.5 27.9 3.2-8 1.3-15.9.2-22.9-3.6-21.1-11.5-25.8-43.8-10.4-72C41.3 21.9 70.9 8.4 92 20c7 3.8 12.2 9.9 15.4 17.3-3.3-9.4-9.3-17.1-17.8-21.8-22.4-12.2-53.7 1.8-69.8 31.4Z" fill="#CA7A11"/><path d="M31.9 122.6s.6.3 1.7.8c.6.2 1.3.6 2.1.9.8.4 1.8.6 2.9.9.5.2 1.1.3 1.7.5.6.2 1.3.2 1.9.3 1.4.2 2.8.5 4.4.5 1.6.1 3.3.1 5-.1.9-.1 1.8-.2 2.7-.2.9-.2 1.8-.4 2.8-.5 1.9-.3 3.8-1 5.9-1.6 1-.3 2-.8 3-1.2 1-.4 2-.8 3-1.3 2-1 4-2 6-3.4 1-.7 2-1.2 3-2 1-.7 1.9-1.4 2.9-2.2 1-.7 1.9-1.6 2.8-2.4.9-.8 1.9-1.6 2.7-2.5 1.7-1.8 3.5-3.6 5.1-5.6 3.3-3.9 6.1-8.3 8.7-12.8 2.4-4.7 4.6-9.3 6.1-14.2.9-2.4 1.4-4.9 2-7.3.3-1.2.4-2.5.6-3.7.2-1.2.4-2.4.5-3.6l.3-3.6c.1-1.2 0-2.4 0-3.5.1-2.3-.2-4.6-.4-6.8-.1-1.1-.4-2.2-.5-3.3-.2-1.1-.3-2.1-.6-3.1-.6-2-1-4-1.8-5.8-.4-.9-.7-1.8-1.1-2.7-.4-.8-.9-1.6-1.3-2.4-.8-1.6-1.7-3-2.6-4.3-.8-1.4-1.9-2.4-2.8-3.4-.5-.5-.9-1-1.3-1.5-.5-.4-.9-.8-1.4-1.2-.9-.7-1.6-1.5-2.3-1.9.8.5 1.5 1.2 2.4 1.9.4.4.9.7 1.4 1.1.5.4.9.9 1.4 1.4.9 1 2 2 2.9 3.4 1 1.3 2 2.6 2.8 4.3.4.8.9 1.6 1.3 2.4.4.9.7 1.8 1.1 2.7.9 1.8 1.3 3.8 2 5.8.3 1 .5 2.1.7 3.2.2 1.1.5 2.2.6 3.3.2 2.3.6 4.6.5 7 .1 2.4-.1 4.8-.3 7.3 0 1.2-.3 2.5-.5 3.7-.2 1.2-.3 2.5-.6 3.7-.6 2.5-1.1 5-1.9 7.5-1.4 5-3.7 9.8-6.1 14.5-2.7 4.6-5.5 9-8.9 13-1.6 2.1-3.5 3.8-5.2 5.7-.9.9-1.9 1.7-2.8 2.5-1 .8-1.8 1.7-2.9 2.4-2 1.5-3.9 3-6 4.1-2 1.3-4.1 2.3-6.1 3.3-1 .5-2.1.9-3.1 1.3s-2 .9-3 1.1c-2.1.6-4 1.2-6 1.5-1 .2-1.9.3-2.9.5-.9.1-1.9.1-2.8.2-1.8.2-3.5 0-5.1-.1-1.6 0-3.1-.4-4.4-.6-.7-.1-1.3-.2-1.9-.4-.6-.2-1.2-.4-1.7-.6-1.1-.4-2.1-.6-2.9-1-.8-.4-1.5-.7-2-1-1.1-.7-1.7-.9-1.7-.9Z" fill="#FFC747"/><path d="M122.5 53c.1-1 .2-1.9.1-2.8-.2-1.5-1.8-2.8-3.3-2.3-1.9.7-2.2 2.5-2.4 4.3-.1 1.5.8 3 2.4 3.2 1.5.2 3.1-.9 3.2-2.4ZM4.7 86.8c0-1.2-.2-2.6-1.1-3.5 0-.1-.1-.2-.1-.3-.5-1.4-2.4-1-2.7.3-.9 1-.8 2.7-.8 4 .1 1.3 1.3 2.2 2.6 2.1 1.3-.2 2.1-1.4 2.1-2.6Zm12.7-1.7c-.1-.8-1.3-.8-1.4 0-.1 1.1-1 3.3.3 4.1.2.1.4.1.7 0 1.3-.8.5-3 .4-4.1Zm94.2-26.2v-.4c.1-2.2-3.1-2.2-2.9-.1v.4c.1 1.7 2.8 1.8 2.9.1Z" fill="#fff"/></g><defs><linearGradient id="b" x1="32.544" y1="136.721" x2="102.085" y2="9.377" gradientUnits="userSpaceOnUse"><stop stop-color="#CD7D0A"/><stop offset=".261" stop-color="#AF5203"/><stop offset=".498" stop-color="#974B00"/><stop offset=".743" stop-color="#BC6D07"/><stop offset="1" stop-color="#D0800A"/></linearGradient><linearGradient id="c" x1="17.89" y1="55.041" x2="82.801" y2="76.474" gradientUnits="userSpaceOnUse"><stop stop-color="#FFDD40"/><stop offset="1" stop-color="#E29A0A"/></linearGradient><linearGradient id="d" x1="-26.654" y1="46.947" x2="77.991" y2="71.626" gradientUnits="userSpaceOnUse"><stop offset=".195" stop-color="#FFFF9F"/><stop offset="1" stop-color="#FFFA6D"/></linearGradient><clipPath id="a"><path fill="#fff" d="M0 0h133.5v145.9H0z"/></clipPath></defs></svg>