<svg width="184" height="201" fill="none" xmlns="http://www.w3.org/2000/svg"><g clip-path="url(#a)"><path d="M131.1 8.1c-36-19.6-86.4 3.4-112.6 51.4-26.3 48.1-18.4 103 17.6 122.6 6 3.3 11.9 6.5 18 9.8 36 19.6 86.4-3.4 112.6-51.4C192.9 92.4 185 37.6 149.1 17.9c-6.1-3.3-12-6.5-18-9.8Z" fill="url(#b)"/><path d="M22.7 173.6C-2.9 148.5-5.1 100.3 17.5 59 44 10.5 95.2-12.8 131.7 7.1l18 9.8c4.7 2.6 9 5.8 12.8 9.5 25.6 25.1 27.8 73.3 5.2 114.6-12.8 23.5-31.7 41.8-53.2 51.6-21.6 9.9-43.3 10-61 .3l-18-9.8c-4.6-2.5-9-5.7-12.8-9.5ZM160.9 28.1c-3.7-3.6-7.8-6.7-12.3-9.2l-18-9.8c-35.4-19.3-85.2 3.6-111.1 51-22.1 40.4-20 87.4 4.8 111.9 3.7 3.6 7.8 6.7 12.3 9.2l18 9.8c17.1 9.3 38 9.2 59-.4 21.1-9.6 39.6-27.6 52.2-50.6 21.9-40.4 19.9-87.5-4.9-111.9Z" fill="#A14A04"/><path d="M36.1 182.1c36 19.6 86.4-3.4 112.6-51.4C175 82.6 167.1 27.8 131.1 8.1c-36-19.6-86.4 3.4-112.6 51.4-26.3 48.1-18.4 103 17.6 122.6Z" fill="url(#c)"/><path d="M22.7 173.6C-2.9 148.5-5.1 100.3 17.5 59 44 10.5 95.2-12.8 131.7 7.1c4.7 2.6 9 5.8 12.8 9.5 25.6 25.1 27.8 73.3 5.2 114.6-12.8 23.5-31.7 41.8-53.2 51.6-21.6 9.9-43.3 10-61 .3-4.6-2.5-9-5.7-12.8-9.5ZM142.9 18.3c-3.7-3.6-7.8-6.7-12.3-9.2-35.4-19.3-85.2 3.6-111.1 51-22.1 40.4-20 87.4 4.8 111.9 3.7 3.6 7.8 6.7 12.3 9.2 17.1 9.3 38 9.2 59-.4 21.1-9.6 39.6-27.6 52.2-50.6 22-40.4 20-87.5-4.9-111.9Z" fill="#FFED8B"/><path d="M124.5 5.1c-35.3-13.7-81.4 9.3-106 54.5C-6.2 104.7-.7 156 29.9 178.2L124.5 5.1Z" fill="url(#d)"/><path d="M27.2 64.3C5 104.9 12 151.4 42.8 168.2c11.6 6.3 25 7.5 38.3 4.4-11 1.8-21.8.3-31.4-4.9-29-15.8-35.4-60.1-14.2-98.8 21.1-38.7 61.8-57.3 90.801-41.5 9.6 5.2 16.7 13.6 21.1 23.8-4.5-12.9-12.8-23.5-24.4-29.9-30.8-16.8-73.7 2.5-95.8 43Z" fill="#CA7A11"/><path d="M43.7 168.1s.8.4 2.4 1c.8.3 1.7.8 2.8 1.3 1.1.5 2.5.8 4 1.3.7.2 1.5.4 2.4.7.8.2 1.7.3 2.7.5 1.9.3 3.9.7 6 .7 2.2.1 4.5.2 6.9-.1 1.2-.1 2.5-.2 3.7-.3 1.3-.2 2.5-.5 3.8-.7 2.6-.4 5.3-1.4 8-2.2 1.4-.4 2.7-1.1 4.1-1.6 1.4-.6 2.8-1.1 4.1-1.8 2.7-1.4 5.5-2.8 8.2-4.6 1.3-.9 2.8-1.7 4.1-2.7 1.3-1 2.6-2 4-3s2.6-2.2 3.8-3.3c1.2-1.2 2.6-2.2 3.8-3.5 2.4-2.5 4.9-4.9 7-7.7 4.6-5.3 8.4-11.4 11.9-17.5 3.3-6.4 6.3-12.8 8.3-19.5 1.2-3.3 1.9-6.7 2.7-10 .4-1.7.6-3.4.9-5 .2-1.7.6-3.3.7-5 .1-1.7.3-3.3.4-4.9.1-1.6 0-3.3.1-4.9.1-3.2-.3-6.3-.5-9.4-.1-1.5-.5-3-.7-4.5-.3-1.5-.4-2.9-.9-4.3-.8-2.7-1.4-5.5-2.5-7.9-.5-1.2-1-2.5-1.5-3.6-.6-1.1-1.2-2.2-1.7-3.3-1-2.2-2.4-4.1-3.6-5.9-1.1-1.9-2.6-3.3-3.8-4.7-.6-.7-1.2-1.4-1.8-2-.7-.6-1.3-1.1-1.9-1.6-1.2-1-2.2-2-3.2-2.7-1-.7-1.9-1.2-2.6-1.7-1.4-.9-2.2-1.4-2.2-1.4s.8.5 2.2 1.3c.7.4 1.6 1 2.6 1.6 1.1.6 2.1 1.6 3.3 2.6.6.5 1.3 1 1.9 1.6.7.6 1.2 1.3 1.9 2 1.3 1.4 2.8 2.8 4 4.7 1.3 1.8 2.7 3.6 3.9 5.8l1.8 3.3c.5 1.2 1 2.4 1.5 3.7 1.2 2.5 1.8 5.2 2.7 8 .5 1.4.6 2.9 1 4.4.3 1.5.7 3 .8 4.5.3 3.1.8 6.3.7 9.5.2 3.3-.1 6.6-.4 10-.1 1.7-.4 3.4-.6 5.1-.3 1.7-.4 3.4-.9 5.1-.8 3.4-1.5 6.9-2.7 10.2-2 6.9-5.1 13.5-8.3 19.8-3.7 6.3-7.5 12.4-12.2 17.8-2.2 2.8-4.8 5.3-7.2 7.8-1.2 1.3-2.6 2.3-3.9 3.5-1.3 1.1-2.5 2.3-3.9 3.3-2.7 2-5.4 4.1-8.2 5.7-2.7 1.8-5.6 3.1-8.4 4.6-1.4.7-2.9 1.2-4.2 1.8-1.4.5-2.8 1.2-4.2 1.5-2.8.8-5.5 1.7-8.2 2-1.3.2-2.6.5-3.9.7-1.3.1-2.6.2-3.8.2-2.5.3-4.8 0-7-.1-2.2 0-4.2-.5-6.1-.9-.9-.2-1.8-.3-2.7-.5-.8-.3-1.6-.5-2.4-.8-1.5-.5-2.9-.8-4-1.4-1.1-.5-2-1-2.8-1.3-1.4-.9-2.2-1.3-2.2-1.3Z" fill="#FFC747"/><path d="M168.1 72.7c.1-1.3.3-2.6.1-3.9-.3-2.1-2.4-3.9-4.5-3.2-2.7.9-3 3.5-3.2 5.9-.2 2.1 1.1 4.1 3.3 4.4 1.9.4 4.1-1.1 4.3-3.2ZM6.4 119.1c0-1.7-.3-3.6-1.4-4.7-.1-.1-.1-.3-.2-.4-.7-2-3.2-1.3-3.7.4v.1c-1.3 1.3-1.1 3.7-1 5.4.1 1.7 1.8 3 3.5 2.8 1.8-.3 2.8-1.9 2.8-3.6Zm17.5-2.4c-.1-1.1-1.8-1.1-1.9 0-.2 1.6-1.3 4.5.4 5.6.3.2.6.2.9 0 1.8-1 .8-4 .6-5.6Zm129.2-35.8v-.5c.2-3-4.3-3-4-.1v.5c.2 2.2 3.9 2.4 4 .1Z" fill="#fff"/></g><defs><linearGradient id="b" x1="44.649" y1="187.64" x2="140.052" y2="12.936" gradientUnits="userSpaceOnUse"><stop stop-color="#CD7D0A"/><stop offset=".261" stop-color="#AF5203"/><stop offset=".498" stop-color="#974B00"/><stop offset=".743" stop-color="#BC6D07"/><stop offset="1" stop-color="#D0800A"/></linearGradient><linearGradient id="c" x1="24.545" y1="75.584" x2="113.596" y2="104.987" gradientUnits="userSpaceOnUse"><stop stop-color="#FFDD40"/><stop offset="1" stop-color="#E29A0A"/></linearGradient><linearGradient id="d" x1="-36.566" y1="64.479" x2="106.997" y2="98.336" gradientUnits="userSpaceOnUse"><stop offset=".195" stop-color="#FFFF9F"/><stop offset="1" stop-color="#FFFA6D"/></linearGradient><clipPath id="a"><path fill="#fff" d="M0 0h183.2v200.1H0z"/></clipPath></defs></svg>