<svg width="1485" height="396" fill="none" xmlns="http://www.w3.org/2000/svg"><g clip-path="url(#a)" fill="#fff"><path d="M1470.9 368.5c7.4 0 13.3 6 13.3 13.3 0 7.4-6 13.3-13.3 13.3-7.4 0-13.3-6-13.3-13.3 0-7.3 5.9-13.3 13.3-13.3Zm-50-28.3c3.8 0 7 3.1 7 7 0 3.8-3.1 7-7 7-3.8 0-7-3.1-7-7 .1-3.9 3.2-7 7-7Zm-97.6-115.7c7.4 0 13.4 6 13.4 13.4s-6 13.4-13.4 13.4-13.4-6-13.4-13.4 6-13.4 13.4-13.4Zm89.7 13.4c8.23 0 14.9-6.671 14.9-14.9s-6.67-14.9-14.9-14.9-14.9 6.671-14.9 14.9 6.67 14.9 14.9 14.9Zm-50.8-69.5c4.6 0 8.3 3.7 8.3 8.3 0 4.6-3.7 8.3-8.3 8.3-4.6 0-8.3-3.7-8.3-8.3.1-4.6 3.8-8.3 8.3-8.3ZM1146.1 20.9c11.7 0 21.1 9.5 21.1 21.1 0 11.7-9.5 21.1-21.1 21.1-11.7 0-21.1-9.5-21.1-21.1 0-11.7 9.4-21.1 21.1-21.1Zm101.1-8.9c3.31 0 6-2.686 6-6s-2.69-6-6-6-6 2.686-6 6 2.69 6 6 6ZM0 268.6c0-11.7 9.5-21.1 21.1-21.1 11.7 0 21.1 9.5 21.1 21.1 0 11.6-9.5 21.1-21.1 21.1-11.6 0-21.1-9.4-21.1-21.1Zm916-70.5c15.961 0 28.9-12.939 28.9-28.9 0-15.961-12.939-28.9-28.9-28.9-15.961 0-28.9 12.939-28.9 28.9 0 15.961 12.939 28.9 28.9 28.9Zm-49.1-89.2c0 6.5-5.3 11.8-11.8 11.8-6.5 0-11.8-5.3-11.8-11.8 0-6.5 5.3-11.8 11.8-11.8 6.5-.1 11.8 5.2 11.8 11.8Zm68.7-21.7c0 5.4-4.4 9.8-9.8 9.8s-9.8-4.4-9.8-9.8 4.4-9.8 9.8-9.8 9.8 4.4 9.8 9.8Zm205.3 102.1c5.52 0 10-4.477 10-10s-4.48-10-10-10-10 4.477-10 10 4.48 10 10 10Z"/></g><defs><clipPath id="a"><path fill="#fff" d="M0 0h1484.2v395.2H0z"/></clipPath></defs></svg>