<svg width="105" height="121" fill="none" xmlns="http://www.w3.org/2000/svg"><g clip-path="url(#a)"><path d="M99.6 109.8c10.1-8-.8-38.5-24.4-68.1-23.6-29.6-50.8-47-60.9-38.9-1.7 1.3-8.1 6.4-9.8 7.8-10.1 8 .8 38.5 24.4 68.1 23.6 29.6 50.8 47 60.9 38.9 1.7-1.4 8.1-6.5 9.8-7.8Z" fill="url(#b)"/><path d="M28.3 79.1C4.1 48.7-6.5 18.4 4.1 9.9l9.8-7.8c10.6-8.4 37.8 8.7 62 39.1 24.2 30.3 34.8 60.7 24.2 69.1l-9.8 7.8c-10.6 8.5-37.8-8.7-62-39Zm46.3-36.9C51.4 13 24.6-4.4 14.8 3.4L5 11.2C-4.7 19 6.2 49 29.5 78.2c23.2 29.2 50.1 46.6 59.8 38.8l9.8-7.8c9.7-7.8-1.2-37.8-24.5-67Z" fill="#AB6004"/><path d="M14.3 2.8c-10.1 8 .8 38.5 24.4 68.1 23.6 29.6 50.8 47 60.9 38.9 10.1-8-.8-38.5-24.4-68.1-23.6-29.6-50.8-47-60.9-38.9Z" fill="url(#c)"/><path d="M38.1 71.3C13.9 41 3.3 10.6 13.9 2.1c10.6-8.4 37.8 8.7 62 39.1 24.2 30.3 34.8 60.7 24.2 69.1-10.6 8.5-37.8-8.7-62-39Zm36.5-29.1C51.4 13 24.6-4.4 14.8 3.4 5 11.2 16 41.2 39.3 70.4c23.2 29.2 50.1 46.6 59.8 38.8 9.7-7.8-1.2-37.8-24.5-67Z" fill="#FFED8B"/><path d="M101.2 108.1c7.2-10-3.8-38.6-25.9-66.4-22.2-27.8-47.6-44.8-59-40.1l84.9 106.5Z" fill="url(#d)"/><path d="M72.8 43.6C52.9 18.7 29.8 4 21.2 10.9c-3.3 2.6-4 7.9-2.6 14.8-.8-5.4.1-9.5 2.8-11.7 8.1-6.5 30.1 7.6 49.1 31.4 19 23.8 27.8 48.4 19.6 54.8-2.7 2.1-6.9 2-12 .1 6.4 2.9 11.8 3.4 15 .8 8.7-6.7-.4-32.5-20.3-57.5Z" fill="#CA7A11"/><path d="M21.2 11.4s-.4.3-1 1-1.3 1.9-1.6 3.6c-.8 3.4-.1 8.5 1.7 14.2 1.8 5.7 4.8 12 8.6 18.5 3.7 6.5 8.3 13.1 13.3 19.3 5 6.3 10.4 12.2 15.8 17.3 5.5 5.1 11 9.5 16.1 12.5 5.1 3.1 9.9 4.8 13.4 4.8 1.7 0 3.1-.4 3.9-.8.4-.2.7-.4.9-.5-.2.1-.5.4-.9.6-.8.5-2.2.9-3.9 1-3.6.1-8.6-1.4-13.8-4.4-5.3-3-11-7.2-16.5-12.3-5.6-5.1-11.1-11-16.1-17.3-5-6.3-9.5-13-13.3-19.5-3.7-6.6-6.6-13.1-8.3-18.9-1.8-5.8-2.1-11-1.2-14.4.4-1.7 1.2-2.9 1.8-3.6.3-.4.6-.6.8-.8l.3-.3Z" fill="#FFC747"/><path d="M41 72.7c-.4-.9-.9-1.7-1.5-2.5-1.4-1.9-4.2.2-2.6 2 .7.8 1.5 1.6 2.4 2.2 1.1.8 2.1-.7 1.7-1.7Zm36.2-30.9c.1-.5-.1-.9-.4-1.4-1.5-2.2-4.6.2-2.8 2.2.2.2.4.4.6.5 0 0 1.3.5.7.2.9.5 2.2-.3 1.9-1.5Z" fill="#fff"/></g><defs><linearGradient id="b" x1="9.131" y1="6.266" x2="94.712" y2="113.686" gradientUnits="userSpaceOnUse"><stop stop-color="#CD7D0A"/><stop offset=".261" stop-color="#AF5203"/><stop offset=".498" stop-color="#974B00"/><stop offset=".743" stop-color="#BC6D07"/><stop offset="1" stop-color="#D0800A"/></linearGradient><linearGradient id="c" x1="71.123" y1="40.043" x2="49.748" y2="64.554" gradientUnits="userSpaceOnUse"><stop stop-color="#FFDD40"/><stop offset="1" stop-color="#E29A0A"/></linearGradient><linearGradient id="d" x1="87.651" y1="15.206" x2="46.898" y2="71.117" gradientUnits="userSpaceOnUse"><stop offset=".195" stop-color="#FFFF9F"/><stop offset="1" stop-color="#FFFA6D"/></linearGradient><clipPath id="a"><path fill="#fff" d="M0 0h104.2v120.3H0z"/></clipPath></defs></svg>