<svg width="1163" height="1002" fill="none" xmlns="http://www.w3.org/2000/svg"><g clip-path="url(#a)" fill="#FDFAA4" fill-opacity=".36"><path d="M629.3 225.1c3.2 22.2 6.9 53.9 12.3 85.3 8.1 46.6 52.7 51.1 79.7 29.7 28.8-22.8 56.4-48.4 79.2-77.1 31.3-39.4 65.5-72.3 114.9-86.7 58.4-17 115.9-9.3 166 20.8 43.9 26.4 79.3 64.9 81.2 122.8.9 27.4-13.8 47.8-25.9 69.9-31.7 58-83 81.9-146.1 83.4-37.6.8-75.2-2.1-112.8-3.1-30.6-.8-60.2 6.8-85.4 22.5-44.6 27.9-56.2 61.6-31.2 108.6 14 26.2 37 41.4 62.7 53.9 36.9 18 74 35.6 110 55.2 35.3 19.2 68 42.8 90.8 76.6 32.6 48.4 40.7 120-6 162.8-28.2 25.8-64.9 36.6-102 40.1-73.3 6.9-118.5-21.3-147.8-88.8-23-52.9-53.5-101.3-88.4-147-18.7-24.5-43-22.9-62.3 4-19.6 27.2-27.4 58.8-32.8 91.2-3.6 21.6-6.8 43.3-11.5 64.7-16.1 72.5-65.4 91.8-130.8 87.2-23.6-1.7-48-12.2-69-24-39.3-22.1-55.8-63.6-47.2-108.2 17.2-89.3 62.6-160.2 138.9-210.6 3.8-2.5 7.4-5.1 11.2-7.6 11.1-7.5 10.9-15.5 1.9-24.9-34.1-35.7-74.2-50.1-123.6-39.6-57.7 12.3-115.4 25.8-173.9 32.6-31.9 3.7-67.4.4-97.6-10.2-88.3-30.9-110.3-129.2-49-200.2 40.3-46.7 90.5-49.5 144.8-36.6 52.5 12.4 104.5 27.2 157.1 38.9 30.7 6.9 61.7 4 90.3-11.1 24.4-12.9 30.2-27.5 27.6-55.3-5.7-61.8-34.9-115.9-54.3-173.3-11.4-33.7-19.8-67-10.3-102.5 14.5-54.1 44-74.7 99.2-66.9 43.6 6.1 75 30.3 102.3 64.8 35.5 44.7 44.6 94.4 37.8 158.7Zm305.9 187.7c41.2 5.1 94.9-6.9 125.5-24.3 49.1-28 57.2-88.6 17.9-128.7-25-25.5-56.8-34.3-90.3-35.9-68.4-3.4-122.7 25.3-166.8 76.6-23.4 27.2-47.3 54.5-74 78.4-21.9 19.6-46.8 37.2-73 50.5-37.3 18.9-72.5 6.1-85.6-31.8-9.6-27.6-14.6-57.9-15.3-87.1-.7-30 6-60.3 10-90.3 4.8-36 1.8-70.8-14.7-103.6-12.1-24-29.7-42.2-55.9-50.8-26.1-8.6-46.3 1.7-56.6 27.3-11.1 27.7-6 54.4 4.4 80.4 11.8 29.8 26.1 58.6 38.2 88.2 16.4 40.1 34.1 80.7 31.2 125-4.3 65.3-38.1 109-108.7 106.5-30.5-1.1-61.2-7.7-91.1-14.9-51.9-12.4-103-27.9-154.9-40.6-33.7-8.3-67.1-6.7-97.2 14-30.7 21.1-31 58.8-.8 80.6 2.7 2 5.7 3.7 8.2 5.9 28.3 25.1 61.1 35.7 98.2 27.4 51-11.4 101.2-26.2 152.4-36.4 45.8-9.1 92.6-13.1 138.7.6 44.9 13.4 78.5 57.5 76.6 99.3-1 22.9-15.9 38.4-29.7 53.4-32.3 35.1-66.7 68.3-99.1 103.4-11.6 12.6-21.5 27.7-29.1 43.1-16.3 32.9-6.7 71.1 22.1 87.8 34.9 20.2 66.6 18 94-12.8 21.5-24.3 30.5-53.3 35.3-84.3 5.8-37.7 9.5-75.9 17.7-113.1 9.8-44.2 55.5-66.2 97.8-49.5 37.8 14.9 65.8 41.8 83.9 77.2 17 33.4 30.3 68.8 44.7 103.6 20.8 50.2 59.5 79.3 110.5 92.8 29.2 7.8 62.8-10.2 75.4-37.9 17-37.1 4.9-84.9-29.8-116.1-43-38.6-91.1-69.3-143.2-94.3-31.9-15.3-62.7-33-93.2-51-27.2-16-44.2-39.9-45.8-72.5-3.4-69.8 48.3-132.9 117.4-139.4 51.4-4.5 103.1-4.6 154.7-6.7Z"/><path d="M640.8 527.2c0 26.3-14.1 46.7-36.9 53.8-11.8 3.6-22.5 1.1-31.9-5.9-25.8-19.3-26.9-65.3-2.2-85.6 13.8-11.4 29-9.6 44.1-3 16.5 7.2 26.9 23.2 26.9 40.7Zm-32 2.3c-.9-9-5.8-15.4-16.1-16-8.7-.5-16.4 8.2-16.6 18-.2 9.6 8.3 20.7 16 20.9 6.9.1 16.8-12.8 16.7-22.9Z"/></g><defs><clipPath id="a"><path fill="#fff" d="M0 0h1162.6v1001.6H0z"/></clipPath></defs></svg>