<svg width="969" height="835" fill="none" xmlns="http://www.w3.org/2000/svg"><g clip-path="url(#a)" fill="#00CAEA" fill-opacity=".35"><path d="M524.4 187.5c2.6 18.5 5.8 44.9 10.3 71.1 6.7 38.8 43.9 42.6 66.4 24.7 24-19 47-40.4 66-64.3 26.1-32.8 54.6-60.2 95.7-72.3 48.6-14.2 96.6-7.8 138.3 17.3 36.6 22 66.1 54.1 67.6 102.4.7 22.8-11.5 39.8-21.6 58.3C920.7 373 878 393 825.4 394.2c-31.3.7-62.7-1.8-94-2.6-25.5-.7-50.1 5.6-71.2 18.8-37.1 23.2-46.8 51.4-26 90.5 11.6 21.9 30.8 34.5 52.3 44.9 30.7 15 61.7 29.7 91.7 46 29.4 16 56.7 35.6 75.7 63.8 27.2 40.3 33.9 100-5 135.6-23.5 21.5-54.1 30.5-85 33.4-61.1 5.8-98.7-17.8-123.2-74-19.2-44.1-44.6-84.4-73.7-122.5-15.6-20.4-35.8-19.1-51.9 3.3-16.3 22.7-22.8 49-27.3 76-3 18-5.7 36.1-9.6 53.9-13.4 60.4-54.5 76.5-109 72.7-19.6-1.4-40-10.1-57.5-20-32.7-18.4-46.5-53-39.3-90.2 14.4-74.4 52.1-133.5 115.8-175.5l9.3-6.3c9.3-6.3 9.1-12.9 1.6-20.8-28.4-29.7-61.9-41.8-103-33-48.1 10.3-96.2 21.5-144.9 27.2-26.6 3.1-56.2.3-81.4-8.5C-3.8 481.1-22.1 399.3 29 340c33.6-38.9 75.4-41.2 120.7-30.5 43.7 10.4 87 22.6 130.9 32.4 25.6 5.7 51.4 3.3 75.2-9.3 20.4-10.8 25.2-22.9 23-46.1-4.8-51.5-29.1-96.6-45.2-144.4-9.4-27.9-16.5-55.7-8.6-85.2 12.1-44.9 36.7-62 82.6-55.6 36.3 5.1 62.5 25.3 85.3 54 29.6 37.3 37.2 78.7 31.5 132.2ZM779.3 344c34.3 4.3 79.1-5.7 104.6-20.3 41-23.4 47.7-73.9 14.9-107.3-20.9-21.3-47.3-28.6-75.2-29.9-57-2.8-102.2 21.1-139 63.9-19.5 22.7-39.4 45.4-61.7 65.4-18.3 16.4-39 31-60.8 42.1-31.1 15.8-60.4 5.1-71.3-26.5-8-23-12.2-48.2-12.8-72.6-.6-25 5-50.2 8.3-75.3 4-30 1.5-59-12.2-86.3-10.1-20-24.8-35.1-46.6-42.3-21.8-7.2-38.6 1.4-47.2 22.8-9.3 23.1-5 45.4 3.6 67 9.9 24.8 21.7 48.8 31.8 73.5 13.7 33.4 28.4 67.3 26 104.1-3.6 54.5-31.7 90.9-90.6 88.8-25.4-.9-51-6.4-75.9-12.4-43.3-10.3-85.9-23.3-129.1-33.9-28.1-6.9-55.9-5.6-81 11.6-25.6 17.6-25.8 49-.7 67.2 2.3 1.6 4.7 3.1 6.8 4.9 23.6 20.9 50.9 29.8 81.8 22.9 42.5-9.5 84.3-21.8 127-30.3 38.2-7.6 77.1-10.9 115.6.5 37.4 11.1 65.4 47.9 63.8 82.8-.9 19.1-13.2 32-24.7 44.5-26.9 29.3-55.6 56.9-82.5 86.1-9.7 10.5-17.9 23.1-24.3 36-13.6 27.4-5.6 59.3 18.4 73.2 29.1 16.8 55.5 15 78.3-10.7 17.9-20.2 25.4-44.4 29.4-70.2 4.8-31.4 7.9-63.3 14.8-94.3 8.2-36.9 46.2-55.1 81.5-41.2 31.5 12.4 54.8 34.8 69.9 64.4 14.2 27.9 25.3 57.3 37.3 86.3 17.4 41.8 49.6 66.1 92.1 77.4 24.4 6.5 52.3-8.5 62.8-31.6 14.1-30.9 4.1-70.8-24.8-96.7-35.8-32.2-75.9-57.8-119.3-78.6-26.6-12.8-52.3-27.5-77.7-42.5-22.7-13.4-36.8-33.3-38.2-60.4-2.8-58.1 40.3-110.8 97.8-116.2 43-4 86.1-4.1 129.1-5.9Z"/><path d="M541.2 432.7c0 28.4-15.3 50.5-39.9 58.1-12.8 3.9-24.3 1.2-34.5-6.4-27.8-20.8-29.1-70.5-2.4-92.5 14.9-12.3 31.4-10.3 47.7-3.3 17.9 7.9 29 25.2 29.1 44.1Zm-34.6 2.4c-1-9.7-6.2-16.6-17.3-17.3-9.4-.6-17.7 8.9-18 19.5-.3 10.4 8.9 22.4 17.2 22.5 7.6.2 18.2-13.7 18.1-24.7Z"/></g><defs><clipPath id="a"><path fill="#fff" d="M0 0h968.8v834.7H0z"/></clipPath></defs></svg>