<svg width="93" height="58" fill="none" xmlns="http://www.w3.org/2000/svg"><g clip-path="url(#a)" fill-rule="evenodd" clip-rule="evenodd"><path d="M79.777 58c3.446-.031 6.749-3.06 9.196-8.436 2.49-5.374 3.933-12.689 4.024-20.386.038-3.788-.263-7.556-.887-11.084-.624-3.528-1.558-6.747-2.748-9.47-1.183-2.722-2.601-4.889-4.17-6.37C83.621.771 81.933.004 80.227 0H12.751c-1.708-.004-3.397.756-4.969 2.235-1.57 1.478-2.99 3.645-4.174 6.369-1.186 2.73-2.115 5.955-2.733 9.487-.619 3.532-.915 7.3-.87 11.087.086 7.708 1.53 15.035 4.023 20.416 2.447 5.37 5.751 8.39 9.196 8.406h66.553Z" fill="url(#b)"/><path style="mix-blend-mode:screen" d="M45.988 5c-11.69 0-21.576.396-31.555 1.512-2.714.304-5.227 2.471-6.99 6.878-.88 2.182-1.546 4.755-1.954 7.552a49.078 49.078 0 0 0-.456 8.74c.112 3.02.476 5.967 1.073 8.686.6 2.735 1.424 5.195 2.426 7.256 1.974 4.018 4.527 6.308 7.192 6.454C25.268 52.88 36.505 53 46 53c9.495 0 20.732-.092 30.272-.922 2.667-.143 5.221-2.434 7.196-6.454 1.001-2.063 1.824-4.523 2.426-7.256.597-2.72.961-5.666 1.073-8.686a49.065 49.065 0 0 0-.456-8.74c-.408-2.797-1.073-5.37-1.953-7.552-1.777-4.407-4.293-6.574-6.99-6.878C67.587 5.396 57.702 5 46.011 5h-.024Z" fill="url(#c)"/><path style="mix-blend-mode:screen" opacity=".75" d="M46.5 41c-10.516 0-23.276.49-33.465 4.412-2.318.923-3.045 4.265-.096 5.225C17.89 52.252 32.572 53 46.5 53c13.929 0 28.606-.748 33.562-2.363 2.945-.923 2.221-4.33-.097-5.225C69.777 41.49 57.022 41 46.501 41Z" fill="url(#d)"/><path style="mix-blend-mode:screen" d="M46 52c27.73 0 31-.935 31-1.947C77 49.043 63.114 49 46 49s-31 .042-31 1.053C15 51.065 18.257 52 46 52Z" fill="url(#e)"/><path style="mix-blend-mode:screen" d="M46.504 31c-12.67 0-32.856-3.003-37.711-6.977-1.178-.916-2.599-3.755-1.236-8.241 1.647-5.33 4.39-7.692 7.31-8.241C25.14 5.764 36.208 6.01 46.503 6.01c10.294 0 21.375-.247 31.62 1.557 2.92.513 5.666 2.876 7.305 8.241 1.384 4.496-.037 7.325-1.214 8.241C79.372 27.997 59.186 31 46.504 31Z" fill="url(#f)"/><path style="mix-blend-mode:screen" opacity=".37" d="M46.5 7C79.832 7 82 9.333 82 11.705 82 14.078 66.107 16 46.5 16S11 14.078 11 11.705C11 9.333 14.744 7 46.5 7Z" fill="url(#g)"/></g><defs><radialGradient id="c" cx="0" cy="0" r="1" gradientUnits="userSpaceOnUse" gradientTransform="matrix(79.3399 0 0 177.902 47.39 -57.77)"><stop stop-color="#FF8000"/><stop offset="1"/></radialGradient><radialGradient id="d" cx="0" cy="0" r="1" gradientUnits="userSpaceOnUse" gradientTransform="matrix(99.3907 0 0 218.086 48.844 122.72)"><stop stop-color="#FF8C00"/><stop offset="1"/></radialGradient><radialGradient id="e" cx="0" cy="0" r="1" gradientUnits="userSpaceOnUse" gradientTransform="matrix(82.1687 0 0 164.553 47.595 87.697)"><stop stop-color="#FFFF45"/><stop offset="1"/></radialGradient><radialGradient id="f" cx="0" cy="0" r="1" gradientUnits="userSpaceOnUse" gradientTransform="matrix(75.3932 0 0 167.648 45.342 -23.628)"><stop stop-color="#FF8C00"/><stop offset="1"/></radialGradient><radialGradient id="g" cx="0" cy="0" r="1" gradientUnits="userSpaceOnUse" gradientTransform="matrix(88.1212 0 0 213.267 47.381 -58.633)"><stop stop-color="#FFFF45"/><stop offset="1"/></radialGradient><linearGradient id="b" x1="46.514" y1="58" x2="46.514" y2="0" gradientUnits="userSpaceOnUse"><stop stop-color="#FF9C00"/><stop offset=".08" stop-color="#F07A00"/><stop offset=".16" stop-color="#E66200"/><stop offset=".24" stop-color="#DF5300"/><stop offset=".3" stop-color="#DD4E00"/><stop offset="1" stop-color="#FFBF43"/></linearGradient><clipPath id="a"><rect width="93" height="58" rx="29" fill="#fff"/></clipPath></defs></svg>