<svg width="705" height="608" fill="none" xmlns="http://www.w3.org/2000/svg"><g clip-path="url(#a)" fill="#00CAEA"><path d="M381.4 136.4c1.9 13.5 4.2 32.7 7.5 51.7 4.9 28.2 31.9 31 48.3 18 17.5-13.8 34.2-29.4 48-46.7 19-23.9 39.7-43.8 69.6-52.5 35.4-10.3 70.3-5.7 100.6 12.6 26.6 16 48.1 39.3 49.2 74.4.5 16.6-8.4 29-15.7 42.4-19.2 35.1-50.3 49.7-88.6 50.5-22.8.5-45.6-1.3-68.4-1.9-18.6-.5-36.5 4.1-51.8 13.7-27 16.9-34.1 37.4-18.9 65.8 8.5 15.9 22.4 25.1 38 32.7 22.4 10.9 44.9 21.6 66.7 33.5 21.4 11.6 41.2 25.9 55 46.4 19.8 29.3 24.6 72.7-3.6 98.7-17.1 15.7-39.4 22.2-61.8 24.3-44.5 4.2-71.8-12.9-89.6-53.8-14-32.1-32.4-61.4-53.6-89.1-11.3-14.8-26-13.9-37.8 2.4-11.9 16.5-16.6 35.6-19.9 55.3-2.2 13.1-4.1 26.3-7 39.2-9.7 43.9-39.7 55.6-79.3 52.8-14.3-1-29.1-7.4-41.8-14.5-23.8-13.4-33.8-38.6-28.6-65.6 10.4-54.1 37.9-97.1 84.2-127.7 2.3-1.5 4.5-3.1 6.8-4.6 6.8-4.6 6.6-9.4 1.2-15.1-20.7-21.6-45-30.4-74.9-24-35 7.5-70 15.7-105.4 19.8-19.3 2.2-40.9.2-59.2-6.2C-2.8 350-16.1 290.5 21 247.4c24.4-28.3 54.9-30 87.8-22.2 31.8 7.5 63.3 16.5 95.2 23.6 18.6 4.2 37.4 2.4 54.7-6.7 14.8-7.8 18.3-16.7 16.7-33.5-3.5-37.4-21.2-70.3-32.9-105-6.9-20.3-12-40.5-6.2-62C245.1 8.7 263-3.7 296.5 1c26.4 3.7 45.5 18.4 62 39.3 21.5 27.1 27 57.2 22.9 96.1Zm185.4 113.8c24.9 3.1 57.5-4.2 76.1-14.8 29.8-17 34.7-53.7 10.8-78-15.2-15.5-34.4-20.8-54.7-21.8-41.4-2.1-74.4 15.4-101.1 46.4-14.2 16.5-28.7 33-44.8 47.5-13.3 11.9-28.4 22.6-44.2 30.6-22.6 11.5-43.9 3.7-51.9-19.2-5.8-16.7-8.9-35.1-9.3-52.8-.4-18.2 3.6-36.5 6.1-54.8 2.9-21.8 1.1-42.9-8.9-62.8-7.3-14.5-18-25.5-33.9-30.8-15.8-5.2-28 1-34.3 16.6-6.8 16.8-3.6 33 2.7 48.7 7.2 18 15.8 35.5 23.1 53.5 9.9 24.3 20.6 48.9 18.9 75.7-2.6 39.6-23.1 66.1-65.9 64.6-18.5-.7-37.1-4.7-55.2-9-31.5-7.5-62.5-16.9-93.9-24.6-20.4-5-40.7-4.1-58.9 8.5-18.6 12.8-18.8 35.6-.5 48.9 1.7 1.2 3.4 2.2 5 3.6 17.1 15.2 37.1 21.7 59.5 16.6 30.9-6.9 61.3-15.9 92.4-22 27.8-5.5 56.1-7.9 84 .4 27.2 8.1 47.6 34.8 46.4 60.2-.6 13.9-9.6 23.3-18 32.3-19.6 21.3-40.4 41.4-60 62.6-7.1 7.7-13 16.8-17.6 26.1-9.9 20-4.1 43.1 13.4 53.2 21.1 12.3 40.4 10.9 56.9-7.8 13-14.7 18.5-32.3 21.4-51.1 3.5-22.9 5.7-46 10.7-68.6 6-26.8 33.6-40.1 59.3-30 22.9 9 39.9 25.3 50.8 46.8 10.3 20.3 18.4 41.7 27.1 62.8 12.6 30.4 36.1 48.1 67 56.3 17.7 4.7 38-6.2 45.7-23 10.3-22.5 3-51.5-18.1-70.4-26.1-23.4-55.2-42-86.8-57.2-19.3-9.3-38-20-56.5-30.9-16.5-9.7-26.8-24.2-27.8-43.9-2.1-42.3 29.3-80.6 71.1-84.5 31.3-2.6 62.7-2.6 93.9-3.9Z"/><path d="M393.6 314.7c0 20.7-11.1 36.7-29 42.3-9.3 2.9-17.7.9-25.1-4.7-20.2-15.2-21.1-51.3-1.8-67.2 10.8-8.9 22.8-7.5 34.7-2.4 13.1 5.7 21.2 18.3 21.2 32Zm-25.1 1.8c-.7-7-4.5-12.1-12.6-12.6-6.8-.4-12.9 6.4-13.1 14.2-.2 7.5 6.5 16.3 12.5 16.4 5.5.1 13.2-10.1 13.2-18Z"/></g><defs><clipPath id="a"><path fill="#fff" d="M0 0h704.6v607.1H0z"/></clipPath></defs></svg>