<svg width="943" height="281" fill="none" xmlns="http://www.w3.org/2000/svg"><g clip-path="url(#a)" fill="#fff"><path d="M773.8 237c11.9 0 21.6 9.7 21.6 21.6 0 11.9-9.7 21.6-21.6 21.6-11.9 0-21.6-9.7-21.6-21.6 0-11.9 9.7-21.6 21.6-21.6Zm144.6 21.6c13.255 0 24-10.745 24-24s-10.745-24-24-24c-13.254 0-24 10.745-24 24s10.746 24 24 24Zm-81.8-111.9c7.4 0 13.3 6 13.3 13.3 0 7.4-6 13.3-13.3 13.3-7.4 0-13.3-6-13.3-13.3 0-7.3 6-13.3 13.3-13.3Zm-719.2 47.9c25.736 0 46.6-20.864 46.6-46.6 0-25.737-20.864-46.6-46.6-46.6-25.737 0-46.6 20.863-46.6 46.6 0 25.736 20.863 46.6 46.6 46.6ZM38.2 50.7c0 10.5-8.5 19.1-19.1 19.1C8.5 69.8 0 61.2 0 50.7c0-10.5 8.5-19.1 19.1-19.1 10.5 0 19.1 8.5 19.1 19.1ZM149 15.8c0 8.7-7.1 15.8-15.8 15.8-8.7 0-15.8-7.1-15.8-15.8 0-8.7 7.1-15.8 15.8-15.8 8.7 0 15.8 7.1 15.8 15.8Zm330.9 164.6c8.947 0 16.2-7.253 16.2-16.2s-7.253-16.2-16.2-16.2-16.2 7.253-16.2 16.2 7.253 16.2 16.2 16.2Z"/></g><defs><clipPath id="a"><path fill="#fff" d="M0 0h942.4v280.2H0z"/></clipPath></defs></svg>