<svg width="1009" height="795" fill="none" xmlns="http://www.w3.org/2000/svg"><g clip-path="url(#a)" fill="#00F" fill-opacity=".36"><path d="M270.5 44.1c71.7-15 140.7-29.6 209.9-43.8 4.3-.9 10.2.2 13.9 2.6 170.4 111.4 340.7 223 510.9 334.5.7.5 1.3 1.3 2.9 2.8-3.3 1.2-5.9 2.5-8.8 3.1-66 13.8-131.9 27.7-197.9 41.1-5.2 1-12.2 0-16.5-2.8C615.7 271.1 446.6 160.2 277.5 49.4c-1.8-1.2-3.5-2.6-7-5.3ZM0 453.5c25.9-5.1 48-9.3 70-13.8 45.6-9.4 91.2-19.2 136.9-28.1 6.4-1.2 15-.4 20.2 3C395.7 524.5 564 634.9 732.3 745.2c2.2 1.4 4.2 3 9.2 6.6-13 2.5-23.1 4.4-33.2 6.5-57.8 12-115.6 24.3-173.6 35.8-6.4 1.3-14.9.1-20.2-3.3C346 680.9 177.7 570.5 9.3 460.2c-1.9-1.2-3.7-2.6-9.3-6.7Zm221.5-335.9c31.9 20.9 60.3 39.5 88.7 58.1 141.4 92.6 282.7 185.2 423.9 278 4.9 3.2 10.1 8.8 11.3 14.2 14.4 66.3 28.1 132.7 41.9 199.1.4 2.1.6 4.3 1.5 10.1-9.4-6.2-16.5-10.8-23.5-15.4C611.6 561 458.4 459.5 303.8 360.2c-27.1-17.4-41.5-36.6-46.7-68.5-9.2-56.9-22.8-113-35.6-174.1Z"/></g><defs><clipPath id="a"><path fill="#fff" d="M0 0h1008.1v794.6H0z"/></clipPath></defs></svg>