<svg width="121" height="124" fill="none" xmlns="http://www.w3.org/2000/svg"><g clip-path="url(#a)"><path d="M106.5 3.6C96.4-6 65.3 10.1 37 39.7 8.7 69.2-6 101 4 110.7c1.7 1.6 8.1 7.7 9.8 9.4 10.1 9.7 41.2-6.5 69.5-36 28.3-29.6 43.1-61.4 33-71-1.7-1.7-8.1-7.8-9.8-9.5Z" fill="url(#b)"/><path d="M22 123.7c-3.7 0-6.7-1-8.8-3l-9.8-9.4c-10.6-10.1 3.9-41.9 32.9-72.2C58.8 15.7 83.7 0 98.3 0c3.7 0 6.7 1 8.8 3l9.8 9.4C127.5 22.5 113 54.3 84 84.6c-22.4 23.4-47.3 39.1-62 39.1Zm76.3-122c-14.2 0-38.6 15.5-60.7 38.6-27.9 29.2-42.7 60.5-33 69.8l9.8 9.4c1.8 1.7 4.3 2.6 7.6 2.6 14.2 0 38.6-15.5 60.7-38.6 27.9-29.2 42.7-60.5 33-69.8l-9.8-9.4c-1.7-1.7-4.3-2.6-7.6-2.6Z" fill="#D68D1A"/><path d="M4 110.7c10.1 9.7 41.2-6.5 69.5-36 28.3-29.6 43.1-61.4 33-71C96.4-6 65.3 10.1 37 39.7 8.7 69.2-6 101 4 110.7Z" fill="url(#c)"/><path d="M12.3 114.3c-3.7 0-6.7-1-8.8-3-10.6-10.1 3.9-41.9 32.9-72.2C58.8 15.7 83.7 0 98.3 0c3.7 0 6.7 1 8.8 3 5.2 4.9 4.5 15.2-1.9 29-6.3 13.5-17.3 28.8-31 43.2-22.4 23.4-47.3 39.1-61.9 39.1Zm86-112.6c-14.2 0-38.6 15.5-60.7 38.6-27.9 29.2-42.7 60.5-33 69.8 1.8 1.7 4.3 2.6 7.6 2.6 14.2 0 38.6-15.5 60.7-38.6 13.6-14.2 24.5-29.4 30.7-42.7 6-12.9 6.8-22.7 2.3-27.1-1.7-1.7-4.3-2.6-7.6-2.6Z" fill="#FFED8B"/><path d="M39.5 42C15.6 67 3.2 93.9 11.8 102.1c3.3 3.1 9.1 3.1 16.3.6-5.7 1.6-10.2 1.3-12.9-1.3-8.1-7.7 3.8-33.3 26.6-57.2 22.8-23.9 47.9-36.8 56-29 2.7 2.6 3.2 7.1 1.8 12.9 2.2-7.3 2-13.1-1.3-16.3-8.6-8.3-35 5.3-58.8 30.2Z" fill="#FFD12E"/><path d="M71.1 74.8c-.7.2-1.3.5-1.8.9-2.3 1.9.2 5.3 2.7 3.7.6-.4 1-.9 1.5-1.4 1.2-1.6-.5-3.9-2.4-3.2Z" fill="#fff"/></g><defs><linearGradient id="b" x1="15.164" y1="108.855" x2="100.623" y2="19.59" gradientUnits="userSpaceOnUse"><stop stop-color="#F3B80C"/><stop offset=".165" stop-color="#FDCF16"/><stop offset=".169" stop-color="#FED74C"/><stop offset=".479" stop-color="#FFEDA2"/><stop offset=".801" stop-color="#FFE268"/><stop offset=".805" stop-color="#FFD31C"/><stop offset="1" stop-color="#EFB60C"/></linearGradient><linearGradient id="c" x1="43.119" y1="45.521" x2="65.478" y2="66.927" gradientUnits="userSpaceOnUse"><stop stop-color="#CB7B11"/><stop offset="1" stop-color="#E29A0A"/></linearGradient><clipPath id="a"><path fill="#fff" d="M0 0h120.3v123.7H0z"/></clipPath></defs></svg>