<svg width="1900" height="932" fill="none" xmlns="http://www.w3.org/2000/svg"><g clip-path="url(#a)" fill="#fff"><path d="M914.2 498.3c0 7.2-5.9 13.1-13.1 13.1-7.2 0-13.1-5.9-13.1-13.1 0-7.2 5.9-13.1 13.1-13.1 7.2.1 13.1 5.9 13.1 13.1Zm27.8-49.1c0 3.8-3.1 6.8-6.8 6.8-3.8 0-6.8-3.1-6.8-6.8 0-3.8 3.1-6.8 6.8-6.8 3.8 0 6.8 3.1 6.8 6.8Zm113.7-95.9c0 7.3-5.9 13.2-13.2 13.2-7.3 0-13.2-5.9-13.2-13.2 0-7.3 5.9-13.2 13.2-13.2 7.3.1 13.2 6 13.2 13.2Zm1.5 102.8c8.06 0 14.6-6.537 14.6-14.6 0-8.063-6.54-14.6-14.6-14.6-8.06 0-14.6 6.537-14.6 14.6 0 8.063 6.54 14.6 14.6 14.6Zm53.5-64.5c0 4.5-3.6 8.1-8.1 8.1s-8.1-3.6-8.1-8.1 3.6-8.1 8.1-8.1 8.1 3.6 8.1 8.1Zm144.9-212.3c0 11.5-9.3 20.8-20.8 20.8s-20.8-9.3-20.8-20.8 9.3-20.8 20.8-20.8c11.6 0 20.8 9.3 20.8 20.8Zm14.7 105.1c3.2 0 5.8-2.597 5.8-5.8s-2.6-5.8-5.8-5.8c-3.2 0-5.8 2.597-5.8 5.8s2.6 5.8 5.8 5.8Zm73.4 218.4c0 9.7-7.8 17.5-17.5 17.5s-17.5-7.8-17.5-17.5 7.8-17.5 17.5-17.5c9.6 0 17.5 7.8 17.5 17.5Zm-41.1-36.2c0 5.8-4.7 10.5-10.5 10.5s-10.5-4.7-10.5-10.5 4.7-10.5 10.5-10.5 10.5 4.7 10.5 10.5ZM428.4 905c7.3 0 13.2 5.9 13.2 13.2 0 7.3-5.9 13.2-13.2 13.2-7.3 0-13.2-5.9-13.2-13.2 0-7.3 5.9-13.2 13.2-13.2Zm88.1 13.2c8.064 0 14.6-6.537 14.6-14.6 0-8.063-6.536-14.6-14.6-14.6-8.063 0-14.6 6.537-14.6 14.6 0 8.063 6.537 14.6 14.6 14.6ZM466.6 850c4.5 0 8.1 3.6 8.1 8.1s-3.6 8.1-8.1 8.1-8.1-3.6-8.1-8.1 3.7-8.1 8.1-8.1ZM254.4 705.1c11.5 0 20.8 9.3 20.8 20.8s-9.3 20.8-20.8 20.8-20.8-9.3-20.8-20.8 9.3-20.8 20.8-20.8Zm99.3-8.9a5.8 5.8 0 1 0 0-11.6 5.8 5.8 0 0 0 0 11.6Zm224.1-79.1c9.7 0 17.5 7.8 17.5 17.5s-7.8 17.5-17.5 17.5-17.5-7.8-17.5-17.5 7.8-17.5 17.5-17.5Zm-36.2 41.1c5.8 0 10.5 4.7 10.5 10.5s-4.7 10.5-10.5 10.5-10.5-4.7-10.5-10.5 4.7-10.5 10.5-10.5ZM1834.7 481c0 11.6-9.4 21-21 21s-21-9.4-21-21 9.4-21 21-21 21 9.4 21 21Zm39.6-43.1c0 3.2-2.6 5.8-5.8 5.8-3.2 0-5.8-2.6-5.8-5.8 0-3.2 2.6-5.8 5.8-5.8 3.2 0 5.8 2.6 5.8 5.8ZM1900 537c0 10.3-8.4 18.7-18.7 18.7-10.3 0-18.7-8.4-18.7-18.7 0-10.3 8.4-18.7 18.7-18.7 10.3 0 18.7 8.4 18.7 18.7Zm-216 178.9c0 3.5-2.8 6.3-6.3 6.3s-6.3-2.8-6.3-6.3 2.8-6.3 6.3-6.3c3.5.1 6.3 2.9 6.3 6.3Zm137.7 148.3c0 10.7-8.7 19.4-19.4 19.4s-19.4-8.7-19.4-19.4 8.7-19.4 19.4-19.4 19.4 8.7 19.4 19.4ZM648.9 49c0 11.6-9.4 21-21 21s-21-9.4-21-21 9.4-21 21-21 21 9.4 21 21Zm39.7-43.2c0 3.2-2.6 5.8-5.8 5.8-3.2 0-5.8-2.6-5.8-5.8 0-3.2 2.6-5.8 5.8-5.8 3.2 0 5.8 2.6 5.8 5.8Zm25.6 99.1c0 10.3-8.4 18.7-18.7 18.7-10.3 0-18.7-8.4-18.7-18.7 0-10.3 8.4-18.7 18.7-18.7 10.3 0 18.7 8.4 18.7 18.7Zm-215.9 179c0 3.5-2.8 6.3-6.3 6.3s-6.3-2.8-6.3-6.3 2.8-6.3 6.3-6.3 6.3 2.8 6.3 6.3ZM636 432.2c0 10.7-8.7 19.4-19.4 19.4s-19.4-8.7-19.4-19.4 8.7-19.4 19.4-19.4c10.7-.1 19.4 8.6 19.4 19.4Zm-607.6 447c15.685 0 28.4-12.715 28.4-28.4 0-15.685-12.715-28.4-28.4-28.4-15.685 0-28.4 12.715-28.4 28.4 0 15.685 12.715 28.4 28.4 28.4Zm19.2-109c0 5.3-4.3 9.6-9.6 9.6s-9.6-4.3-9.6-9.6 4.3-9.6 9.6-9.6 9.6 4.3 9.6 9.6Zm201.7 100.4c5.468 0 9.9-4.433 9.9-9.9 0-5.468-4.432-9.9-9.9-9.9-5.467 0-9.9 4.432-9.9 9.9 0 5.467 4.433 9.9 9.9 9.9ZM414.5 387a8.4 8.4 0 1 0 0-16.8 8.4 8.4 0 0 0 0 16.8Z"/></g><defs><clipPath id="a"><path fill="#fff" d="M0 0h1900v931.3H0z"/></clipPath></defs></svg>