<svg xmlns="http://www.w3.org/2000/svg" xmlns:xlink="http://www.w3.org/1999/xlink" viewBox="0 0 430.09 88.46"><defs><radialGradient id="d" cx="162.05" cy="-97.87" r="291.39" gradientTransform="scale(1.37 1)" gradientUnits="userSpaceOnUse"><stop offset="0" stop-color="#ff8000"/><stop offset="1"/></radialGradient><radialGradient id="a" cx="165.37" cy="195.37" r="356.81" gradientTransform="scale(1.37 1)" gradientUnits="userSpaceOnUse"><stop offset="0" stop-color="#ff8c00"/><stop offset="1"/></radialGradient><radialGradient id="b" cx="162.67" cy="144.17" r="294.9" gradientTransform="scale(1.37 1)" gradientUnits="userSpaceOnUse"><stop offset="0" stop-color="#ffff45"/><stop offset="1"/></radialGradient><radialGradient id="e" cx="152.81" cy="-42.25" r="276.5" xlink:href="#a"/><radialGradient id="f" cx="160.17" cy="-91.21" r="321.72" xlink:href="#b"/><linearGradient id="c" x1="215.04" y1="88.46" x2="215.04" gradientUnits="userSpaceOnUse"><stop offset="0" stop-color="#ff9c00"/><stop offset=".08" stop-color="#f07a00"/><stop offset=".16" stop-color="#e66200"/><stop offset=".24" stop-color="#df5300"/><stop offset=".3" stop-color="#dd4e00"/><stop offset="1" stop-color="#ffbf43"/></linearGradient></defs><g data-name="Слой 2" style="isolation:isolate"><g data-name="Layer 1"><path d="M368.83 88.46c16 0 31.17-4.69 42.57-12.85s18.29-19.34 18.67-31.11-5.71-22.95-16.81-31.34S387 0 370.93 0h-312C43 0 27.76 4.7 16.66 13.12S-.36 32.83 0 44.5s7 22.9 18.5 31.15S45.09 88.46 61 88.46Z" style="fill:url(#c);fill-rule:evenodd"/><path d="M214.83 5c-58.78 0-108.51.6-158.69 2.43-13.64.49-26.28 4.05-35.21 11.27a33.82 33.82 0 0 0-9.83 12.37 27.54 27.54 0 0 0-2.3 14.31 31.89 31.89 0 0 0 5.41 14.23 44.44 44.44 0 0 0 12.18 11.88c10 6.74 22.88 10.19 36.19 10.55 48 1.31 104.51 1.47 152.25 1.47s104.26-.16 152.26-1.51c13.31-.36 26.21-3.81 36.19-10.55a44.58 44.58 0 0 0 12.18-11.88 32 32 0 0 0 5.41-14.23 27.45 27.45 0 0 0-2.31-14.31 33.69 33.69 0 0 0-9.82-12.37c-8.93-7.22-21.57-10.78-35.21-11.27C323.35 5.6 273.62 5 214.83 5Z" style="fill:url(#d);mix-blend-mode:screen;fill-rule:evenodd"/><path d="M214.83 61.68c-51.7 0-114.36.8-164.44 7.22-11.39 1.46-15 7-.47 8.54 24.34 2.64 96.47 3.87 164.91 3.87s140.58-1.23 164.92-3.87c14.49-1.57 10.92-7.08-.47-8.54-50.08-6.42-112.74-7.22-164.45-7.22Z" style="opacity:.75;fill:url(#a);mix-blend-mode:screen;fill-rule:evenodd"/><path d="M214.83 80.19c136.23 0 152.3-1.67 152.3-3.49s-68.19-1.88-152.3-1.88-152.29.06-152.29 1.88 16.07 3.49 152.29 3.49Z" style="fill:url(#b);mix-blend-mode:screen;fill-rule:evenodd"/><path d="M215 47.85c-63.61 0-164.94-5-189.31-11.52-5.9-1.58-13-6.19-6.1-13.6 8.25-8.8 22-12.69 36.68-13.54 51.42-3 106.94-2.56 158.73-2.56s107.31-.4 158.74 2.56c14.65.85 28.43 4.74 36.68 13.54 6.94 7.41-.21 12-6.1 13.6C380 42.89 278.65 47.85 215 47.85Z" style="fill:url(#e);mix-blend-mode:screen;fill-rule:evenodd"/><path d="M214.83 7.8c166.58 0 177.41 3.52 177.41 7.09s-79.43 6.47-177.41 6.47-177.4-2.89-177.4-6.47S56.15 7.8 214.83 7.8Z" style="opacity:.37;fill:url(#f);mix-blend-mode:screen;fill-rule:evenodd"/></g></g></svg>