<svg width="375" height="70" fill="none" xmlns="http://www.w3.org/2000/svg"><g clip-path="url(#a)" fill="#000"><path d="M52.2 52.5H88c1.1.2 1.6 1.3 1 2.2l-.6.6c-4.5 4.4-8.9 8.9-13.3 13.3-.8.8-1.7 1.2-2.8 1.2H2c-.4 0-.8 0-1.1-.1-1-.4-1.2-1.6-.4-2.5l4.3-4.3 9.3-9.3c.8-.9 1.8-1.2 3-1.2 11.7.2 23.4.1 35.1.1Zm-15-26.4h34.9c1.4 0 2.4.4 3.3 1.4l13.2 13.2.6.6c.6.9 0 2-1 2.2-.3.1-.7 0-1 0H17.4c-1.4 0-2.4-.4-3.3-1.4-4.3-4.4-8.7-8.7-13-13l-.6-.6c-.7-.9-.2-2.2 1-2.3h1c11.4-.1 23.1-.1 34.7-.1ZM52.2 0h35.9c1 .1 1.5 1.3 1 2.2-.2.3-.4.5-.6.7-4.4 4.4-8.9 8.8-13.3 13.3-.8.9-1.8 1.2-3 1.2h-71C0 17.3-.5 16 .2 15.1c.1-.2.3-.3.4-.4C5.1 10.3 9.5 5.8 14 1.4c1-1 1.9-1.4 3.1-1.4h35.1Zm127.3 17.7h11.2c3.8 0 6.6 2.8 6.6 6.5v21.2c0 4-2.7 6.7-6.7 6.7h-22.2c-4 0-6.7-2.7-6.7-6.7V24.1c0-3.7 2.8-6.5 6.5-6.5 3.8.1 7.5.1 11.3.1Zm0 6.2h-7c-2.5 0-4.1 1.7-4.2 4.1v13.3c0 2.5 1.7 4.2 4.2 4.2h13.9c2.5 0 4.2-1.6 4.2-4.2V27.9c0-2.4-1.7-4.1-4.1-4.1-2.3.1-4.6.1-7 .1Zm195.3 13.4v13.3c0 1.3-.3 1.7-1.7 1.7h-3.5c-1.1 0-1.5-.4-1.5-1.5V40.7c0-1.5-.3-1.7-1.8-1.7h-18.7c-1.4 0-1.7.3-1.7 1.7v10c0 1.3-.3 1.6-1.6 1.6H341c-1.4 0-1.7-.3-1.7-1.7V24.8c0-4.4 2.6-7 7-7h21.8c4 0 6.7 2.7 6.7 6.7v12.8ZM357 33.9h9.7c1.1 0 1.4-.4 1.4-1.4v-4.8c0-2.8-1.5-4.3-4.4-4.3H350c-2.5 0-4.1 1.6-4.1 4.2v4.9c0 1.2.4 1.5 1.5 1.5 3.2-.1 6.4-.1 9.6-.1Zm-108.9 3.3V24.6c0-4.2 2.6-6.9 6.8-6.9h21.6c3.9 0 6.6 2.7 6.6 6.5v26.4c0 1.1-.3 1.5-1.5 1.5h-3.7c-1 0-1.4-.4-1.4-1.4V40.3c0-1.2-.3-1.6-1.6-1.6h-18.8c-1.3 0-1.6.4-1.6 1.7v9.9c0 1.7-.2 1.8-1.9 1.8h-3.3c-1.1 0-1.4-.3-1.4-1.5.2-4.4.2-8.9.2-13.4Zm17.6-3.3h9.4c1.2 0 1.6-.4 1.6-1.5v-5.1c0-2.3-1.5-4-3.8-4-4.8-.1-9.5-.1-14.3 0-2.3 0-3.8 1.7-3.8 4v5c0 1.3.3 1.6 1.6 1.6h9.3ZM130.3 52.2h-10.8c-.7 0-1.4 0-1.6-.8-.3-.8.3-1.2.8-1.6 1.4-1.2 2.8-2.4 4.1-3.6.6-.5 1.2-.7 1.9-.7h16.2c2.7 0 4.5-2.6 3.4-5-.7-1.5-1.8-2.2-3.5-2.2h-14.1c-5.9 0-10.5-4.7-10.4-10.6.1-5.4 4.6-9.9 9.9-10 7.3-.1 14.5 0 21.8 0 .6 0 1.2.2 1.3.8.1.4-.1 1-.4 1.3-1.4 1.4-2.8 2.7-4.3 4-.4.3-1 .5-1.5.5h-16.5c-1.5 0-2.7.7-3.3 2.1-.6 1.3-.4 2.6.5 3.8.8.9 1.8 1.3 3 1.3H141c5.7 0 10.3 4.7 10.3 10.4 0 5.6-4.8 10.2-10.4 10.1-3.5.2-7 .2-10.6.2ZM293.7 35V19.4c0-1.4.3-1.6 1.7-1.6h3.9c.7 0 1.2.2 1.7.8 6.1 7.3 12.3 14.6 18.4 22 .3.4.6.8 1 1.1.3.2.8.4 1.1.2.3-.1.5-.6.7-.9.1-.2 0-.5 0-.8V19.6c0-1.5.3-1.8 1.7-1.8h3.3c1.2 0 1.5.4 1.5 1.5v31.2c0 1.5-.3 1.8-1.8 1.8h-4.1c-.4 0-.8-.2-1.1-.5l-19.2-22.2c-.1-.1-.2-.2-.2-.3-.4-.5-.8-.8-1.5-.6-.7.3-.8.8-.8 1.5v20.3c0 1.6-.2 1.8-1.8 1.8h-3.3c-1.1 0-1.4-.3-1.4-1.4.2-5.4.2-10.7.2-15.9Zm-85.6 0V19.6c0-1.5.3-1.8 1.8-1.8h3.2c1.2 0 1.5.3 1.5 1.5v25.2c0 1.8.2 2 2 2h21.8c1 .1 1.5 1.1.8 1.8l-3.3 3.6c-.2.2-.7.3-1 .3h-25.2c-1.1 0-1.4-.4-1.4-1.5-.2-5.3-.2-10.5-.2-15.7Z"/></g><defs><clipPath id="a"><path fill="#fff" d="M0 0h374.8v69.9H0z"/></clipPath></defs></svg>