<svg xmlns="http://www.w3.org/2000/svg" viewBox="0 0 830.9 242.69"><defs><style>.cls-2{fill:#2ac1d6}</style></defs><g style="isolation:isolate"><g id="Слой_2" data-name="Слой 2"><g id="Layer_1" data-name="Layer 1"><path class="cls-2" d="M830.9 53.76v135.17a53.81 53.81 0 0 1-53.77 53.76H53.76A53.75 53.75 0 0 1 0 188.93V53.76A53.75 53.75 0 0 1 53.76 0h723.37a53.76 53.76 0 0 1 53.77 53.76Z"/><path class="cls-2" d="M830.9 53.76v2.43C772 62.44 680 60.86 638.86 0h138.27a53.76 53.76 0 0 1 53.77 53.76Z" style="opacity:.47;mix-blend-mode:screen"/><path class="cls-2" d="M830.9 151.51v37.42a53.81 53.81 0 0 1-53.77 53.76H53.76A53.75 53.75 0 0 1 0 188.93V53.76A53.75 53.75 0 0 1 53.76 0H56c137.68 230.61 584.61 256.38 774.9 151.51Z" style="opacity:.3;mix-blend-mode:multiply"/></g></g></g></svg>