<svg width="1868" height="709" fill="none" xmlns="http://www.w3.org/2000/svg"><g clip-path="url(#a)" fill="#fff"><path d="M786.6 249.3c0 10.7-8.7 19.4-19.4 19.4s-19.4-8.7-19.4-19.4 8.7-19.4 19.4-19.4 19.4 8.7 19.4 19.4Zm32.6 31.3c0 3.5-2.8 6.3-6.3 6.3s-6.3-2.8-6.3-6.3 2.8-6.3 6.3-6.3 6.3 2.8 6.3 6.3Zm-245.4 60c6.959 0 12.6-5.641 12.6-12.6s-5.641-12.6-12.6-12.6-12.6 5.641-12.6 12.6 5.641 12.6 12.6 12.6Zm56.1 10a5 5 0 1 0 0-10 5 5 0 0 0 0 10Zm1208.9 156.8c0 7.4-6 13.3-13.3 13.3-7.4 0-13.3-6-13.3-13.3 0-7.4 6-13.3 13.3-13.3 7.3-.1 13.3 5.9 13.3 13.3Zm28.3-50c0 3.8-3.1 7-7 7-3.8 0-7-3.1-7-7 0-3.8 3.1-7 7-7s7 3.1 7 7Zm-599 251.5c-3.3 0-6-2.7-6-6s2.7-6 6-6 6 2.7 6 6-2.7 6-6 6Zm228.2-80.7c9.9 0 17.8 8 17.8 17.8 0 9.9-8 17.8-17.8 17.8-9.9 0-17.8-8-17.8-17.8s7.9-17.8 17.8-17.8Zm-36.9 41.9c5.9 0 10.7 4.8 10.7 10.7 0 5.9-4.8 10.7-10.7 10.7-5.9 0-10.7-4.8-10.7-10.7.1-5.9 4.8-10.7 10.7-10.7ZM368.5 207.2c0-7.4 6-13.3 13.3-13.3 7.4 0 13.3 6 13.3 13.3 0 7.4-6 13.3-13.3 13.3-7.3.1-13.3-5.9-13.3-13.3Zm-28.3 50c0-3.8 3.1-7 7-7 3.8 0 7 3.1 7 7 0 3.8-3.1 7-7 7s-7-3.1-7-7ZM237.9 368.3c7.401 0 13.4-5.999 13.4-13.4 0-7.401-5.999-13.4-13.4-13.4-7.401 0-13.4 5.999-13.4 13.4 0 7.401 5.999 13.4 13.4 13.4Zm-29.8-103.2c0-8.2 6.7-14.9 14.9-14.9s14.9 6.7 14.9 14.9S231.2 280 223 280s-14.9-6.6-14.9-14.9Zm-39.7 50.8c0-4.6 3.7-8.3 8.3-8.3 4.6 0 8.3 3.7 8.3 8.3 0 4.6-3.7 8.3-8.3 8.3-4.6 0-8.3-3.7-8.3-8.3ZM0 430.9c0-3.3 2.7-6 6-6s6 2.7 6 6-2.7 6-6 6-6-2.7-6-6Zm1568.7-381c0 11.8-9.6 21.4-21.4 21.4-11.8 0-21.4-9.6-21.4-21.4 0-11.8 9.6-21.4 21.4-21.4 11.8 0 21.4 9.6 21.4 21.4Zm40.4-44c0 3.3-2.7 5.9-5.9 5.9-3.3 0-5.9-2.7-5.9-5.9 0-3.3 2.7-5.9 5.9-5.9s5.9 2.7 5.9 5.9Zm26.1 100.9c0 10.5-8.5 19-19 19s-19-8.5-19-19 8.5-19 19-19 19 8.5 19 19ZM1415.3 289c0 3.5-2.9 6.4-6.4 6.4-3.5 0-6.4-2.9-6.4-6.4 0-3.5 2.9-6.4 6.4-6.4 3.5 0 6.4 2.9 6.4 6.4Zm140.2 151c0 10.9-8.9 19.8-19.8 19.8s-19.8-8.9-19.8-19.8 8.9-19.8 19.8-19.8 19.8 8.9 19.8 19.8ZM1330 394.1a8.6 8.6 0 0 0 8.6-8.6 8.6 8.6 0 0 0-8.6-8.6 8.6 8.6 0 0 0-8.6 8.6 8.6 8.6 0 0 0 8.6 8.6Z"/></g><defs><clipPath id="a"><path fill="#fff" d="M0 0h1867.1v708.9H0z"/></clipPath></defs></svg>