<svg xmlns="http://www.w3.org/2000/svg" xmlns:xlink="http://www.w3.org/1999/xlink" viewBox="0 0 208.06 58.58"><defs><radialGradient id="d" cx="107.3" cy="-64.8" r="192.95" gradientUnits="userSpaceOnUse"><stop offset="0" stop-color="#ff8000"/><stop offset="1"/></radialGradient><radialGradient id="a" cx="109.5" cy="129.37" r="236.26" gradientUnits="userSpaceOnUse"><stop offset="0" stop-color="#ff8c00"/><stop offset="1"/></radialGradient><radialGradient id="b" cx="107.72" cy="95.46" r="195.27" gradientUnits="userSpaceOnUse"><stop offset="0" stop-color="#ffff45"/><stop offset="1"/></radialGradient><radialGradient id="e" cx="101.18" cy="-27.98" r="183.09" xlink:href="#a"/><radialGradient id="f" cx="106.06" cy="-60.4" r="213.03" xlink:href="#b"/><linearGradient id="c" x1="104.03" y1="58.58" x2="104.03" gradientUnits="userSpaceOnUse"><stop offset="0" stop-color="#ff9c00"/><stop offset=".08" stop-color="#f07a00"/><stop offset=".16" stop-color="#e66200"/><stop offset=".24" stop-color="#df5300"/><stop offset=".3" stop-color="#dd4e00"/><stop offset="1" stop-color="#ffbf43"/></linearGradient></defs><g data-name="Слой 2" style="isolation:isolate"><g data-name="Layer 1"><path d="M178.43 58.58A29.38 29.38 0 0 0 199 50.06a29.84 29.84 0 0 0 9-20.59 28.92 28.92 0 0 0-8.13-20.76A28.41 28.41 0 0 0 179.44 0H28.51A28.34 28.34 0 0 0 8.06 8.69 28.91 28.91 0 0 0 0 29.47a29.83 29.83 0 0 0 9 20.62 29.31 29.31 0 0 0 20.57 8.49Z" style="fill:url(#c);fill-rule:evenodd"/><path d="M103.89 3.28c-28.43 0-52.47.43-76.74 1.64-6.6.33-12.71 2.68-17 7.46a22.75 22.75 0 0 0-4.75 8.19 24.32 24.32 0 0 0-1.11 9.48 26.26 26.26 0 0 0 2.61 9.42 26.66 26.66 0 0 0 5.9 7.87 27 27 0 0 0 17.49 7c23.21.87 50.54 1 73.63 1s50.42-.1 73.62-1a27 27 0 0 0 17.5-7 26.83 26.83 0 0 0 5.9-7.87 26.26 26.26 0 0 0 2.61-9.42 24.32 24.32 0 0 0-1.11-9.48 22.75 22.75 0 0 0-4.75-8.19c-4.32-4.78-10.44-7.13-17-7.46-24.27-1.21-48.31-1.64-76.74-1.64Z" style="fill:url(#d);mix-blend-mode:screen;fill-rule:evenodd"/><path d="M103.93 40.84c-25 0-55.33.53-79.55 4.78-5.51 1-7.24 4.62-.23 5.66 11.77 1.75 46.67 2.56 79.78 2.56s68-.81 79.78-2.56c7-1 5.28-4.69-.23-5.66-24.22-4.25-54.54-4.78-79.55-4.78Z" style="opacity:.75;fill:url(#a);mix-blend-mode:screen;fill-rule:evenodd"/><path d="M103.93 53.1c65.9 0 73.67-1.11 73.67-2.31s-33-1.25-73.67-1.25-73.67.05-73.67 1.25S38 53.1 103.93 53.1Z" style="fill:url(#b);mix-blend-mode:screen;fill-rule:evenodd"/><path d="M104 31.68c-30.77 0-79.79-3.28-91.58-7.62-2.86-1-6.31-4.1-3-9 4-5.82 10.66-8.4 17.75-9C52.12 4.12 79 4.39 104 4.39s51.91-.27 76.79 1.7c7.09.56 13.76 3.14 17.74 9 3.36 4.91-.09 8-2.95 9-11.76 4.31-60.78 7.59-91.58 7.59Z" style="fill:url(#e);mix-blend-mode:screen;fill-rule:evenodd"/><path d="M103.93 5.16c80.58 0 85.82 2.33 85.82 4.7s-38.42 4.29-85.82 4.29-85.82-1.92-85.82-4.29 9.05-4.7 85.82-4.7Z" style="opacity:.37;fill:url(#f);mix-blend-mode:screen;fill-rule:evenodd"/></g></g></svg>