<svg width="416" height="459" fill="none" xmlns="http://www.w3.org/2000/svg"><path d="m415.9 122.3-.5 324.2c-15.8 7.2-32.3 8.3-47.8 1.4-.7-.3-1.4-.6-2.1-1 0 0-.1 0-.1-.1-.7-.3-1.3-.7-2-1.1-1.3-.7-2.6-1.5-3.9-2.3-4.7-3.1-9.4-7-13.8-11.9-36.2-39.3-89.5-65.6-128.5-81-2.2-.8-4.3-1.7-6.3-2.4-2.1-.8-4.1-1.5-6-2.3-22.4-8.2-37.6-12-37.6-12-1.9-22.5-1.9-42.6-.5-60.5 2.5-31.3 9.6-56.1 18.6-75.7 26.5-57.5 70.3-70.3 70.3-70.3s18.3 18.3 48.5 26.9c1.6.5 3.2.9 4.9 1.3 1.6.4 3.2.7 4.9 1 7.1 1.4 14.8 2.1 22.9 1.9 43-1 56.8-30.3 79-36.1Z" fill="url(#a)"/><path d="M204.8 345.9c1.9.7 4 1.5 6 2.3.9 1.6 1.8 3.3 2.7 4.8.2.4.4.7.7 1.2 1.9.8 3.9 1.5 5.9 2.3 38.1 15.4 88.3 41 122.4 78 4.3 4.6 8.8 8.6 13.5 11.8 1.3.9 2.5 1.7 3.8 2.4 1.2-.9 2.4-1.9 3.6-2.9 1.2-1 2.3-1.9 3.4-2.9-1.3-.7-2.6-1.4-3.9-2.2-4.7-2.9-9.5-6.8-14.1-11.9-38.5-41.8-95.3-69-135-84-2-.8-4-1.5-6-2.2-1.9-.7-3.9-1.4-5.7-2 .8 1.5 1.7 3.4 2.7 5.3Zm0 0c1.9.7 4 1.5 6 2.3.9 1.6 1.8 3.3 2.7 4.8.2.4.4.7.7 1.2 1.9.8 3.9 1.5 5.9 2.3 38.1 15.4 88.3 41 122.4 78 4.3 4.6 8.8 8.6 13.5 11.8 1.3.9 2.5 1.7 3.8 2.4 1.2-.9 2.4-1.9 3.6-2.9 1.2-1 2.3-1.9 3.4-2.9-1.3-.7-2.6-1.4-3.9-2.2-4.7-2.9-9.5-6.8-14.1-11.9-38.5-41.8-95.3-69-135-84-2-.8-4-1.5-6-2.2-1.9-.7-3.9-1.4-5.7-2 .8 1.5 1.7 3.4 2.7 5.3Zm185.4-213.5c-13 9.9-27.7 21.1-53.5 21.6-6.9.1-13.4-.4-19.6-1.4l-4.8-.9c-1.6-.3-3.2-.7-4.8-1.1-30-7.8-48.7-26.1-48.9-26.4-1.1-1.1-2.7-1.5-4.2-1.1-1.1.3-27.5 8.3-52 38.6-8.7 10.7-17.8 25.1-25.1 44.1v.1c-1.5 3.8-2.9 7.8-4.3 12.1-.7 2.2-1.4 4.5-2 6.8l-.9 3.3c-.7 2.7-1.4 5.4-2 8.3-1.7 7.4-3.1 15.2-4.1 23.6v.1c-2.7 21.2-3.4 45.8-.9 74.1.1 1.8 1.4 3.3 3.2 3.8.4.1 17.5 4.5 41.8 13.7l6.3 2.4c1.9.8 3.9 1.5 5.9 2.3 38.1 15.4 88.3 41 122.4 78 4.3 4.6 8.8 8.6 13.5 11.8 1.3.9 2.5 1.7 3.8 2.4 1.3.8 2.7 1.5 4.1 2.2 7 3.5 14.4 5.4 22 5.9h.1c2.4.1 4.7.1 7.1-.1 7.3-.5 14.7-2.3 22.3-5.5v-9.4c-.7.4-1.4.7-2.2 1-11.3 5.1-26.4 8.4-42.1 2-1.4-.6-2.9-1.2-4.3-2-1.3-.7-2.6-1.4-3.9-2.2-4.7-2.9-9.5-6.8-14.1-11.9-38.5-41.8-95.3-69-135-84-2-.8-4-1.5-6-2.2-1.9-.7-3.9-1.4-5.7-2-14.7-5.2-25.9-8.4-31-9.8-4.5-56.7 3.8-97.5 15.9-126.2 1.8-4.2 3.6-8.1 5.5-11.8 5.1-10 10.6-18.2 16-24.9 18.9-23.5 39.3-32.9 46-35.5 5.5 4.9 21.7 18 45.7 25.4 1.6.5 3.3 1 5 1.4 1.6.4 3.3.8 5 1.2 8.2 1.7 17 2.7 26.6 2.5 28.5-.6 45.1-13.2 58.5-23.4 7.3-5.6 13.6-10.4 20.6-12.5V118c-9.8 2.1-17.7 8.1-25.9 14.4ZM204.8 345.9c1.9.7 4 1.5 6 2.3.9 1.6 1.8 3.3 2.7 4.8.2.4.4.7.7 1.2 1.9.8 3.9 1.5 5.9 2.3 38.1 15.4 88.3 41 122.4 78 4.3 4.6 8.8 8.6 13.5 11.8 1.3.9 2.5 1.7 3.8 2.4 1.2-.9 2.4-1.9 3.6-2.9 1.2-1 2.3-1.9 3.4-2.9-1.3-.7-2.6-1.4-3.9-2.2-4.7-2.9-9.5-6.8-14.1-11.9-38.5-41.8-95.3-69-135-84-2-.8-4-1.5-6-2.2-1.9-.7-3.9-1.4-5.7-2 .8 1.5 1.7 3.4 2.7 5.3Zm0 0c1.9.7 4 1.5 6 2.3.9 1.6 1.8 3.3 2.7 4.8.2.4.4.7.7 1.2 1.9.8 3.9 1.5 5.9 2.3 38.1 15.4 88.3 41 122.4 78 4.3 4.6 8.8 8.6 13.5 11.8 1.3.9 2.5 1.7 3.8 2.4 1.2-.9 2.4-1.9 3.6-2.9 1.2-1 2.3-1.9 3.4-2.9-1.3-.7-2.6-1.4-3.9-2.2-4.7-2.9-9.5-6.8-14.1-11.9-38.5-41.8-95.3-69-135-84-2-.8-4-1.5-6-2.2-1.9-.7-3.9-1.4-5.7-2 .8 1.5 1.7 3.4 2.7 5.3Zm0 0c1.9.7 4 1.5 6 2.3.9 1.6 1.8 3.3 2.7 4.8.2.4.4.7.7 1.2 1.9.8 3.9 1.5 5.9 2.3 38.1 15.4 88.3 41 122.4 78 4.3 4.6 8.8 8.6 13.5 11.8 1.3.9 2.5 1.7 3.8 2.4 1.2-.9 2.4-1.9 3.6-2.9.7.4 1.3.7 2 1.1 0 0 .1 0 .1.1.7.3 1.4.7 2.1 1 1.2-1 2.4-2 3.5-3.1-1.4-.6-2.9-1.2-4.3-2-1.3-.7-2.6-1.4-3.9-2.2-4.7-2.9-9.5-6.8-14.1-11.9-38.5-41.8-95.3-69-135-84-2-.8-4-1.5-6-2.2-1.9-.7-3.9-1.4-5.7-2 .8 1.5 1.7 3.4 2.7 5.3Z" fill="#C95641"/><path opacity=".5" d="M392.3 180.7c9.9 3.7 18.1 9.3 23.5 15.7v30.7c-9 6.6-25.1 7.6-41.3 1.6-21.4-7.9-34.7-25.1-29.7-38.3 4.8-13.3 26.1-17.6 47.5-9.7Zm23.201 171.2v19.7c-5.8 8.7-18 17.1-33.4 21.9-24.1 7.5-46.8 3.4-50.7-9.2-3.9-12.6 12.4-28.9 36.5-36.4 20.4-6.4 39.8-4.4 47.6 4Zm-37.058-48.533c11.056-1.487 19.154-9.127 18.087-17.064-1.068-7.937-10.896-13.165-21.953-11.678-11.057 1.487-19.155 9.126-18.088 17.063 1.068 7.937 10.897 13.166 21.954 11.679ZM252.201 305.1c13.9 6.8 21.2 20.4 16.3 30.4-4.9 10-20.1 12.6-34 5.9-13.9-6.8-21.2-20.4-16.3-30.4 4.8-10 20.1-12.7 34-5.9ZM292.9 186.2c11-1.5 20.9 3.8 21.9 11.7 1.1 8-7 15.6-18.1 17.1-11 1.5-20.9-3.8-21.9-11.7-1-7.9 7.1-15.6 18.1-17.1Z" fill="#F6B1B4"/><path d="M100.1 182c4.2-.1 6.3-5.1 3.5-8.2-16.2-17.5-49.7-60.3-42.7-110.5C70-2.4 117.8 1.9 141.3 6.7c23.5 4.8 32.8 35.9 30.9 59.6-1.9 23.6 29.5 40.2 33.4-4.7 3.9-44.9 45.9-72 91.7-36.8 43.7 33.6 58 135.5-39.1 156.6-7.9 1.7-11.9 10.6-7.8 17.5 7.8 12.8 23.1 30.1 51.5 36.9 47.3 11.2 61.9 31.9 40.3 73.9-21.7 42-60.9 50.7-83.4 17.4-22.5-33.3-36.5-46.9-51.7-34.1-15.2 12.8-5.6 39.5 6.4 59.9 12.1 20.3 31.3 101.2-35.2 101.1-66.5-.1-65.4-72.9-53.6-103.4 11.8-30.5 2.6-54.2-11.5-53.6-14.1.6-36.8 36.7-85.7 2.9-47-32.5-22.8-116.3 72.6-117.9Z" fill="url(#b)"/><path d="M207.9 351.7c.6 1.1 1.3 2.3 2 3.4 5.9 9.9 15 38.9 10.4 62.5-.5 2.6-1.2 5.1-2 7.5l.3-.3.4-.4.6-.6c.4-.4.9-.8 1.3-1.2.6-.5 1.2-1 1.9-1.6.1-.1.2-.2.4-.3.3-.2.6-.4.9-.7.1 0 .1-.1.2-.1s.1-.1.2-.1c.2-.1.4-.3.5-.4.1-.1.3-.2.4-.3 0 0 .1 0 .1-.1.5-.4 1.1-.7 1.6-1 .6-.4 1.3-.7 2-1.1.3-1.6.5-3.3.6-4.9 2-20.8-4-43.3-9.5-55.8-2-.8-4-1.6-5.9-2.3-.2-.4-.4-.8-.7-1.2-.9-1.6-1.9-3.2-2.7-4.8-2.1-.8-4.1-1.5-6-2.3.8 2.2 1.9 4.1 3 6.1Zm0 0c.6 1.1 1.3 2.3 2 3.4 5.9 9.9 15 38.9 10.4 62.5-.5 2.6-1.2 5.1-2 7.5l.3-.3.4-.4.6-.6c.4-.4.9-.8 1.3-1.2.6-.5 1.2-1 1.9-1.6.1-.1.2-.2.4-.3.3-.2.6-.4.9-.7.1 0 .1-.1.2-.1s.1-.1.2-.1c.2-.1.4-.3.5-.4.1-.1.3-.2.4-.3 0 0 .1 0 .1-.1.5-.4 1.1-.7 1.6-1 .6-.4 1.3-.7 2-1.1.3-1.6.5-3.3.6-4.9 2-20.8-4-43.3-9.5-55.8-2-.8-4-1.6-5.9-2.3-.2-.4-.4-.8-.7-1.2-.9-1.6-1.9-3.2-2.7-4.8-2.1-.8-4.1-1.5-6-2.3.8 2.2 1.9 4.1 3 6.1Zm0 0c.6 1.1 1.3 2.3 2 3.4 5.9 9.9 15 38.9 10.4 62.5-.5 2.6-1.2 5.1-2 7.5l.3-.3.4-.4.6-.6c.4-.4.9-.8 1.3-1.2.6-.5 1.2-1 1.9-1.6.1-.1.2-.2.4-.3.3-.2.6-.4.9-.7.1 0 .1-.1.2-.1s.1-.1.2-.1c.2-.1.4-.3.5-.4.1-.1.3-.2.4-.3 0 0 .1 0 .1-.1.5-.4 1.1-.7 1.6-1 .6-.4 1.3-.7 2-1.1.3-1.6.5-3.3.6-4.9 2-20.8-4-43.3-9.5-55.8-2-.8-4-1.6-5.9-2.3-.2-.4-.4-.8-.7-1.2-.9-1.6-1.9-3.2-2.7-4.8-2.1-.8-4.1-1.5-6-2.3.8 2.2 1.9 4.1 3 6.1Zm0 0c.6 1.1 1.3 2.3 2 3.4 5.9 9.9 15 38.9 10.4 62.5-.5 2.6-1.2 5.1-2 7.5l.3-.3.4-.4.6-.6c.4-.4.9-.8 1.3-1.2.6-.5 1.2-1 1.9-1.6.1-.1.2-.2.4-.3.3-.2.6-.4.9-.7.1 0 .1-.1.2-.1s.1-.1.2-.1c.2-.1.4-.3.5-.4.1-.1.3-.2.4-.3 0 0 .1 0 .1-.1.5-.4 1.1-.7 1.6-1 .6-.4 1.3-.7 2-1.1.3-1.6.5-3.3.6-4.9 2-20.8-4-43.3-9.5-55.8-2-.8-4-1.6-5.9-2.3-.2-.4-.4-.8-.7-1.2-.9-1.6-1.9-3.2-2.7-4.8-2.1-.8-4.1-1.5-6-2.3.8 2.2 1.9 4.1 3 6.1Zm0 0c.6 1.1 1.3 2.3 2 3.4 5.9 9.9 15 38.9 10.4 62.5-.5 2.6-1.2 5.1-2 7.5l.3-.3.4-.4.6-.6c.4-.4.9-.8 1.3-1.2.6-.5 1.2-1 1.9-1.6.1-.1.2-.2.4-.3.3-.2.6-.4.9-.7.1 0 .1-.1.2-.1s.1-.1.2-.1c.2-.1.4-.3.5-.4.1-.1.3-.2.4-.3 0 0 .1 0 .1-.1.5-.4 1.1-.7 1.6-1 .6-.4 1.3-.7 2-1.1.3-1.6.5-3.3.6-4.9 2-20.8-4-43.3-9.5-55.8-2-.8-4-1.6-5.9-2.3-.2-.4-.4-.8-.7-1.2-.9-1.6-1.9-3.2-2.7-4.8-2.1-.8-4.1-1.5-6-2.3.8 2.2 1.9 4.1 3 6.1ZM176.5 66.6c2.2-27.2-9-59-34.3-64.1-24.8-5-44-2.5-58.6 7.8-14.5 10.3-23.5 27.9-26.9 52.5-7.3 52.5 28.2 97.2 43.8 113.9.1.1.3.3.1.7-.2.3-.4.3-.5.3-58.7 1-88.8 31.5-97.3 59.6-7.7 25.4 1.1 51.4 22.3 66.1 38.4 26.6 62.7 11.9 77.3 3.1 4.4-2.6 8.5-5.1 11.1-5.2 3.7-.1 6.2 2.3 7.8 4.4 5.3 7.4 7.2 23.6-.5 43.4-7.2 18.7-12 58.3 6.1 84.7 11.1 16.2 28.4 24.4 51.5 24.5 8.8 0 16.6-1.3 23.2-3.9 1.6-.6 3.1-1.3 4.6-2.1 1.7-.9 3.4-1.9 4.9-3.1 4.7-3.4 8.5-7.8 11.5-13.1 2.4-4.2 4.1-8.7 5.3-13.4.5-1.8.8-3.7 1.1-5.5.3-1.6.5-3.3.6-4.9 2-20.8-4-43.3-9.5-55.8-1-2.2-2-4.1-2.9-5.7 0-.1-.1-.1-.1-.2-.9-1.5-2.1-3.6-3.3-6-6.9-13.1-16.9-37.3-3.9-48.3 3.5-3 6.7-4.1 10-3.7 4.2.6 8.9 3.9 13.8 8.8 7 7 14.4 17.3 21.6 28 2.9 4.2 6 7.9 9.4 10.9 8.9 8 19.4 11.9 30.7 11.2 19.4-1.1 38.3-16.1 50.7-40.1 6.8-13.3 10.3-24.7 10.3-34.6 0-5.5-1.1-10.6-3.2-15.2-6.5-14.1-22.4-23.7-50.2-30.3-26.7-6.4-41.3-22.5-48.8-35-1.2-2-1.4-4.4-.4-6.6 1-2.3 3-3.9 5.5-4.5 21.1-4.6 38.4-13.3 51.1-25.5 1.2-1.2 2.4-2.4 3.6-3.7 1.2-1.2 2.2-2.5 3.3-3.8 7.7-9.5 13.1-20.7 15.9-33.3 7.9-35.2-6.3-77.3-33.1-98-22.1-16.4-45-21-64.6-12.3-19.2 8.4-31.9 28.1-34.1 52.6-1.4 15.6-6.5 24.9-13.2 24.3-6.1-.5-12.6-8.9-11.7-18.9ZM187.4 94c4.6.4 19.7-.8 22.5-32.1 1.9-21.4 12.7-38.4 29-45.5 16.7-7.3 36.5-3.1 55.8 11.8 24.3 18.7 37.2 57.1 30 89.3-2.9 12.8-8.7 23.9-17.2 33.1-1.1 1.2-2.3 2.4-3.5 3.5-1.2 1.2-2.5 2.3-3.8 3.4-11.2 9.3-25.6 16-42.9 19.7-5.1 1.1-9.4 4.7-11.5 9.4-2 4.8-1.7 10 1 14.4 8.4 13.8 24.6 31.8 54.2 38.8 24.7 5.9 39.2 14.2 44.4 25.6 4.7 10.3 2.4 24.1-6.9 42.3-11 21.2-27.3 34.5-43.6 35.4-9.3.5-18-3-25.4-10-2.5-2.4-4.9-5.2-7.1-8.4-5.7-8.4-11-15.8-16-21.8-9-10.9-17.1-17.5-25.3-18.7-5.7-.8-11.3 1.1-16.7 5.6-6.2 5.2-9.3 12.7-9.3 22.1 0 8.2 2.4 17.8 7.1 28.5.8 1.8 1.7 3.7 2.6 5.6 1 1.9 2 3.8 3.1 5.8.6 1.1 1.3 2.3 2 3.4 5.9 9.9 15 38.9 10.4 62.5-.5 2.6-1.2 5.1-2 7.5-.8 2.3-1.8 4.6-3.1 6.7-1.6 2.7-3.4 5.2-5.6 7.3-1.8 1.8-3.8 3.3-6 4.7-6.6 4-15 6-25.2 6-20.1 0-35-7-44.4-20.8-15.4-22.5-12.3-58.5-5.2-76.8 9.4-24.3 5.9-42.5-.6-51.5-3.9-5.4-9.2-8.2-15.1-8-4.8.2-9.6 3.1-15.1 6.5-14.4 8.7-34.1 20.6-68-2.8-18.4-12.7-25.7-34.4-19-56.6 3.8-12.6 12.6-25.8 27.2-35.9 14.6-10.1 35-17.2 62.1-17.7 3.7-.1 6.8-2.2 8.2-5.5 1.4-3.4.8-7.1-1.7-9.8C92 155 58.4 112.8 65.1 63.9 68.2 41.8 76 26.1 88.5 17.3c12.6-8.9 29.5-11 51.9-6.5 21.7 4.4 29.2 34.9 27.5 55-1.2 14.1 8 27.2 19.5 28.2Zm20.5 257.7c.6 1.1 1.3 2.3 2 3.4 5.9 9.9 15 38.9 10.4 62.5-.5 2.6-1.2 5.1-2 7.5l.3-.3.4-.4.6-.6c.4-.4.9-.8 1.3-1.2.6-.5 1.2-1 1.9-1.6.1-.1.2-.2.4-.3.3-.2.6-.4.9-.7.1 0 .1-.1.2-.1s.1-.1.2-.1c.2-.1.4-.3.5-.4.1-.1.3-.2.4-.3 0 0 .1 0 .1-.1.5-.4 1.1-.7 1.6-1 .6-.4 1.3-.7 2-1.1.3-1.6.5-3.3.6-4.9 2-20.8-4-43.3-9.5-55.8-2-.8-4-1.6-5.9-2.3-.2-.4-.4-.8-.7-1.2-.9-1.6-1.9-3.2-2.7-4.8-2.1-.8-4.1-1.5-6-2.3.8 2.2 1.9 4.1 3 6.1Zm0 0c.6 1.1 1.3 2.3 2 3.4 5.9 9.9 15 38.9 10.4 62.5-.5 2.6-1.2 5.1-2 7.5l.3-.3.4-.4.6-.6c.4-.4.9-.8 1.3-1.2.6-.5 1.2-1 1.9-1.6.1-.1.2-.2.4-.3.3-.2.6-.4.9-.7.1 0 .1-.1.2-.1s.1-.1.2-.1c.2-.1.4-.3.5-.4.1-.1.3-.2.4-.3 0 0 .1 0 .1-.1.5-.4 1.1-.7 1.6-1 .6-.4 1.3-.7 2-1.1.3-1.6.5-3.3.6-4.9 2-20.8-4-43.3-9.5-55.8-2-.8-4-1.6-5.9-2.3-.2-.4-.4-.8-.7-1.2-.9-1.6-1.9-3.2-2.7-4.8-2.1-.8-4.1-1.5-6-2.3.8 2.2 1.9 4.1 3 6.1Zm0 0c.6 1.1 1.3 2.3 2 3.4 5.9 9.9 15 38.9 10.4 62.5-.5 2.6-1.2 5.1-2 7.5l.3-.3.4-.4.6-.6c.4-.4.9-.8 1.3-1.2.6-.5 1.2-1 1.9-1.6.1-.1.2-.2.4-.3.3-.2.6-.4.9-.7.1 0 .1-.1.2-.1s.1-.1.2-.1c.2-.1.4-.3.5-.4.1-.1.3-.2.4-.3 0 0 .1 0 .1-.1.5-.4 1.1-.7 1.6-1 .6-.4 1.3-.7 2-1.1.3-1.6.5-3.3.6-4.9 2-20.8-4-43.3-9.5-55.8-2-.8-4-1.6-5.9-2.3-.2-.4-.4-.8-.7-1.2-.9-1.6-1.9-3.2-2.7-4.8-2.1-.8-4.1-1.5-6-2.3.8 2.2 1.9 4.1 3 6.1Zm0 0c.6 1.1 1.3 2.3 2 3.4 5.9 9.9 15 38.9 10.4 62.5-.5 2.6-1.2 5.1-2 7.5l.3-.3.4-.4.6-.6c.4-.4.9-.8 1.3-1.2.6-.5 1.2-1 1.9-1.6.1-.1.2-.2.4-.3.3-.2.6-.4.9-.7.1 0 .1-.1.2-.1s.1-.1.2-.1c.2-.1.4-.3.5-.4.1-.1.3-.2.4-.3 0 0 .1 0 .1-.1.5-.4 1.1-.7 1.6-1 .6-.4 1.3-.7 2-1.1.3-1.6.5-3.3.6-4.9 2-20.8-4-43.3-9.5-55.8-2-.8-4-1.6-5.9-2.3-.2-.4-.4-.8-.7-1.2-.9-1.6-1.9-3.2-2.7-4.8-2.1-.8-4.1-1.5-6-2.3.8 2.2 1.9 4.1 3 6.1Zm0 0c.6 1.1 1.3 2.3 2 3.4 5.9 9.9 15 38.9 10.4 62.5-.5 2.6-1.2 5.1-2 7.5l.3-.3.4-.4.6-.6c.4-.4.9-.8 1.3-1.2.6-.5 1.2-1 1.9-1.6.1-.1.2-.2.4-.3.3-.2.6-.4.9-.7.1 0 .1-.1.2-.1s.1-.1.2-.1c.2-.1.4-.3.5-.4.1-.1.3-.2.4-.3 0 0 .1 0 .1-.1.5-.4 1.1-.7 1.6-1 .6-.4 1.3-.7 2-1.1.3-1.6.5-3.3.6-4.9 2-20.8-4-43.3-9.5-55.8-2-.8-4-1.6-5.9-2.3-.2-.4-.4-.8-.7-1.2-.9-1.6-1.9-3.2-2.7-4.8-2.1-.8-4.1-1.5-6-2.3.8 2.2 1.9 4.1 3 6.1Z" fill="#C95641"/><path d="M169.401 280.6c-14.4-33-3.7-81.7 34.1-92.8-3.4 3-6.9 5.7-9.8 8.9-22.1 21.9-25.1 54.3-24.3 83.9Z" fill="#C95641"/><path d="M168.3 226.6c-10.1-19.7-9.6-43-6.1-64.3l-.1 8c.3 16.7 3 34 11.4 48.7.6 1 1.3 2.2 1.9 2.8l-7.1 4.8Zm.3 10c-11.2-2.5-22.9 2.9-31.2 10.4-1.3 1.2-2.5 2.4-3.7 3.7 1-1.5 1.9-3 2.9-4.4 7.6-10.5 20-18.6 33.5-18.1 0-.1-1.5 8.4-1.5 8.4Z" fill="#C95641"/><defs><linearGradient id="a" x1="251.428" y1="385.409" x2="539.528" y2="-5.024" gradientUnits="userSpaceOnUse"><stop stop-color="#fff"/><stop offset=".698" stop-color="#F6B1B4"/></linearGradient><linearGradient id="b" x1="56.356" y1="337.295" x2="470.956" y2="-119.84" gradientUnits="userSpaceOnUse"><stop stop-color="#fff"/><stop offset=".698" stop-color="#F6B1B4"/></linearGradient></defs></svg>