<svg width="1081" height="1226" fill="none" xmlns="http://www.w3.org/2000/svg"><g clip-path="url(#a)" fill="#ED1C24" fill-opacity=".36"><path d="M857.4 519.4c-20.7 12.7-50.5 30-79.4 48.8-42.8 28-28.1 74.2 4.7 91.9 34.9 18.8 72.3 35.2 110.5 45.6 52.5 14.2 99.8 34.1 135.3 76.9 41.9 50.6 58.9 111.1 50.5 173.6-7.4 54.9-30.4 106.5-87.2 133.2-26.8 12.6-53.3 6.7-80.5 4.2-71.1-6.6-116.9-47.3-145.3-109.3-16.9-36.9-30.1-75.6-45.2-113.4-12.3-30.8-32.5-56.8-59-75.1-46.7-32.3-85.3-29.4-121.2 15.6-20.1 25.1-25.2 54.5-26.6 85.4-2 44.3-3.6 88.7-7.7 132.9-4 43.2-13.3 85.8-37.1 122.9-34.1 53.1-101.7 91.8-164.1 63.8-37.7-16.9-64.1-48.8-83.5-84.1-38.3-69.8-29.6-126.8 24.8-184.8 42.7-45.5 77.6-96.5 108-150.7 16.3-29 4.3-52.4-30.7-60.1-35.4-7.8-70.1-2-104.6 6.5-23 5.7-45.9 11.8-69.2 16.3-78.8 14.9-119.1-25.8-142.5-92.7-8.5-24.1-8.5-52.8-5.8-78.8 5.1-48.5 39.3-82.6 87.2-93.2 96.1-21.2 185.9-6.5 268.6 47.7 4.1 2.7 8.2 5.2 12.3 7.8 12.2 7.8 20.1 4.2 25.6-8.8 20.8-49.1 18-95.2-13.6-139.7-36.9-52-75.1-103.5-106.8-158.6-17.3-30.1-29.3-66.7-31.7-101.3C236.1 41.1 324.2-22.8 421 7.6c63.6 20 87.9 68.7 98.4 128.1 10.1 57.4 17.8 115.3 28.7 172.6 6.4 33.5 22.4 62.9 49.7 84.9 23.3 18.7 40.2 18.2 66.7 3.7 58.9-32.2 100.1-84.3 148.7-128.1 28.4-25.6 57.9-48.2 97.1-54 59.9-8.8 93 11.7 108.9 69.8 12.6 45.9 2 87.5-20.5 129.3-29.2 54.4-74.6 84.7-141.3 105.5Zm-55.3 384c12.5 43.1 47.5 91.3 77.9 114.2 48.9 36.8 112.5 18.8 135.4-37.4 14.6-35.8 9.7-71-3-105-25.9-69.3-77.7-110.9-147.5-132.8-37.1-11.6-74.4-23.6-109.6-39.8-28.9-13.3-57-30.5-81.4-50.8-34.8-28.9-37.1-69.3-5.1-98.6 23.3-21.3 51.2-39.3 79.9-52.5 29.5-13.6 62.4-19.9 94-28.8 37.8-10.6 71.1-28.5 96.5-59 18.6-22.2 29.1-47.6 26.5-77.2-2.6-29.6-21.5-45.2-51.4-44.5-32.3.8-56.6 17.4-78 38.8-24.5 24.5-47 50.9-71.2 75.7-32.8 33.5-65.5 68.4-110.7 84.5-66.7 23.7-124.5 8.9-152.3-62.3-12-30.8-18.5-64.1-24.3-96.8-9.9-56.8-16.4-114.3-26-171.2-6.3-37-22.1-69.5-55.5-90.5-34.1-21.4-71.6-5.6-80.4 33.7-.8 3.6-1.2 7.2-2.4 10.7-12.8 38.8-9.3 76 14.8 109.2 33.1 45.7 69.4 89.2 101.4 135.7 28.6 41.6 52.7 86.3 58.8 137.9 5.9 50.3-23.5 102.5-65.8 118.6-23.2 8.8-44.9.6-65.7-6.6-48.7-17-96.4-37-145-54.1-17.5-6.1-36.7-9.4-55.3-10.4C117 542 83.2 567.9 79 603.7c-5.1 43.3 10.7 73.9 53 87.8 33.3 10.9 66 7.5 98.8-1.1 39.9-10.4 79.4-23.1 119.9-30.9 48.1-9.2 89.5 26.7 91 75.9 1.4 43.9-13.3 83.2-40.7 116.3-25.9 31.2-55.3 59.6-83.6 88.8-40.9 42.2-53.2 93-44.8 149.4 4.8 32.3 37 57.9 69.9 58.6 44.1 1 86.4-31.5 102.5-79.3 19.9-59.2 29.8-120.1 32.3-182.5 1.5-38.2 5.9-76.4 10.7-114.4 4.3-33.9 20.7-61 52.3-76.5 67.8-33.3 152.7-9 188.7 56.8 26.6 49.3 48.8 100.6 73.1 150.8Z"/><path d="M574 665.4c-33.8 14.7-68 7.8-89.7-17.7-11.2-13.2-13.9-28.3-10.1-44.4 10.5-43.9 69-70.9 108.9-50.4 22.3 11.4 28.4 32 28.4 55.1-.1 25.4-15 47.6-37.5 57.4Zm-20.7-39.9c11-6.2 16.6-16 11.7-29.6-4.1-11.5-19.7-16.6-32.4-11.4-12.5 5-22.1 22.2-18 32.1 3.7 9.1 25.7 14.6 38.7 8.9Z"/></g><defs><clipPath id="a"><path fill="#fff" d="M0 0h1081v1225.5H0z"/></clipPath></defs></svg>