<svg width="146" height="146" fill="none" xmlns="http://www.w3.org/2000/svg"><g clip-path="url(#a)" fill="#fff" fill-opacity=".7"><path d="M72.7 145.3C32.6 145.3 0 112.7 0 72.7 0 32.7 32.6 0 72.7 0s72.7 32.6 72.7 72.7-32.7 72.6-72.7 72.6ZM72.7 7C36.5 7 7 36.5 7 72.7s29.5 65.7 65.7 65.7 65.7-29.5 65.7-65.7C138.3 36.5 108.9 7 72.7 7Z"/><path d="M33.2 103.3c-1.1 0-2.2-.5-2.9-1.5-1.7-2.5-3.2-5.2-4.5-8-.8-1.8 0-3.8 1.7-4.6 1.8-.8 3.8 0 4.6 1.7 1.1 2.4 2.4 4.7 3.9 6.9 1.1 1.6.7 3.8-.9 4.9-.6.4-1.2.6-1.9.6Zm-8.5-27.1c-1.9 0-3.5-1.6-3.5-3.5 0-28.4 23.1-51.4 51.4-51.4 1.9 0 3.5 1.6 3.5 3.5s-1.6 3.5-3.5 3.5c-24.5 0-44.4 19.9-44.4 44.4 0 1.9-1.5 3.5-3.5 3.5Z"/></g><defs><clipPath id="a"><path fill="#fff" d="M0 0h145.3v145.3H0z"/></clipPath></defs></svg>