<svg width="2018" height="1226" fill="none" xmlns="http://www.w3.org/2000/svg"><g clip-path="url(#a)" fill="#fff"><path d="M62.6 401.9c0 17.3-14 31.3-31.3 31.3S0 419.2 0 401.9s14-31.3 31.3-31.3 31.3 14 31.3 31.3Zm52.5 50.4c0 5.6-4.5 10.2-10.2 10.2-5.6 0-10.2-4.5-10.2-10.2 0-5.6 4.5-10.2 10.2-10.2 5.7 0 10.2 4.6 10.2 10.2Zm1643.5 365.5c0 11.9-9.6 21.5-21.5 21.5s-21.5-9.6-21.5-21.5 9.6-21.5 21.5-21.5c11.9.1 21.5 9.7 21.5 21.5Zm45.8-80.5c0 6.2-5 11.2-11.2 11.2-6.2 0-11.2-5-11.2-11.2 0-6.2 5-11.2 11.2-11.2 6.1-.1 11.2 5 11.2 11.2Zm186.4-157.4c0 11.9-9.7 21.6-21.6 21.6-11.9 0-21.6-9.7-21.6-21.6 0-11.9 9.7-21.6 21.6-21.6 12 0 21.6 9.6 21.6 21.6Zm2.5 168.6c13.25 0 24-10.745 24-24s-10.75-24-24-24c-13.26 0-24 10.745-24 24s10.74 24 24 24Z"/><path d="M1990.7 748.5c13.26 0 24-10.745 24-24s-10.74-24-24-24c-13.25 0-24 10.745-24 24s10.75 24 24 24ZM675.8 1157.1c18.8 0 34.1 15.3 34.1 34.1s-15.3 34.1-34.1 34.1-34.1-15.3-34.1-34.1 15.2-34.1 34.1-34.1Zm163-14.4c5.302 0 9.6-4.3 9.6-9.6s-4.298-9.6-9.6-9.6-9.6 4.3-9.6 9.6 4.298 9.6 9.6 9.6Zm367.8-130c15.9 0 28.8 12.9 28.8 28.8s-12.9 28.8-28.8 28.8-28.8-12.9-28.8-28.8c.1-15.9 12.9-28.8 28.8-28.8Zm-59.4 67.4c9.5 0 17.2 7.7 17.2 17.2s-7.7 17.2-17.2 17.2-17.2-7.7-17.2-17.2 7.7-17.2 17.2-17.2Zm176.1-999.7c0 19-15.4 34.4-34.4 34.4s-34.4-15.4-34.4-34.4 15.4-34.4 34.4-34.4c19-.1 34.4 15.3 34.4 34.4Zm65.1-70.8c0 5.3-4.3 9.6-9.6 9.6s-9.6-4.3-9.6-9.6 4.3-9.6 9.6-9.6 9.6 4.3 9.6 9.6Zm42.1 162.6c0 16.9-13.7 30.6-30.6 30.6-16.9 0-30.6-13.7-30.6-30.6 0-16.9 13.7-30.6 30.6-30.6 16.9 0 30.6 13.7 30.6 30.6ZM1076 465.9c0 5.7-4.6 10.3-10.3 10.3-5.7 0-10.3-4.6-10.3-10.3 0-5.7 4.6-10.3 10.3-10.3 5.7 0 10.3 4.6 10.3 10.3Zm226 243.4c0 17.6-14.3 31.9-31.9 31.9-17.6 0-31.9-14.3-31.9-31.9 0-17.6 14.3-31.9 31.9-31.9 17.7 0 31.9 14.2 31.9 31.9Zm-363.4-74.1c7.621 0 13.8-6.178 13.8-13.8 0-7.621-6.179-13.8-13.8-13.8-7.622 0-13.8 6.179-13.8 13.8 0 7.622 6.178 13.8 13.8 13.8Z"/></g><defs><clipPath id="a"><path fill="#fff" d="M0 0h2017.3v1225.3H0z"/></clipPath></defs></svg>