<svg width="469" height="349" fill="none" xmlns="http://www.w3.org/2000/svg"><path d="M389.699 98.6c28.3 27 58.8 67.6 77 126.4l-74.3 72.3c-10.8 5.5-22.6 11-35.3 16.2-.3.1-.5.2-.8.3-1.6.7-3.3 1.3-4.9 2-.7.3-1.5.6-2.2.9-2.4.9-4.9 1.9-7.4 2.8-32.6 12.1-70.3 21.8-111.9 25.5-1 .1-2.1.2-3.1.3-.9.1-1.8.1-2.7.2-2.1.2-4.2.3-6.3.4-.8 0-1.6.1-2.4.1-1 .1-2 .1-2.9.1-1 0-2 .1-2.9.1-1 0-2 .1-3 .1s-2 .1-3 .1-2 0-3 .1c-3 .1-6 .1-9 0-2 0-4 0-6.1-.1-1 0-2-.1-3-.1s-2-.1-3.1-.1c-25-.9-51-4.3-78-10.7-1.1-.3-2.3-.5-3.4-.8 0 0-.9.4-2.5 1.1-8.2 3.4-35.7 13.7-57.7 8.2-35.2-8.9-55-67.5-7-142.9 47.5-74.8 121.5-106.7 147.8-13.8.2.8.5 1.7.7 2.5 0 0 .7.6 2.2 1.7 4.2 3.1 14.3 10.2 29.9 17.8 18.3 9.1 44.3 19.1 77 24.7 35.1 6 78 6.8 127.7-4.1 0 0-13.8-26.6-61-49.5-10.7-5.2-23.1-10.2-37.5-14.6-19.7-6.1-43.1-11.2-70.8-14.3-1.1-.1-2.3-.3-3.5-.4 0 0-.9.4-2.4 1-11.6 4.8-62 23-68.1-22.2-6.7-51.1 37.6-125.7 86.9-127.3 48-1.5 62.7 14.6 61.7 46.7 0 .9-.1 1.7-.1 2.6 0 0 .8.3 2.3 1 4.4 1.9 15 6.9 28.7 15.9 5.9 3.9 12.4 8.5 19.2 13.9 2.7 2.2 5.5 4.5 8.3 6.9.5.4.9.8 1.4 1.2 2.4 2.1 4.7 4.2 7.1 6.5.4.4.9.9 1.4 1.3Z" fill="url(#a)"/><path d="M36.7 282.7c-11.7-12.2.2-39.2 22.1-63.8 21.9-24.6 39.8-24.9 50.5-17.8 10.7 7.1-.7 47.8-21.7 67.8-21.1 20-42.3 22.8-50.9 13.8Z" fill="url(#b)"/><path d="M110.6 199c-7.1-4.7-26.5-12.4-53.7 18.3-25.3 28.4-33.9 54.8-22 67.2 9.2 9.6 31.4 8.1 54.4-13.8l.5-.5c17-16.5 27.3-45 26-60.5-.6-5.2-2.3-8.8-5.2-10.7Zm-24.4 67.6c-.2.1-.3.3-.5.4-19.8 18.8-39.5 21.9-47.3 14l-.1-.1c-9.6-10.1-.5-34.9 22.2-60.4 1.9-2.1 3.7-4 5.4-5.7 21.7-21.1 36.3-15.4 41.8-11.8 1.6 1 2.5 3.5 2.9 7 1.4 14.5-8.8 41.5-24.4 56.6Z" fill="#231F20"/><path d="M210.5 105.1c-6.6-8.1-1.7-25.7 15.3-43.5 17-17.7 33.6-27.9 41.2-21.2 7.6 6.7-5.1 34.5-21.4 48.5-16.2 13.9-29.8 22.8-35.1 16.2Z" fill="url(#c)"/><path d="M268.7 38.6c-8.3-7.3-24.6.5-44.6 21.4-8.5 8.9-14.4 18.1-17.1 26.4-2.7 8.3-2.3 15.5 1.6 20.4 1.5 1.8 3.5 2.9 5.9 3.1 6.7.6 16.5-5.1 32.8-19 .9-.8 1.9-1.7 2.8-2.6 11.8-11.5 21.6-29.9 21.7-41.2 0-3.9-1-6.7-3.1-8.5ZM244 87c-5.4 4.6-21.6 18.5-29.1 17.8-1.1-.1-1.9-.5-2.5-1.3-5.2-6.4-1.6-22.6 15.2-40.1 17.1-17.9 31.9-26.1 37.7-21.1 1.2 1 1.4 3.1 1.4 4.7 0 9.8-9.7 28.9-22.7 40Z" fill="#231F20"/><path d="M183.3 318.9c-27-2.4-49.8 6.3-51 19.4-.1 1.1 0 2.2.2 3.3 34.2 5.4 66.9 6 97.4 3.3-1.1-12.3-21.1-23.7-46.6-26Zm173.9-13.6c-3.2-14.2-22.6-21.9-43.4-17.2-20.8 4.7-35 20-31.8 34.2 1.2 5.2 4.5 9.5 9.2 12.6 24-5.8 46.1-13.2 66-21.4.6-2.8.6-5.5 0-8.2ZM339.8 73c-4.2 9.3 3.9 22.1 18.1 28.5 12.8 5.8 26.2 4.4 31.8-2.8-15.4-14.7-30.2-25.4-42-32.8-3.6 1.5-6.4 3.8-7.9 7.1Zm-24.5 79.1c-1.8 4.1-.8 9 2.5 13.7 14.3 4.4 26.8 9.4 37.4 14.6 4-1.1 7-3.3 8.5-6.6 3.7-8.1-4.2-19.6-17.6-25.6-13.3-6-27.1-4.3-30.8 3.9Zm80.9 20.5c8.2 10.4 19.6 15.1 25.4 10.6 5.8-4.6 3.8-16.7-4.4-27.2-8.2-10.4-19.6-15.1-25.4-10.6-5.8 4.6-3.8 16.8 4.4 27.2Zm-155.3 80.6c23.7 4.5 45-2.8 47.5-16.2.2-1 .2-2.1.2-3.2-32.7-5.6-58.6-15.6-76.9-24.6-4.9 3-8.2 6.9-9.1 11.7-2.6 13.4 14.6 27.9 38.3 32.3Z" fill="#BA9507"/><path d="M97.4 332.3c3.7-1.6 7-4.5 10-7.3 6.3-6.2 11.7-13.5 16.4-20.9 2.1-3.3 4.9-8.1 6.9-11.6-2.7 6-5.8 12.5-9 18.2-5.5 9.4-11.6 19-20.7 25.3-.6.4-1 .7-1.9 1-3.3 1.4-5.1-3.6-1.7-4.7ZM181.999 190c-4.7 23.9-14.9 46.5-28.1 66.8 1.4-2.7 2.9-5.3 4.2-8 6.8-13.4 12.1-27.5 15.7-42 1.4-5.7 2.6-11.7 3.2-17.5.5-3.3 5.5-2.7 5 .7Zm60.101-41c18-12.5 34.8-26.9 49.7-43-3.4 4.3-6.9 8.6-10.7 12.7-11.1 12.4-23.1 23.9-36.1 34.4-2.8 2-5.8-2.1-2.9-4.1Zm81.5-96.2c-6.3 14.1-13.3 28-22.5 40.4 5.9-9.9 10.2-20.6 14.2-31.3 1.3-3.6 2.5-7.2 3.7-10.8 1.1-3.3 5.9-1.5 4.6 1.7Z" fill="#231F20"/><path d="M323.8 50.3c.7-16.7-2.7-28.3-10.6-36.4-10-10.3-27-14.6-53.6-13.8-19.1.6-39 11.9-55.9 31.9-24 28.4-37.3 67.8-33.2 98.2 1.8 13.3 7.4 22.6 16.8 27.6 20.5 11.1 51.6-2 56.6-4.3 70.9 7.6 113.3 28.2 136.5 44.2 18.8 13 28.2 25.1 31.8 30.4-74.4 15.7-132.9 4.2-169.1-8.4-36.2-12.5-57.7-28.5-61.5-31.5-12.3-45.1-34.3-57.6-50.6-60.1-16-2.5-34.2 3.3-52.8 16.7-17.6 12.7-34.7 31.7-49.4 54.8C1.7 242.5-6.8 284.9 5.5 315.9c6.4 16 17.7 26.8 31.9 30.4 24.8 6.3 55.5-6.6 61-9 48.9 11.9 98.9 14.7 148.8 8.2 40.1-5.2 80.3-16.5 119.3-33.3 7-3 13.7-6.1 20-9.2l12.1-11.8c-10.5 5.5-21.9 11.1-34.3 16.5-2.2 1-4.5 1.9-6.8 2.9-19.9 8.2-43.1 16.1-69.1 22.2-18.4 4.3-38.2 7.7-59.1 9.5-30.2 2.7-62.8 2.2-97.1-3.3-9.3-1.5-18.7-3.3-28.2-5.5-1.8-.4-3.5-.8-5.3-1.3-.5-.1-1.1-.1-1.7.2l-.1.1c-.1 0-.2.1-.3.2-1.9.8-9.5 4.1-19.5 6.8-11.5 3-26 5.3-38.5 2.1-12.6-3.2-22.7-12.9-28.5-27.4-5.6-14-14.5-52.8 22.9-111.7 9.8-15.4 20.4-28.6 31.4-39.3 22.4-21.8 46-33 65.8-30 21.4 3.3 37.5 22.9 46.6 56.8 0 .2.1.3.1.5.1.5.4.9.8 1.3.2.2 1.3 1 3.2 2.5 4.6 3.4 14 9.8 28 16.8 8.9 4.5 19.6 9.2 32.2 13.5 13 4.5 28.8 8.9 47.1 12 34.5 5.8 77.9 7 128.4-4.1.8-.2 1.4-.7 1.7-1.4.3-.7.3-1.5 0-2.2-.4-.7-8.9-16.8-34.8-34.8-6.8-4.7-15.1-9.8-25.3-14.8-11.6-5.8-25.7-11.5-42.4-16.5-18.6-5.6-40.6-10.4-66.3-13.4-1.9-.2-3.9-.4-5.9-.7-.5 0-.9 0-1.3.2 0 0-.1 0-.2.1-2.6 1.2-33.7 14.9-52.6 4.6-7.9-4.3-12.6-12.3-14.2-23.9-3.9-29.1 8.9-67 32.1-94.3 16-18.9 34.5-29.6 52.2-30.2 24.7-.8 41.1 3.2 49.9 12.3 7.1 7.3 10 18.1 9.1 34.1v.3c-.1 1.1.6 2.1 1.6 2.5 0 0 .8.3 2.2.9 3.7 1.6 11.8 5.4 22.5 12 10.4 6.4 23.1 15.3 36.6 27.3 2.1 1.9 4.2 3.8 6.4 5.9 26.3 25.2 58.1 65.8 76.7 126.5l4-3.9c-20.7-65.5-56.4-107.7-84-132.4-28.8-25.9-54.1-37.6-60.8-40.4Z" fill="#231F20"/><defs><linearGradient id="a" x1="176.2" y1="-23.102" x2="285.158" y2="504.113" gradientUnits="userSpaceOnUse"><stop stop-color="#FF615F"/><stop offset=".61" stop-color="#B00000"/><stop offset="1" stop-color="#950B00"/></linearGradient><linearGradient id="b" x1="54.353" y1="226.577" x2="105.821" y2="269.057" gradientUnits="userSpaceOnUse"><stop stop-color="#790000"/><stop offset="1" stop-color="#380000"/></linearGradient><linearGradient id="c" x1="211.479" y1="58.113" x2="277.299" y2="93.984" gradientUnits="userSpaceOnUse"><stop stop-color="#790000"/><stop offset="1" stop-color="#380000"/></linearGradient></defs></svg>