<svg width="1731" height="659" fill="none" xmlns="http://www.w3.org/2000/svg"><path d="M490.7 150.4c0 6.5-5.2 11.7-11.7 11.7-6.5 0-11.7-5.2-11.7-11.7 0-6.5 5.2-11.7 11.7-11.7 6.5 0 11.7 5.2 11.7 11.7Zm19.7 18.9c0 2.1-1.7 3.8-3.8 3.8-2.1 0-3.8-1.7-3.8-3.8 0-2.1 1.7-3.8 3.8-3.8 2.1 0 3.8 1.7 3.8 3.8Zm-148 36.2a7.6 7.6 0 1 0 0-15.2 7.6 7.6 0 0 0 0 15.2Zm33.8 6a3 3 0 1 0 0-6 3 3 0 0 0 0 6Zm729.2 94.6c0 4.4-3.6 8-8 8s-8-3.6-8-8 3.6-8 8-8c4.4-.1 8 3.5 8 8Zm17.1-30.2c0 2.3-1.9 4.2-4.2 4.2-2.3 0-4.2-1.9-4.2-4.2 0-2.3 1.9-4.2 4.2-4.2 2.4 0 4.2 1.9 4.2 4.2Zm69.8-58.9c0 4.5-3.6 8.1-8.1 8.1s-8.1-3.6-8.1-8.1 3.6-8.1 8.1-8.1 8.1 3.6 8.1 8.1Zm.9 63.1a9 9 0 1 0 0-18 9 9 0 0 0 0 18Zm32.9-39.6c0 2.8-2.2 5-5 5s-5-2.2-5-5 2.2-5 5-5 5 2.2 5 5Zm89-130.4c0 7-5.7 12.8-12.8 12.8-7 0-12.8-5.7-12.8-12.8 0-7.1 5.7-12.8 12.8-12.8 7.1.1 12.8 5.8 12.8 12.8Zm9 64.6c1.99 0 3.6-1.612 3.6-3.6s-1.61-3.6-3.6-3.6-3.6 1.612-3.6 3.6 1.61 3.6 3.6 3.6Zm45.1 134.1c0 5.9-4.8 10.8-10.8 10.8-5.9 0-10.8-4.8-10.8-10.8 0-5.9 4.8-10.8 10.8-10.8 6 0 10.8 4.8 10.8 10.8Zm-25.3-22.3c0 3.6-2.9 6.4-6.4 6.4-3.6 0-6.4-2.9-6.4-6.4 0-3.6 2.9-6.4 6.4-6.4 3.6 0 6.4 2.9 6.4 6.4ZM916.1 642.7c4.4 0 8 3.6 8 8s-3.6 8-8 8-8-3.6-8-8 3.6-8 8-8ZM886 625.6c2.3 0 4.2 1.9 4.2 4.2 0 2.3-1.9 4.2-4.2 4.2-2.3 0-4.2-1.9-4.2-4.2 0-2.3 1.8-4.2 4.2-4.2Zm-58.9-69.8c4.5 0 8.1 3.6 8.1 8.1s-3.6 8.1-8.1 8.1-8.1-3.6-8.1-8.1c0-4.4 3.6-8.1 8.1-8.1Zm54.1 8.1a9 9 0 1 0 0-18 9 9 0 0 0 0 18ZM850.6 522c2.8 0 5 2.2 5 5s-2.2 5-5 5-5-2.2-5-5c0-2.7 2.2-5 5-5Zm-130.4-89c7 0 12.8 5.7 12.8 12.8 0 7-5.7 12.8-12.8 12.8-7.1 0-12.8-5.7-12.8-12.8 0-7.1 5.7-12.8 12.8-12.8Zm61-5.4a3.6 3.6 0 1 0 0-7.2 3.6 3.6 0 0 0 0 7.2ZM918.8 379c5.9 0 10.8 4.8 10.8 10.8 0 5.9-4.8 10.8-10.8 10.8-5.9 0-10.8-4.8-10.8-10.8.1-6 4.9-10.8 10.8-10.8Zm-22.2 25.2c3.6 0 6.4 2.9 6.4 6.4 0 3.6-2.9 6.4-6.4 6.4-3.6 0-6.4-2.9-6.4-6.4 0-3.5 2.8-6.4 6.4-6.4ZM238.5 125c0-4.4 3.6-8 8-8s8 3.6 8 8-3.6 8-8 8-8-3.6-8-8Zm-17.1 30.2c0-2.3 1.9-4.2 4.2-4.2 2.3 0 4.2 1.9 4.2 4.2 0 2.3-1.9 4.2-4.2 4.2-2.3 0-4.2-1.9-4.2-4.2Zm-61.7 67a8.1 8.1 0 1 0 0-16.2 8.1 8.1 0 0 0 0 16.2Zm-18-62.3c0-5 4-9 9-9s9 4 9 9-4 9-9 9c-4.9 0-9-4-9-9Zm-23.9 30.7c0-2.8 2.2-5 5-5s5 2.2 5 5-2.2 5-5 5c-2.7 0-5-2.3-5-5Zm-89 391.9c0-7 5.7-12.8 12.8-12.8 7 0 12.8 5.7 12.8 12.8 0 7.1-5.7 12.8-12.8 12.8-7.1-.1-12.8-5.8-12.8-12.8ZM16.2 259.9c0-2 1.6-3.6 3.6-3.6s3.6 1.6 3.6 3.6-1.6 3.6-3.6 3.6-3.6-1.6-3.6-3.6ZM0 144.5c0-3.6 2.9-6.4 6.4-6.4 3.6 0 6.4 2.9 6.4 6.4 0 3.6-2.9 6.4-6.4 6.4-3.5.1-6.4-2.8-6.4-6.4Zm1690.7 150.9c0 7.1-5.8 12.9-12.9 12.9-7.1 0-12.9-5.8-12.9-12.9 0-7.1 5.8-12.9 12.9-12.9 7.2 0 12.9 5.8 12.9 12.9Zm24.4-26.5c0 2-1.6 3.6-3.6 3.6s-3.6-1.6-3.6-3.6 1.6-3.6 3.6-3.6 3.6 1.7 3.6 3.6Zm15.7 60.9c0 6.3-5.1 11.5-11.5 11.5-6.3 0-11.5-5.1-11.5-11.5 0-6.3 5.1-11.5 11.5-11.5s11.5 5.2 11.5 11.5Zm-132.6 109.9c0 2.1-1.7 3.9-3.9 3.9-2.1 0-3.9-1.7-3.9-3.9 0-2.1 1.7-3.9 3.9-3.9s3.9 1.8 3.9 3.9Zm84.6 91.1c0 6.6-5.3 11.9-11.9 11.9-6.6 0-11.9-5.3-11.9-11.9 0-6.6 5.3-11.9 11.9-11.9 6.5-.1 11.9 5.3 11.9 11.9ZM962.5 30.1c0 7.1-5.8 12.9-12.9 12.9-7.1 0-12.9-5.8-12.9-12.9 0-7.1 5.8-12.9 12.9-12.9 7.2 0 12.9 5.8 12.9 12.9Zm24.4-26.5c0 2-1.6 3.6-3.6 3.6s-3.6-1.6-3.6-3.6 1.6-3.6 3.6-3.6 3.6 1.6 3.6 3.6Zm15.7 60.8c0 6.3-5.1 11.5-11.5 11.5s-11.5-5.1-11.5-11.5c0-6.3 5.1-11.5 11.5-11.5s11.5 5.2 11.5 11.5ZM870 174.3c0 2.1-1.7 3.9-3.9 3.9-2.1 0-3.9-1.7-3.9-3.9 0-2.1 1.7-3.9 3.9-3.9 2.2.1 3.9 1.8 3.9 3.9Zm84.6 91.1c0 6.6-5.3 11.9-11.9 11.9-6.6 0-11.9-5.3-11.9-11.9 0-6.6 5.3-11.9 11.9-11.9 6.6 0 11.9 5.3 11.9 11.9ZM581.4 539.9c9.61 0 17.4-7.79 17.4-17.4s-7.79-17.4-17.4-17.4-17.4 7.79-17.4 17.4 7.79 17.4 17.4 17.4Zm-29.6-53.8c0 3.9-3.2 7.1-7.1 7.1-3.9 0-7.1-3.2-7.1-7.1 0-3.9 3.2-7.1 7.1-7.1 3.9 0 7.1 3.2 7.1 7.1Zm41.4-13.1c0 3.3-2.6 5.9-5.9 5.9-3.3 0-5.9-2.6-5.9-5.9 0-3.3 2.6-5.9 5.9-5.9 3.3 0 5.9 2.7 5.9 5.9Zm123.9 61.7a6.1 6.1 0 1 0 0-12.2 6.1 6.1 0 0 0 0 12.2Zm101.5-297a5.2 5.2 0 1 0 0-10.4 5.2 5.2 0 0 0 0 10.4Z" opacity=".67" fill="#fff"/></svg>