<svg width="13" height="15" viewBox="0 0 13 15" fill="none" xmlns="http://www.w3.org/2000/svg">
<path d="M13.0001 11.24V14.1871H0.431152V11.24H13.0001Z" fill="#363432"/>
<path d="M1.95205 9.06017C2.77477 9.06017 3.44171 8.40043 3.44171 7.5866C3.44171 6.77277 2.77477 6.11304 1.95205 6.11304C1.12934 6.11304 0.462402 6.77277 0.462402 7.5866C0.462402 8.40043 1.12934 9.06017 1.95205 9.06017Z" fill="#F3D921"/>
<path d="M6.73136 9.06017C7.55407 9.06017 8.22101 8.40043 8.22101 7.5866C8.22101 6.77277 7.55407 6.11304 6.73136 6.11304C5.90864 6.11304 5.2417 6.77277 5.2417 7.5866C5.2417 8.40043 5.90864 9.06017 6.73136 9.06017Z" fill="#62250C"/>
<path d="M11.5107 9.06017C12.3334 9.06017 13.0003 8.40043 13.0003 7.5866C13.0003 6.77277 12.3334 6.11304 11.5107 6.11304C10.6879 6.11304 10.021 6.77277 10.021 7.5866C10.021 8.40043 10.6879 9.06017 11.5107 9.06017Z" fill="#43D5A4"/>
<path d="M1.95205 3.93346C2.77477 3.93346 3.44171 3.27372 3.44171 2.45989C3.44171 1.64607 2.77477 0.986328 1.95205 0.986328C1.12934 0.986328 0.462402 1.64607 0.462402 2.45989C0.462402 3.27372 1.12934 3.93346 1.95205 3.93346Z" fill="#0197D1"/>
<path d="M6.73136 3.93346C7.55407 3.93346 8.22101 3.27372 8.22101 2.45989C8.22101 1.64607 7.55407 0.986328 6.73136 0.986328C5.90864 0.986328 5.2417 1.64607 5.2417 2.45989C5.2417 3.27372 5.90864 3.93346 6.73136 3.93346Z" fill="#9541B4"/>
<path d="M11.5107 3.93346C12.3334 3.93346 13.0003 3.27372 13.0003 2.45989C13.0003 1.64607 12.3334 0.986328 11.5107 0.986328C10.6879 0.986328 10.021 1.64607 10.021 2.45989C10.021 3.27372 10.6879 3.93346 11.5107 3.93346Z" fill="#F14B03"/>
</svg>
