<svg width="73" height="42" viewBox="0 0 73 42" fill="none" xmlns="http://www.w3.org/2000/svg">
<path d="M41.6793 17.1608V10.714C41.6793 9.24043 41.2138 8.01246 40.2517 7.06079C39.2896 6.10911 37.8 5.61792 35.7827 5.61792C33.9827 5.61792 32.5862 6.07841 31.5931 6.96869C30.6 7.85897 30.0414 8.87204 29.9483 9.94652H33.6724C33.7965 9.73162 33.9517 9.51673 34.1379 9.33253C34.5414 8.96414 35.0689 8.74924 35.7517 8.74924C36.3724 8.74924 36.8379 8.87204 37.1793 9.14833C37.5207 9.42463 37.7069 9.76232 37.7069 10.1614C37.7069 10.6833 37.3965 10.9596 36.7448 11.0517L33.6103 11.5429C32.462 11.7271 31.5 12.1569 30.7552 12.8322C30.0103 13.5076 29.6689 14.3979 29.6689 15.5338C29.6689 16.639 30.0724 17.5599 30.9103 18.3581C31.7483 19.1563 32.8655 19.5247 34.262 19.5247C36 19.5247 37.2414 18.9107 38.0172 17.6827C38.0172 18.3274 38.0483 18.8186 38.1414 19.1563H41.8034C41.7414 18.6651 41.6793 17.9897 41.6793 17.1608ZM37.7069 14.0295C37.7069 14.9812 37.4586 15.6259 37.0241 16.0557C36.5586 16.4548 35.9689 16.6697 35.2862 16.6697C34.7586 16.6697 34.3552 16.5469 34.1069 16.2706C33.8586 15.9943 33.7034 15.6873 33.7034 15.3189C33.7034 14.5207 34.2 14.0295 35.1931 13.8453L37.7069 13.4462V14.0295Z" fill="#363432"/>
<path d="M56.8866 6.01709L52.2935 18.8801C51.7039 20.5071 50.7729 22.564 50.3384 23.1473C49.2211 24.5594 46.7694 25.0199 44.6591 24.2218V20.8755C46.9556 21.4895 47.4211 20.2922 48.0108 18.6652L42.6729 6.01709H47.1108L50.0901 14.1217L52.6039 6.01709H56.8866Z" fill="#363432"/>
<path d="M11.1727 8.01251L8.62782 7.52132C7.38644 7.30642 6.76575 6.69244 6.76575 5.71006C6.76575 5.15748 7.01403 4.69699 7.47955 4.2979C7.9761 3.89881 8.59679 3.71461 9.37265 3.71461C10.3968 3.71461 11.1416 3.9602 11.6382 4.45139C11.7933 4.60489 11.9485 4.78908 12.0727 4.97328H16.3244C16.2002 4.38999 16.014 3.80671 15.7347 3.28482C15.4244 2.73223 15.0209 2.21035 14.5244 1.68846C13.9968 1.16657 13.314 0.767482 12.414 0.460489C11.483 0.153496 10.4899 0 9.37265 0C7.51058 0 5.92782 0.583286 4.5623 1.71916C3.22782 2.85503 2.54506 4.2979 2.54506 6.04775C2.54506 7.45992 3.01058 8.62649 3.94162 9.63957C4.87265 10.6219 6.11403 11.2666 7.72782 11.5736L10.3347 12.0648C10.9864 12.1876 11.483 12.4025 11.8244 12.7402C12.1968 13.0779 12.352 13.477 12.352 13.9375C12.352 14.5208 12.1037 14.9812 11.6382 15.3496C11.1416 15.718 10.4899 15.9022 9.68299 15.9022C8.44162 15.9022 7.51058 15.5952 6.85886 14.9812C6.45541 14.5821 6.14506 14.1217 5.95886 13.5998H1.8623C2.01748 15.1347 2.7623 16.5469 4.06575 17.7749C5.3692 19.0028 7.23127 19.6168 9.62093 19.6168C11.7623 19.6168 13.4692 19.0335 14.7416 17.8363C16.014 16.639 16.6347 15.2575 16.6347 13.6919C16.6347 12.3104 16.1692 11.1131 15.2071 10.0694C14.2761 8.99488 12.9106 8.3195 11.1727 8.01251Z" fill="#363432"/>
<path d="M24.8587 2.17969V6.0171H27.4655V9.54751H24.8587V14.4901C24.8587 15.4111 25.3552 15.8716 26.3483 15.8716C27.3724 15.8716 27.6828 15.7488 28.0862 15.6567V19.0029C27.5897 19.2485 26.7207 19.4634 25.2931 19.4634C23.9276 19.4634 22.8414 19.095 22.0345 18.3275C21.2276 17.56 20.8552 16.5469 20.8552 15.2269V9.54751H18.4966V6.0171H19.1793C19.8621 6.0171 20.3587 5.8329 20.7311 5.43381C21.0724 5.03472 21.2587 4.51283 21.2587 3.86815V2.17969H24.8587Z" fill="#363432"/>
<path d="M14.3381 34.9052C14.0588 35.3656 13.7175 35.7954 13.283 36.1945C12.4761 36.9313 11.3588 37.269 9.86918 37.269C8.37953 37.269 7.07608 36.7778 6.0209 35.7647C4.9347 34.7517 4.40711 33.4009 4.40711 31.7124C4.40711 29.8705 4.96573 28.4583 6.05194 27.4452C7.13815 26.4322 8.41056 25.941 9.83815 25.941C10.614 25.941 11.3278 26.0638 11.9485 26.3094C12.5692 26.555 13.0657 26.862 13.4381 27.2303C13.7175 27.5373 13.9657 27.8443 14.1519 28.1513H18.683C18.5278 27.4145 18.2485 26.7392 17.845 26.0638C17.4416 25.3884 16.883 24.713 16.2002 24.0376C15.5175 23.3929 14.6175 22.871 13.5312 22.472C12.445 22.0729 11.2037 21.8887 9.83815 21.8887C7.10711 21.8887 4.81056 22.8096 2.88642 24.6516C0.962284 26.4936 0.03125 28.8574 0.03125 31.7124C0.03125 34.5982 0.993319 36.9313 2.88642 38.7426C4.77953 40.5538 7.13815 41.4748 9.90022 41.4748C11.2968 41.4748 12.5692 41.2599 13.6864 40.8301C14.8347 40.4003 15.7347 39.8477 16.4175 39.1417C17.1002 38.4663 17.6588 37.7602 18.0623 37.0541C18.4657 36.348 18.745 35.6419 18.9312 34.9359H14.3381V34.9052Z" fill="#363432"/>
<path d="M25.3553 36.1023V35.3655H21.2588V36.8083C21.2588 38.1284 21.6933 39.1415 22.5002 39.909C23.3071 40.6765 24.3933 41.0448 25.7588 41.0448C26.6588 41.0448 27.3726 40.922 27.8691 40.6765V37.3302C27.4657 37.4223 27.1243 37.453 26.7829 37.453C25.8209 37.4837 25.3553 37.0232 25.3553 36.1023Z" fill="#363432"/>
<path d="M25.3553 36.6243H21.2588V21.8579H25.3243V36.6243H25.3553Z" fill="#363432"/>
<path d="M38.6382 37.2688C38.1417 37.76 37.4589 38.0056 36.5589 38.0056C35.752 38.0056 35.0693 37.76 34.4796 37.2688C33.89 36.7776 33.5796 36.1637 33.5486 35.4576H42.8279C42.89 35.3041 42.921 34.8743 42.921 34.1989C42.921 32.0807 42.3313 30.4229 41.152 29.2256C39.9727 28.0284 38.3279 27.4451 36.2486 27.4451C34.4486 27.4451 32.8969 28.0898 31.5624 29.3791C30.2589 30.6685 29.5762 32.3263 29.5762 34.3831C29.5762 36.532 30.2589 38.2205 31.5934 39.5099C32.9279 40.7685 34.5727 41.4132 36.5279 41.4132C38.1417 41.4132 39.4762 41.0141 40.5624 40.2467C41.6175 39.4792 42.3313 38.4661 42.6727 37.2381H38.6382V37.2688ZM34.3555 31.3439C34.821 30.8834 35.4417 30.6685 36.2175 30.6685C37.0865 30.6685 37.7382 30.8834 38.2038 31.3439C38.6382 31.7737 38.8865 32.2956 38.9176 32.9095H33.5796C33.6417 32.3262 33.89 31.8044 34.3555 31.3439Z" fill="#363432"/>
<path d="M56.7623 39.0188V32.5719C56.7623 31.0983 56.2968 29.8704 55.3347 28.9187C54.3726 27.967 52.883 27.4758 50.8657 27.4758C49.0657 27.4758 47.6692 27.9363 46.6761 28.8266C45.683 29.7169 45.1244 30.73 45.0313 31.8044H48.7554C48.8795 31.5895 49.0347 31.3746 49.2209 31.1904C49.6244 30.822 50.152 30.6072 50.8347 30.6072C51.4554 30.6072 51.9209 30.73 52.2623 31.0062C52.6037 31.2825 52.7899 31.6202 52.7899 32.0193C52.7899 32.5412 52.4795 32.8175 51.8278 32.9096L48.6933 33.4008C47.5451 33.585 46.583 34.0148 45.8382 34.6902C45.0933 35.3655 44.752 36.2558 44.752 37.3917C44.752 38.4969 45.1554 39.4178 45.9933 40.216C46.8313 41.0142 47.9485 41.3826 49.3451 41.3826C51.083 41.3826 52.3244 40.7686 53.1002 39.5406C53.1002 40.1853 53.1313 40.6765 53.2244 41.0142H56.8864C56.8244 40.523 56.7623 39.8476 56.7623 39.0188ZM52.7899 35.8874C52.7899 36.8391 52.5416 37.4838 52.1071 37.9136C51.6416 38.3127 51.052 38.5276 50.3692 38.5276C49.8416 38.5276 49.4382 38.4048 49.1899 38.1285C48.9416 37.8522 48.7864 37.5452 48.7864 37.1768C48.7864 36.3786 49.283 35.8874 50.2761 35.7032L52.7899 35.3041V35.8874Z" fill="#363432"/>
<path d="M63.5279 33.493V41.045H59.4624V27.875H63.4038V29.3793C63.7452 28.796 64.2727 28.3355 64.9865 28.0285C65.7003 27.7216 66.4141 27.5374 67.159 27.5374C68.7417 27.5374 69.9521 28.0285 70.79 29.0109C71.5969 29.9933 72.0314 31.252 72.0314 32.7869V41.0757H67.9658V33.4623C67.9658 32.7869 67.7796 32.2343 67.4072 31.8046C67.0348 31.3748 66.5072 31.1906 65.7934 31.1906C65.1417 31.1906 64.6141 31.4055 64.2107 31.8353C63.7452 32.265 63.5279 32.8176 63.5279 33.493Z" fill="#363432"/>
<path d="M72.0001 16.24V19.1871H59.4312V16.24H72.0001Z" fill="#363432"/>
<path d="M60.9521 14.0602C61.7748 14.0602 62.4417 13.4004 62.4417 12.5866C62.4417 11.7728 61.7748 11.113 60.9521 11.113C60.1293 11.113 59.4624 11.7728 59.4624 12.5866C59.4624 13.4004 60.1293 14.0602 60.9521 14.0602Z" fill="#F3D921"/>
<path d="M65.7314 14.0602C66.5541 14.0602 67.221 13.4004 67.221 12.5866C67.221 11.7728 66.5541 11.113 65.7314 11.113C64.9086 11.113 64.2417 11.7728 64.2417 12.5866C64.2417 13.4004 64.9086 14.0602 65.7314 14.0602Z" fill="#62250C"/>
<path d="M70.5107 14.0602C71.3334 14.0602 72.0003 13.4004 72.0003 12.5866C72.0003 11.7728 71.3334 11.113 70.5107 11.113C69.6879 11.113 69.021 11.7728 69.021 12.5866C69.021 13.4004 69.6879 14.0602 70.5107 14.0602Z" fill="#43D5A4"/>
<path d="M60.9521 8.93346C61.7748 8.93346 62.4417 8.27372 62.4417 7.45989C62.4417 6.64607 61.7748 5.98633 60.9521 5.98633C60.1293 5.98633 59.4624 6.64607 59.4624 7.45989C59.4624 8.27372 60.1293 8.93346 60.9521 8.93346Z" fill="#0197D1"/>
<path d="M65.7314 8.93346C66.5541 8.93346 67.221 8.27372 67.221 7.45989C67.221 6.64607 66.5541 5.98633 65.7314 5.98633C64.9086 5.98633 64.2417 6.64607 64.2417 7.45989C64.2417 8.27372 64.9086 8.93346 65.7314 8.93346Z" fill="#9541B4"/>
<path d="M70.5107 8.93346C71.3334 8.93346 72.0003 8.27372 72.0003 7.45989C72.0003 6.64607 71.3334 5.98633 70.5107 5.98633C69.6879 5.98633 69.021 6.64607 69.021 7.45989C69.021 8.27372 69.6879 8.93346 70.5107 8.93346Z" fill="#F14B03"/>
</svg>
